<mxfile host="app.diagrams.net" agent="Mozilla/5.0 (Windows NT 10.0; Win64; x64; rv:138.0) Gecko/20100101 Firefox/138.0" version="26.3.0">
  <diagram name="Page-1" id="7Yh43Y2Ot-qijMfYuII9">
    <mxGraphModel dx="3575" dy="717" grid="1" gridSize="10" guides="1" tooltips="1" connect="1" arrows="1" fold="1" page="1" pageScale="1" pageWidth="827" pageHeight="1169" math="0" shadow="0">
      <root>
        <mxCell id="0" />
        <mxCell id="1" parent="0" />
        <mxCell id="l_KMotrVdlq0wGStUdk4-5" style="edgeStyle=orthogonalEdgeStyle;rounded=0;orthogonalLoop=1;jettySize=auto;html=1;exitX=1;exitY=0.5;exitDx=0;exitDy=0;entryX=0;entryY=0.5;entryDx=0;entryDy=0;fontFamily=Helvetica;fontSize=12;fontColor=default;" edge="1" parent="1" source="l_KMotrVdlq0wGStUdk4-1" target="l_KMotrVdlq0wGStUdk4-4">
          <mxGeometry relative="1" as="geometry" />
        </mxCell>
        <mxCell id="l_KMotrVdlq0wGStUdk4-1" value="&lt;div&gt;&lt;div&gt;&lt;div&gt;&lt;strong&gt;Scénario 2 : des chasseurs de trésors experts&lt;/strong&gt;&lt;/div&gt;&lt;/div&gt;&lt;/div&gt;" style="shape=process;whiteSpace=wrap;html=1;backgroundOutline=1;" vertex="1" parent="1">
          <mxGeometry x="-1430" y="285" width="150" height="80" as="geometry" />
        </mxCell>
        <mxCell id="l_KMotrVdlq0wGStUdk4-7" value="" style="edgeStyle=orthogonalEdgeStyle;rounded=0;orthogonalLoop=1;jettySize=auto;html=1;fontFamily=Helvetica;fontSize=12;fontColor=default;" edge="1" parent="1" source="l_KMotrVdlq0wGStUdk4-4" target="l_KMotrVdlq0wGStUdk4-6">
          <mxGeometry relative="1" as="geometry" />
        </mxCell>
        <mxCell id="l_KMotrVdlq0wGStUdk4-4" value="&lt;br&gt;&lt;br&gt;&lt;br&gt;&lt;div align=&quot;left&quot;&gt;&lt;br&gt;&lt;/div&gt;&lt;p align=&quot;center&quot; class=&quot;MsoNormal&quot;&gt;&lt;br&gt;&lt;br&gt;&lt;/p&gt;&lt;p align=&quot;center&quot; class=&quot;MsoNormal&quot;&gt;&lt;b&gt;&lt;i&gt;&lt;u&gt;RAPPEL HISTORIQUE&lt;/u&gt;&lt;/i&gt;&lt;/b&gt;&lt;/p&gt;&lt;p align=&quot;center&quot; class=&quot;MsoNormal&quot;&gt;&lt;b&gt;&lt;i&gt;En 1147, Golfimbul et sa horde de Gobelins &lt;/i&gt;&lt;/b&gt;&lt;i&gt;descendirent&lt;br&gt;du mont Gram et franchirent la frontière du quartier Nord. &lt;/i&gt;C’est là que &lt;b&gt;Bandobras&lt;br&gt;Touque de Long Cleeve&lt;/b&gt;, dit «&amp;nbsp;&lt;b&gt;le Taureau Mugissant&lt;/b&gt;&amp;nbsp;», mena&lt;br&gt;la &lt;b&gt;Hobbiterie sous les armes&lt;/b&gt; (l’armée de la Comté) contre l’ignoble&lt;br&gt;envahisseur. Mesurant plus d’1m40 et capable de monter un cheval adulte, le&lt;br&gt;Taureau Mugissant. Il chargea les rangs des gobelins du mont Gram lors de la&lt;br&gt;Bataille des Champs Verts, et décapita leur roi Golfimbul d’un seul coup de&lt;br&gt;massue. Sa tête vola à trois cents pieds dans les airs et finit dans un terrier&lt;br&gt;de lapin. Ainsi la victoire fut acquise, et le jeu de Golf fut inventé au même&lt;br&gt;moment.&lt;i&gt; &lt;/i&gt;&lt;/p&gt;&lt;br&gt;&lt;br&gt;&lt;br&gt;&lt;br&gt;&lt;br&gt;&lt;br&gt;&lt;div&gt;&lt;br&gt;&lt;/div&gt;" style="rounded=1;whiteSpace=wrap;html=1;spacingTop=5;spacingLeft=5;spacingRight=5;" vertex="1" parent="1">
          <mxGeometry x="-1210" y="170" width="250" height="310" as="geometry" />
        </mxCell>
        <mxCell id="l_KMotrVdlq0wGStUdk4-11" value="" style="edgeStyle=orthogonalEdgeStyle;rounded=0;orthogonalLoop=1;jettySize=auto;html=1;fontFamily=Helvetica;fontSize=12;fontColor=default;" edge="1" parent="1" source="l_KMotrVdlq0wGStUdk4-6" target="l_KMotrVdlq0wGStUdk4-10">
          <mxGeometry relative="1" as="geometry" />
        </mxCell>
        <mxCell id="l_KMotrVdlq0wGStUdk4-6" value="&lt;i&gt;Lire p10 : colonne de droite&lt;/i&gt;" style="whiteSpace=wrap;html=1;rounded=1;spacingTop=5;spacingLeft=5;spacingRight=5;" vertex="1" parent="1">
          <mxGeometry x="-815" y="295" width="120" height="60" as="geometry" />
        </mxCell>
        <mxCell id="l_KMotrVdlq0wGStUdk4-10" value="&lt;i&gt;Les PJs peuvent s&#39;équiper dans la malle de Bilbo un peu plus décemment : capes, sac à dos, bâton de marche pouvant servir de gourdin, 2 arcs de chasse + flèches, une épée courte, petite hache, 3 dagues&lt;/i&gt;" style="shape=hexagon;perimeter=hexagonPerimeter2;whiteSpace=wrap;html=1;fixedSize=1;rounded=1;spacingTop=5;spacingLeft=5;spacingRight=5;" vertex="1" parent="1">
          <mxGeometry x="-610" y="247.5" width="215" height="155" as="geometry" />
        </mxCell>
        <mxCell id="l_KMotrVdlq0wGStUdk4-12" value="" style="shape=image;verticalLabelPosition=bottom;labelBackgroundColor=default;verticalAlign=top;aspect=fixed;imageAspect=0;image=data:image/png,iVBORw0KGgoAAAANSUhEUgAAAykAAABkCAYAAACCRH9FAAAgAElEQVR4XuydB4AsWVX3a/ILu2REQMUIiij6mbMogkhQJEqQHCTnnPOSWXJGSQaCCiigBAkGFLOiiAHJrCy7+9Lk+c7vf865dbumZ7pq9s2y+17X296Z6b5177knp1s9s762tvXVL3+u6XPNzs72GdZsbW31Gsegzc1NjZ2ZmdnxnpyP9Xcb13vR6cB9x8AQHphE/70COxSGva5zsu7ry9tD99V33r77YP0uDHtZY9w+9jJPH7j3a94+aw+l14WZc9w+WX/I/oeMvTCw7nTvyV6/D4yn+phxMrv7nmd68sx2W5/06yPfu8lGHz6o78/fJ9036fOhvDBUvvdj/d38qN3Wqz9LHmn3A215OS/ULlq6eO17fD5b7EKX3+p1fK6d/b3E/yQbMxTvQ+ma4/vAute5J903Do+1fNU46IvX2u+etH76Zn1wACw1H3Z5q7tWH59f6w8JUvoAyqRDmKevAWVc3yBpiNM7BNb9nLcPs1ySxuwXXofgYCgMQ+bej7H7IV9DeHbInnYyIN09DKHBkLFDYN0vHPSlVyruoTDvZfw4Q+V47Z84winpe/XBwVAHuc+cQx2I/eStvrjar3F98DWUBv1lxp3Y+totSOnrqAylF2v2vWenQH6v9Om77lCe7UuDSbTdiR5dXdGdZ2uLBDKvDFJ20AvoFwUecyNBSo3PGkd9k801PDvrtdbf7CMHDtMwXdhn3qE8sFdem2Rf+8DK2kNsUt/gZ6fAdCfc9A5SNtbXts475wsTcTZJECZOsMOAREBuZJzzM0QBDVUEQ5irb0AlMRhQTeqrjIbgeD/WHzrnEHj7CteQOfcT3iFwXJLG9qXDpCxJ7rmmwbi56/eGKM6hOO2zr6H80mfOveiCvnurjcfusFNJ6Terq61+g/vqw/3C6xC9ORSGPtgaOmdffumz9l7H9IHBndP+jhzO6SQ+Z91x8l3Dc2F0QZ991b5Bl3ZDablX/Pfl2YRnyL7GwVTLaNeHy2Bhx72XIMX9GcESiiR9Mt2rIGVOlZT66tqISbagC/9OQcrI2pWv1T+J7d07/S504WR9uJ/8c2F5YPw++9mE1o2djINavmp90JX77n4m/n1xC1LqDaURvjgFKf0Ye/iok82IQ4Wmz/pD5xyChT7rD5lvktEcOtfpMr4vHXYyQLsZ/7yn/nlhHJMhNOmzr/3k7yGw9h07LkjZKZk0N9fPyAwNUvrCOmRcH1p1DeKk+feDtkPnHLKvSfvZ6+d9YCBI2WrWey4x28zOzGsstnunJCPrbmxsjHxew9LNrg9NWHT10U76f5xjvpPO6oOrnkgaGdZn3iG8tdPYrr5NGiUwXVwkztsAqTHaerC6Gd7qbAQqzM34zQ170bKvIKWtuHTpuZNe2g1/3X1lEFIHKfWY/QhShujDvfBCn3uSjtvp4zo99z2EZ6p4c1cQMgbtAydjujZJPFLpBWAdB29937aghXavr3zxMxNh6CNY9SR9xydik4nHMeZOTs1uQA9dfyICQgn3GTd0TE2goffuNH6IUui7/pA5E66+dOg7bgh+hgjtkHn3Y+xQWPvgay9z9pm33n8ttzV/1IXEbha/Njap2PYDp0P10V74uy/cQ/HaZ96cs4a76yhGJ4YZhj4zYmQwIp4Zn3RdGEfyZOjuIbwzVBYm7Z3Ph/JLfyeqz+o+pu++hsGK07nREwhjrC3nF+e9UZhmZ1vHtQtD7dQmLcfxdE9AyrDap+jeOzfnznQXd33xuBMsQ+S7z9gh9ALva+vr4oUSRFj2v8b9uCAu95JrbW7amQILUDctmORaWJhrFuathcvm3yAQMdpqTikTgpSNZt3Gbqyt2Z/zep/XnOkPUFwHKrWduLDtXhmk1DI4mH4RfE3irVnTh90K0aR79uvznZIAe9ErW1tG4z55K3XyOb2HXNAj9QF8knVZaDcXxqh7ril5tLufmbXVla0v/tcnXGhhUhRNgOSyHMDNGbHmFsSkMKH3INrLtctoO0FUyGy6cumt9FbYQKw3G5E4EfnGxroxPNkWz8iI4U2pzObLBEZGVGEgE/Bfe4i3KD37SGNYhzEChPIWQhRIFxK3mg0jFtA4M1alPfbE2MatO2NKVM3UG5Zr2lhrNkw5bBgR7G6D1eGFCJtb1iMbu5eAFpy6kAs+w6X6PcUI3lOLQshLQs84RaMOq6kivZfwOoxOI/0M3DBn6yh2S/edHuKYM9cV/m090UB4YGb2s/3AtN8T9OhwsfZccLoTDA6oY7mGC9qJwHl2z0c4IwV8Tn9BF3QdVcYdgLb9WUSnMXJpoVrZJW93BXRXcS1ILxSfBETwV+y1Hl3LX4xKphrZpwTB9yKFEgAm+nxnISvwkugLP4+WvaWKLCMmGZes+GHIImvKsAbO7Ad8r+woc7mgCX8oJQwdPCsJkn7A+U3eD2rb3/kZa6S+wEl2ZyIIXhCevxj9Jf+2FyDKbQT7dxEOh8gwxgfV8PY9Icj0QHr1Fb5ln1mLV+7VPi96KFl3DIvDm+gvooRUWy6nLZROuop+yRHohaSbg+c0NvTNMnzdcGw6QdlMezmNXU8VgybWAPac32VSuqVCVOrO2dn5Zn5+XvgaDVakpMo90Hkd50U4gQY4Nj7vHHStHnKipXP/wQtdGgkDBcaWgaVz/MPtt1RoHK9d0i7FfGETXB+PmS/IINyymwQjyRMi7VlIOyQsndj3QseBw9FoEZ6C8YvBTl4qIGNsEgexlkyH2452fWiQ89Q/XacpoJRCcFlNHZA6NvfkK9jY2Y3gV3c8U9/kfc6v4cBZkMIa6AJlTrEbsY9ZMuzwKxreqnnoF80lG9balvQ18ue6+QLoEezvrN2HzyF+TPRpK7kv35uc7KLfHAcJhy9pTvfSYtlLreuFI9lf+xlO+qz8DZcX2dvQXwljS/kxiqfIdM2kIYNhrxLVklnzJ1x+2VdWpLa3JbkN9r2nnQZXy0ePuy004IQr80Xm8UXm5otfAvzcS2BReBtdgV+xtt6sWbCxaj/xw7gOHzzQHLQXQQj3cC++DX4O+Fqz99ZWVpuV1VVDkq1l+FqYX2gWFu1lP1kv5boOuhYWFqUf3D45TtBGbsPdtsu24Nza70U34QcyLoAXLwZv50/3VAKPqZtkt1Km3Y9J+c6xegu5kl4MuO1N8IdOTPnAhjGCOTaNZkWuCjO0usbtJyKPv+dypKnttU4eIGQk+Wu8JnGZ3TBdv7Zu/iY+snQ9AalXJeaBEf+cTaBOsL/pR4bdZWztF3jg4IFn0S+ypel3tb7Q/ILRsjHcV3aj2GansP/H8rZu4Q/jm+WVFeMtC2KRRcQXu+7Ydx5wdAQ9nHrshTmQd+Ft9fjRrU9/7P3OdDCpMRzKJssyOAtigPnFZmvpcLO0tNQsHVg0Q7YgRwJHG8Zl4lTAm/b2pnnJIFRMFkYLZHKhTHDw183BXzxhArOy3qzbuisnlpuV48vNmv0uQbI5Fw4sSbHM27rzhw/KgM5hRA14SCVnKAw0G2MNhHMWLwYjioAZgdnTwoLda/PMAocEzNZbW2nW7N+iCdYcwhMCMGOMOWfjQZToiJBK4drL1lm3e49ccL5ey8dPNIvzM82hQwebMw4fag4azKvrcyZk7sgVxR1BF0K8aISfMxwqxYlOAMfai8OawdmM7dU20KwsrzTH1pab41trDUzDXqABmQ45ByhS4dkJy/7T2G6zpBKUykXBwVCk5BZAOIMGti74ngdv8AHslE9jS4kqc1WOAMPs81UDQIwty9I6Bq4Ecn1b1xA1H1JbslzwCAEgSAxWpmXFnR/DvwksdEVR8/cC+IRe8GRxBGKdroMTgpmewRbCYiAa9j1oDW8ZnpYcSC3FBZrSCI/VKqEOBbfdFTzvsuxKJB1SfV6RYZsjVrxaG1TdKyUbBl7yFM4Bv6NUZRxQ9vb3msG+Gc7ZxpYZIqPr6uqyGaMVU3xrRUlAodnVTeFxcXHR5HzReNTkQYY6AujgTUIDeJp5kCF4BfmAE7c2jWbrtobx66opqK0N6DUvfmVe5BNj1gbaiADGdLY5sW4yYLQ7cADjeNDoaUmRSq+EpTA5NHigl9FqzXQMfMKVAU8ax1S+G8YT87M2l/YBnT1TCB8SjHGtk2iw1xL+WWR/2SMZRBIRZCoxxtqX/UTnLdo+6oSNnB4cHfgjFLoCPtMLs7Z/D9Tc6UJG00lKR5G/F5B3iVk4e5AePRK45zPJpPHoLLrHdCaGACMGmZkfmZGTJx40OTTH4/iyORLwB0GIZUgXU38nD0fyCdrMG+3B/wHTlZpURt7ljP24w7HRnDAjvby61qzY+rz4HD16wPQfNJRhhD/DfsxEAke6DfyEDkoHUdla6JhrZNJMDuR2h81v9/dLQiP2I8dY+toNHzaB9eAZGflwBGsY0gFcsCmNWsKl5q7ggDhkmLFBLtu1Lktkbv+5BS02zVhHoi1HrK+aEV91h9z3HsE8xjl0ujtg7pT6GA/iFfgh6/JjjOamt0vSQKxI4m/DHU+T9UPwh+FrtaIZsoOeUIJNGXBXSOhCfofXlpBb419gWFtDf6zqd2CQTTWeWrM11pF7+wnvpny78xTOmumTOeS6cp63ZU1lL2aaI8eO2DorWvfAgYPNIbtvET/AYBFNsOm2X3yWObMd/A1sKzjN9mJfDofLi5w5u/fgpS8zwpeeEA1c2RzIEvvjOnBwyfFisoK9xm7PL2G3vWrgdhcORPO1waeSGbUeCCXP+3PILXSAfkK07QPYwSn3KFlrQYPRa9bsZ5qyNGHwiTusHlToZTrpxLnnahV4Y55gwXCNDod2+GzSvQY3Mnbc8CodhG9jE8M3R44ebY4cOdocM19m03QH+7uc4erMM84UPoAPPkGmnRc2TR+uNMePnmiOnTimrSyaX3jG4cPNpS91accduogqj/EESQwFjfbe4cNnigdquQI28ZK9v2b8efzECaPjso1ZjyDL7Ed8rmSzIR58ggvpaSVqbGzwsPZlfwM7ARhjU/9KHxm87ANek9yHnwqdMzkDrucX4QEPUrCNB+zvBcFu+z/hvIJ9cCcxdEHYZnS+eIegzXTivP2ctX2u2bCjJvPpr6UcySGvVIcceHTG2gnx5TGjEfRZXoZGJn9GZ2iLnhZ9QTA+PPpY/IRcm663z+AH9G+Lc3cplOgL/Elm7OV+l9Er7MehQ4dcZqERtifsnssA87huko4yehw02oPvY8eONl8+58vNUYNb/IHfuzhvOgLeNriWDhTZC69JPAOs2JBFYg2DfebY+edtfeD3Xiddu2HCTrRWZ7QkMJp0vjm4dMiAZMM4hBHloEjnMbz+t+ax/xGnudGGMd1IcF9eaXQRMhQMCMHR2TQYYOhIwgqxSLWmtvkyenTHKTOInl2QgSVIQZkYonjT4YdZ1zxYwvE040X2gCyAHF37B7GBjwDEr6jioJBwKFB4IhQKyxBnbL584rgY57gRQ4Kt6NYLJDNzKFMiRVw6v5SFgMBWkZo3YoETNrZle3ZF3u5J0Xe8cEIhLEoYofSMhQu0P/YvGCQ0GYy+ZUBsVIGIYGJ96BWVKc9OzchhZQ0JviFegm18wO8K+DCsIczaA4qQICkMP3tzpewORmZhZwxnxVGhNKzML3t1Zef3Gc8VB8yda9EtlHFmU+TPh2OjADUcQt7nb8dr6wADLzRXsMt6obwVZGqJzP6jCczxEI2BD4XV5tpbJ6bNQK67fQr3JHhKDkOrZJRZtP2uG1+LZ8MxlWDL6XDFms4kvKlgHzjBa4wHR1l50xjjqeOmpDKQBXYFtlHVUE5KqBUXNEurnvlRkAhMypY5fZHrWta3TI6h7Zz9JABO4554L06/8cUKWR2UGU6OGRLm93DZ5Zd15CDhYJu8ofxxMpCxNALuRLUVHWYh24kShL/EpwpKXXV7BtyvQ2YspGsUpITjqeDAnVNlYpBlgt3jq9ILrVL1NBbjMDhcVATACfpPOkCxs+uOEijb5MiP1lVFhayRy5Bk16EUFnDCPaNpv6NoI1iVnEfGMA1S7om7gdOzdG3VSnwSTgk8QIDBOidM99QOWTq46dCiG5ALdHfiXEFiGHvoibMDH6QexJFbJEg0AwINPEOOLgBnDil7VwAkB4vEliecwAH0lVOELpU+c72wsOTOadEPyqhH7J0VKtFgQwFP3qfgRHRvsaQkh3QB0LSyKq4PXnE8O4ZTDWaG1DnI6dR6Ba17QIKtrIasxh7EM/Y/5y1PWCEn0o2R1ZXd1801VT2AXjIH14Ned6jRTXKgpG+8IgwNs4/bM4ouA5ox7Wno8tTJWUlToJPebGyaz6ANay0BNxgrCSAPjNjPIs6XknJuw9FbyC/zITfIpGjP+5EUkL3FDhkeXP/4PVnFcx2H3kdPkCScaw4sWJIQvlSg4i9fM+kpijUnzPFGHlkbWyefQzYvE53wnicPNuEj4Qe+dIcpedQrP84/sO8ileJIPnkQ2AaFzIJDzUsOauI57LBgTQdNZ7ykRGTP8QvqoDwDyuQ9yCIyG/iaA4cR+SPxYX6IAiPkKmRLCUJ8mmBg+S5QL4RGiSLZl2i5wl4H7bNCVewiNlsVAc9c2+68kgbOIhmSwW2R4XRsbY/iH1sL/DCHAmTmMTzhDBOsiFaGDnwj5F++CbwWusypGjJZkgeejIFW8hFle4yXjI+Yd930CjM4plt51uJjLhJO8HI+CjmDPddtmcSyeURHgh5PtGegz0K5N2Bi/dKoZLiVw4+8Y3MJaC2QgnZ+1iqSW8BKsAGPYU+xoyQ1IkBx+Ta6H1t1W4VfDCwmf0qUR0DkLXZmP1nj+BHjc3SFBYsZQCgAcTutpIndB6zwA2O5V1iTjnL58QQuwkLywXWxVErhO0+QyyYT9IXuTQXqXoT7W9KzYn/W8C6BnMuLEU7DY8ePStdxzwI+LzZFgoCfYvDIF6oT2E4D4JWPi/99/MgFWx/9o7e4IQjnsNLcIsIJc4q2jGDza+a0xmZBkC4ADeZKh4K2MKOQPlYeOkqPIGukBGiwHt80Itu6yuRiAMIpcQUczoME1xSdwaEsdhFUhzkzl+5gGVGIXM88LOYWo+IsRYVIDI+wEuHDXNZehvgTuSnalIeHYXJn3rN+LtyYEQz8QTO4C8aACObKyonmxLHjhifLTrNGOIA4PTIqsn0uYKkc5bzAJJGZVHYzlD3LZwZUzo7hzpW9OYOWaZ43jezZHQ+eBGsYPpVk5SSaYzFj+xPjREkynFR3OD0Acly7QXIcRtaQtRA62/sBcywzSPF1PHhpHTLfXwmCwlnHmSMj6QYch92zGpktzb5EGW2cPhnkgC0NLJGqZMHxp3tCyByvccUe3eFuHQ/wgQMPf1JxWohMPsLpTqZnaJnK8hwyYslPzFxcFRl146MoQa9YNUsq3v9zJRp0VpYmqjHugJPJ8+CZTFwq7wxQpHRkADzIXiDIjmxFOtXQzANc+8z2QvWAy4NcNyIEsVKYUSJPBbNoUQKBjWdKPXuvVxhz4VZ7baySQdk+lU9kcjPAwlCHYwnG1illKLPrksEBS8eDI0XBiv1N6L5u/K1KCkFKVHqAIfcuJwsHFWeYXlnN45B5ydyJnYc0uXfW4J+XwURRe0Y7A0wFT9KYZlhszMF5c7iL0SQZY8FZFLrSKXQny4wxFRXwCs+i8BVseQmbjNQBc94xbqu0SNh4VS6Fm5bv0tlMh9x9h3DYg2UdV9zje8v9Iu8eQMdA+wFccp7kCHggAG8cjzaMbE9xTgz62k8M2JLpNDJSBw4eKjwjh8VkDYcOmeSlzBvtNWHQuEeZUCoPpiOhjQeJ7gjKiYNWkWAAR8pWK4vrxlY0i2BuxvSp0zP5yvcn5037dR3EPPByCpe3DLokJs6KgaxsRbE9tV6I+RMOfnoly/VfOvlOHacfP5dNvmllU9uEiKeGwQhG3Yn3oNTwQFJNLB/KIKFFBtroSHKPjSFLLJxHEA/fUNn31hznJW/XyGp6whkBudFCMh4VAI8bfdPpQNZzZZYYvDo8GAWH11sz3InBsSwZUuyAjVMAi24i2YTzF05FOuBe7U/4wt6JnhEoRBUHvYQcEX4vRDCCLuHeTLZ5oB+8b3OsrmUCwy1Na7dCF4g+nszaWvSAMRNBKb/sT04buCZBZr/PmQy5M+vrl2BJgSCH+13W1PKkIC3kMPjKW8ZHW9Wo+M5Z8lbyTgJNCE642wBTAciC3U9S1+D1arQHKcAo6QV32CWjl80abbfhY0WwlMmwtO0k8OeWrLoRdC06PvyPrGrFTtQyrup78BDtmSUYRGdQRTd+2AC/Uako7aLBZyWhqq4Yksvo1OSxXMl5ochtJA3WTX+4DLkflq1kfFyChAh2VSgMfpLeCXksPIHERrCphGrwkfwiG4/+yqA5k+jOK15hUHITvq7ILNsUfCPeweFXpYUkr9MT/qCKTaIbOwEMVAkUJClRi49HsBIyEhVU3W68vX6+teeJPp7MwoGnRU6BJInbSKyvr55Q1w5XDA9ZiK4S2R7XTZvGh5sKAlqNmeeEvCUskn5hN2v9p0A+dHU59hH+kZIM4S8pCVEZp0yssr7wwrjwCRLvCsYIQhMXISf4vS5fnsgqtAUn8jtCT1u5eeucz3yqGHgEXwpcUZZlTC2rddyc8BPnn9+sHz0SrRruLKYTns58ZvYXFq3iMndAjJilaT+vQRoh3SLniuOIDE4HER9GzhAtJSsD6SU7FPuaGck1KwGr9SAdrcowZESnQAWCW9tVZvIQtFVrlXKBy0fpRTBgjv+sOVxyoCgl0zinTIxhjbmC4YB1LQwxfZoYf8iiEjdtY8v2UmRtPw1ny8tWXbH2GvAkB0YVHM+2yxQKD/ab/a3S1oI5Uga3mBSGSSMUxFc50rTR4gwOgGfy0ilRRiXLdDAWDpcdfFzHwVBFwoMcxjmDdTSvTDAObyupOMTAdcicGwSZfaDYiIyXba+rBGfWmocy5XOVw+U8Zc+hGaTI4Wc2jTIksHApyMUYwm8oCpXWPciET+aDQd1we6mR38XMVJ6UMfHKj/fT0nLilaasDhB1yMG3+8hiLlgWj0ABeni2MgM4ywBZOxD4ZYHEjsuaBzI4iMpm22t5Y9kFmqYIFGE4NJllhGc9+07g4RkB+GvJ1qddICt57MPPNbUVJgJl+NBlyeEBT8iEWiypSKiM3GYV14wHV6ydZ3n5uOEg5gtHBuOhAIcMF7IVwXAeCJzDWcCw2h4uOO987bWuJsESmT10JwYeNlzNL5WKgLfuuLIh2wDLlpYpnp1PNokgjeprBAsKTuUMOI/CR2umkDfWjUesMrMefMKs2YKpe3Rubb05dsFRy2rNN4esveCMMw5LwYOqNbsfvqRVAEWPPvn6K19V/FacYNYI48t7mdFG7tV9Kwfb6aq2OIMNvNECddjWo5VpHb4jwA0D6U5UyE/IdVZ918WXYQTSoXUt4DFhBDlh/4oQ5r4TPgUpNnaBs4GGy3XDZd0GxI3laTv2O3vH2Tho8B44YEkbAv3MNoYzTHtOtnO4gXF4kBOqWiSHSMZIf4QByp5nM4lO8+KQeVJFMqsqciZQbA1rU0gr65ovHXsPqlRNyPULIvyzvITjCEzEFyR36BdHfxXnIOYWWJnEIjCNTLCydK5TUryYy+NFEcPaYY6X/u9sXVJVqmQiMRHYiHVrkTkm/nBd7ve7U9byrWyAHJFF6ShsRLYoLlnCi9aYpUXT/2pL8qoMvKhsrIIhpyvtTwoo1QGQVXVky/UFemFBFRGvWhYdEqK5hr4TMltGVVXcnCn0Tla6fK+L7ihFlV06QBnw7DSIwEFUrhILjgjRmoCf7O+qtXOjo+wPd/wDhAxq04GCjhmwbmzStghLePJA9rjihVTSrD5L+3n6DWE/3OPHPnvQoVY41ieri4wrUPDEjfOsB9VKVMTZWB0IZ38RQCsKCFx64sgDK9kiKpSaq+U/59EouysAt73wuZxk07nSeV7RrlvkmEGtYbMkCpznMwCVr1XJgODBhzjzYOF3l8/o4Sg4C5pL33kllEQqOAcX3j7u7biewbYkLOduI4E2gnvpd7e/JRCXYfbsf7baqXqVOi6y77wnPyoSpZ7A9EQQl/wCcBaoNjCEdtq+8gwIqiK2PRK8ksCrWLvQKntZHBZaPh2yJbVyeWBTu0Sso1Yxda64jUrSi/sNHmSf1l9vJfMOmkOHPOhREpgABXkRWwlhsYStTQB+3pHwG7KFs00iou9XLCFPNVHJINkkTwAp4Y+eED7dh0rYaSueQ8+rgIAu8o9cPwKXd5rozHTydBqtDP480i1+YiaysgLsdsArR8nfCt4i0OPUNBUoT4C4HdFxAWgq/Yov4/K2aPwm7ISbk8mNguz40DpyNrZWly9AC3qLgQIGd6bloxlQOEAb9MaZ0+fOpe8eJhegaZjkOHMPh1K8jJYtS5mp8q21l1pOFDh4QJOZmbT4bUuIIYb4QVFXdRBUm0ynPwwERK0JGKVNDK7vO/bAH+Y82EaamWhPcKK7ocB1l8AEIdPQ4XgWhySifPCndjWywSbYMzPxCEcZrhBmBRzONhDC9+JRpPffuxEQ/ZHEGJqLSVAwIARSrZ3RnrKsnT9jWUc0mQCUQDJmoj+jX3p6yW6EUy6aRkZ0RoGb4TX2uWUVmi0CRuvHpNcQZkR4Sv8gAUCM3QwgMqMlQxEapnXC3aldiqeDZPbZs0Wy9K4IxXe0xklDoM28FVD8ZrgnkI22hiJBClJcoVJJUduN2hZCKmQwIygxo0yLXF6Z2ZaDQLYnlBU4XLR51ciXtJeTBZqjPzYyw6nYlK3kFeeItOF01AIfKEPWof0IXtQYFk+jDh5UCnYeEm5i/9qDDA+K3DOGIru9f2zOkgC2ZWVrbI8Eo96WkK6i41kZ2cLDXoIvLQsoIQVJKEdkAyXH8vB2KErhEXMgJmpnN1mao+riXmDsW1oQwrmPKyLaf3ZYl2ZR6Kk2MsNrOn6Ym4cAACAASURBVKbaD0aQgNvgXCOg0NkuD+qScihQGZfIDEmBWnCRTW8eWmJ0WkXrwYvJrM09FwFJVlgy+HcnkyrqAeES7ZCPexCyO/JYv+X6352s7FXX5+gFfkaQUk/i0+WkBExeoeMdZcTq9cNgCI3QDXlAj8vpdbkRfUWCmhYhO/BxWn4NItub2cWocuhzl6fcz/qcfYaMaf3WYRHUoeqSH+aAR3tqL0eL63PRNxihfnhIPT6z6Y477m352M/itXIVliJUmtMXwDPpUZyrDkyOQ7NJUUEQo0vW3BZk4sDxbI6KOeBCiLKDbofKeZsMtoQQHC+rTqi/32wEgY2NJRE0Z87SjM4s2UB0m6qJruOcQYR6wbRJcKLKVlQGTKbVwsdYHKTQi629bXmIiTjPtZ1VXTaLTRN+jcdlF9zhRccrQJFecvnNB9KMPAlMOGhtpoJMaIxMm+3YLE8Nc34p2e3QGM4vSVtv65Vmyc4EwZawuo4ksVAewJHMkXSN+wUDNPOn1LRUH4OPdXNApXuCYbtBCmc9pTUlKh6MqxuEwLfYEN8H+rY4YWgN60ZRVZGkCVQWn/FisJ93LQ5tJPIcWBZLjRDwB1+ABHk+nkKPwD7smrYbshm3iSZpnCp6KTGtiMDtmHgpnM8M+F1by2IUv8v/dr0vHxL9EzbA8VEWdrymE61ghPW8auli5LjxQLcrnJ03uCFJKfXkQVe5QElN60CjcK11/PzfTB0AY9+ESscDPsGIrggQ0ncLBeMUsgqsy5290gETk6SeC5oIN673Mhnt1fhM7NDySoXbW+gIIDPQkK8t3whdVFSDr2/nP/VOkb/Ee/IPsul63c/ARcI+KQTvJPIkt/EHOClIdX+1vhzFwYwmXyS1pMNtP2rbThokafgZXTZlE0wRa9YP9BH3GDOaz2kHcao2Ec/4Q5zIiJBdoLpAkBLRqngioQ1lIyZn4/TvCOyqDSJ0W24u4Z6rnnSobXaYCudY8NsLGqTSSqyVLG4gEjlFD9HP2eI1BbZ1WovcoLhgyOwxdfyFLLqAuRxZ9G+/u2PmVSSVp7hXeHFBzacccVOdaRDjF2sTzkrsLBnQnxgTi1e4FS7tMx1CC6WTBjnRpR0GX6klDoENx6NVEz67sj/8DIXqfby5bmANmsooRbCqGAflE099sX2rFxMFGVmS7Gf2GSxjkUpeaHLHNznc272csdk/hsb/G1UKUn1SRoF3KQ93Bty5YwZ7L1qG8tC770Z3CxoF3sqatAeWW4RZrErGv9Jvjie/3e1sBMb2+2KpRo0afKeB41JKPdZ2fAOv4yWNZKmUaI/eNlI75W7g/X3dmcongm4po8Cim412bb/DslazfjC2nOUivMoEeJKDAfC0NWE7vr3K1C4ML7g+kGNhH/EUrNK6aVty58JzVu3OaU+0AFbOZKxRnAanvus3R7zm4DxAOBR+U8un+cQ55tf5lVTsdk+2jLX0dudgRg3rnniRYQr4RpWj71ntDeYg6vyKsBmBUQYHrKdKUBjojtstOgWvJOwOv8uby2eL12L80trUN+Xe873gqRASf85F1Y7iVYBKB3GfHOYI9lNhpp6sLE3N9htqqfDMnQMdbTwyOkGqEIw1++n2PvR9/HQ8ODKcdU0/xr1dA6dPKx3PTHroybjLmcU/cbJKe/hWU3+0N2ptjWEb4f6S5WwV4shgV+eWhLB3I/0R+/C5E/dJx/JUuxGwWtjL7kOuVUGVQ+YtEVArW7zS7iUfz5pDX4IiG6f9KfnhDjubVwZXvd11Qiec3+DFUTTGm8VohGJhZ6EXvULsD+BwPeFjqBCIu8L2ORu7vKZfno6b84PjrDgoNnbNXuvRFur3+DhnlxaW1qY47dTC7MRu501mtPfncKjj4zx/Uu/bW/vsdvhVeiD4oshU6l2/SzjWpt2fSecpfZGRFI9kANsQc0i+XIf5FK4z075aXF+e5plr5d7SXxCp7cM1U7RbKNsKznpfOSfbWSBlnzLXETJ3nB13rrt8/1wZFPpfrT1zDLTBZt5QbFHIX+JSkih+YNKYHH1UdELgMfCagbzI2g1Aa55gqpinJDnqObWVJL6vkZxUdOLIeD51Bz+j0HI+VW+5rGkO5tKGWxscRE0tVHCmtSKhIZ5NGWtRHaQTN4uuCbeTxmnjy3pCSn4Z0JZkZOi4GNtNtJBgc73Vyl/Sy2u9+Rk/PTGUYJbVWzF0WJA+As+YVTopp0mRdCJ6QhmZ0d9xT+qCmMttu/vG2XJbkgG5dsW/gosghTYLR04LvBi2MjrunrpSlIGokV+g9m2hX50HWoWdzltgqiCnIDXmEFLE5CHkAQewqAOkYCtQXhRu3BEI09Kaou0FZ2g55OpcKAXoP309XzlIFsoFY4ADs8CjENVy5Mybjyz0BJMLfzI3Hm+QU/Mm6EXYY1U+82xS4CorLMEU5VwC+yCT7OWUkjWsZCEQEvpI5yKSEWHu2qFu6VIEWrO2yqxIeuJEzOVZbMBN4+oK2JkU2IDH5/FMSK7kGG4lQHwUl7/vn7Uw5Iej9zl+w0mscV6I5/MgIqzgM0OvpFFkb3yxorwVPxWItv/S6nXmHcVr3lgbWk0PfCEDJaM4YkAq+QhQahiK8s0Fgoa+um+4No759CqHI+RH2SXnGeeAVnhTt2g4aLF+aSlXeLuDjeSecFUsCeBQJLz6Kw4cJ635jCpKNgA6ssdh2fEgGREDBaSBnm0oEy/mbF6/aYMUD0j1lBfWgydtcOqteh8OjssyUBHP8FAE7zsuwuyh1wgs4WCGSWipgRww5egeWz24nd4tDuMewRTOUauJBE+Rn4B5Js7vCPWQcEy7Q4QtDmLq6Yq+rWkMWaGiin5JZ06yw4vWtpDRsCrUdTxIaLHq+3F9UNAQFc1grUTX9p+hO2YyqN15ZMt7NUorfSM4RtHd3lOhulVQzrWqGkRwN6IOJVId3o35RxwxLRw6SAKW+Gh1QQ1Wq5X9Xa80exbf3xndREKQ77q+rMaEiOUZghGYQxf4WUbATD1WFittIDzdskCg6X3lEiyE4ygIgy9KYibxO2JzQr5VVW05Jmeus6e+a2xJau9khJpb8z2vajt5Wl4duSMrYNLcmRxzOhUbGUmvvE+5sPwjMNFarFGq1HZNkMtBC/0rh9jp45Ll/3M7GaxS82P8Lv9iFgjCPxmjNnPPYIUKfA7ZgU07bNIGh+VMmwHkZ+xcpluWr3fofo7v0/WCWuhFr/BlKrx1fy2YCB7ImYsGsfc9P0Y1p9LFia9d5i4fJQIC78X5d2H0q5KZ9A94u37qoBMNx6Ctuvu99f2tL5JP9wqxH1UXAb/zARXFlqAFvrwxN5J4rpNh9t4ofdt5OPNFMqi1P66f3S/1QLns1Zz0ehtFskb4LOSq+OMt7YspD9spxMrf4UdQGR5ujYCshNrJbT5kydtnwWV4avJ920vTEOSr3ct6ZEvpFbGoItuW8GSXMiM6xtWokSenIBfPGdxwlSs2QoWGdyUY9p6OfquU7ioin5Ijx8FafYpSb7V0WNeYmWWAxTpmRpyw4Ku8jTWJVGfiMX9qVEn40sGJqIOxFHxoWUjeBp0+V6s4nQE806UMV8Vc7oAFgwuWvNvhTgXrQYhfTpOA2H6QhVlso50Wl/VvsQbFrHG2XorH5sge39xzOtSun8TVzjDOe2ImjMEa7VbAIsUfQ0Vaz8DGZrT7BR8am6l/qZSFcGsHeJM9w/hlZlQmpX7aTqBwm0IO/hMc6BX7H73WWcJukzsFoiIf4lW6GT1BOfYqe7XbN1r77XiyVwasRQcCp01M/+W4qxiA6obspKhhaDsnWidVkhFrio5SgE6PfIxltv35M+acR1N2VFVJvqpsdhKrxVALeUFLKNLMKnq6NXhGMqw/HEBoa+PzCSndzE8XL+vGPzwu2eELvkvcxrReyTFlbPRy3tAGRy8vW7YOlx7I4O8VLahOs3Bq0DfINmcA9HCP2EGlNEuwqQoiPdVpQGNp5h5BXPtH6YmuZb5FUTgDji86OYmWMuMkuYuWA+dtf6nNanGUUqVPPBwIsUkkFog9ch6932H01D/0dfvTWVpByM9aty10l50b4DxfB/nbjUOCOY6xkl1qtqm9wzJ5ZDdHzNiIrzF+3c6a2nZsTR8l+EkPW3uNgD0NbqyfT/jiftcF8Kkb1e62WllpP9Qh7zhnNSIHMVdtD1LXOP1cpvNhJeJT8X2sGoJSmQmHKUUx8cd9eW8pfQTPRdDCnGn7N4jYY53W+Xd5EdqoKsoGuKOaMt/yii9cs5k1ftjDVIzBx6vEgNTX3bIH6qh9J5GReqUYYCek/s/BhSohWlfTcw+6DTDXq0DHFbevy4A4T8KfHqQEDthvDHHg2n1pf5LRAF96pw3QmTYPFTOCx/LTYSAa5pyhr+q5weOCBSn4HI7EylBk6jl4FixsqOoz5gr+Sjzkgyy8wuO8pfNRbNjmyIPQ/lkrc0nHttqT5zq9MljatIMtHezWp/L7/IC32tuq/dQVJOFe52WYwCpEOmuYwWfLf7mf8rMgk6nHYsLRG/QpQlLTVb+PBsIz5hSkXXa+qGkBYzglk1MknUGyGowijyGXqoQnuQJcfzS67zFx4ozXCozMWG5PKKplEnhq3S7iFxlKP8Xz3J68TBhqL7aQJmjgj9x2m6Szg+PYzNbR52bt6+pheWiBzndnq5nDLVsXV9q2kVav8FO8kmKHoJOJnJDBFAGtyMBXacRTGdh4HX36gcFkAH82uWcja2YpJHGwQtlgbDN7mrIq1RO3MkupSHDWw29uKRyCWjOm2GghIkf2EojwoUFUMRJtIBgbH9DqKy+ha58BiubU41bzkCC8E+dDpKH8oG0+0s9bRvKpYC0AJbsnYfBLd5e2nvE4k1Eks+Bphpa6O/ymYK9iAjFhUeQuSO1VOZp60zetJ5QpS+IoV5YBaI224I6+aGCR8olDngIv2rr84HzsspA/NWvL7Iq7MDQjV8UvomEKL2RxI1BTNrM/Cb42IB5zxtRTRkJgS2CmfQWEBMAjOEnCV2/CDzaI45TpqJSsZJGV4FB0MVkDcCRdkUFdKI2Aqw4Snd+i1SpwngfOgDL3qzwdTk9mXfUFjG3dztnD4U/3ochNzOt/O23l8ELnVRRMOEDpDETAITgTj/BsbZU1J45CWN+4h7dF2+C7luPHMy2H0X2qaEdMnVIspMOmVjNHq9NsRB7EqL592sDss425sAiaPsK1VsU4rjQXj3huMVV67p35A2jnPVopR/klmMJnKvpNWE5gY4ZusOa4zQ9jnnpfQZMcJ/3MMGQm9WjuIYysj3Gjopfd4E8qTMrHnvPv0PlqaZUxafk+nQ03UIFL+21uE7ezUjLawghifVOREY8dtj+SxwqvFRRvG+o2h+kreSxVwhw+IsAVQtvp6hHCRNK12BHaivkDG+D35bpJJvFdlOp11qUdVdZs9UPoIOFlO3yt0+N0KfQJQ5G0zh2kE5Uok/2s1s9zciUILUtSIfIvY84rHY48z6EgJQL2UHAuyZX+Fe+HHtUDSMQ3rmVyz6O2pSI33+2Q6PLB2+kc8udaNpKCOVb4a+UwaSP94lnRIEUXz5EBVpBSLcsw7HlOW3Ra0NxPPZerQOvqZYTsI5915LkkSOyOVdMFpfsViNFnnagtdZpatqO1bwSKCk7hAB1XwTSSAJXqCkaWPq2tZuiC0O1OD9eZBAoeiI7KdxFZw7V4V//5vxr9dYAiyohnmI8l2mygw+o2MecuPGifzBnPFlSHjqptZvKiYCmsMU4PVIQcyRbvwIZl0dEgRfJWybH7rL6e68JQJNtZUGNkfbjfUNDl/pyWOcdJxlh5EU6CFSPyacFzGSuBfvBK8Qk669Rr6vdid32OPkHKxoY/blj6kW16RBRPFosmWsjPhz2CFIk+QQqPOMuWkFHZC+kN56lkKMRNeXg9nd8oD2K8ETzGBAM7dbouiqOE/2e5VvorMrslNrU5ZskeMpcdRnd6tOhsRa6qsjBNKONuxlDoqZjMVYRDsBXc4RWQ1i3MlgaV/dJQ87kynO6IA1cxFzhRIXQjvFpxQQYrUkgR+GhflRHxqMlpICbZBntSa4efHU5v432nR8v01aMWNZXvJB1Tnz3Gk2ETLf3JWoIujVZAW+4da4S2wyoeGCuVrTFoSUa7WQpmYjf4bdsc8KALlztXrbDFBn1nYWzLPgMH9Y9EgcPRBhpli3o/aBXoqqtzAk2oS6WcOqDdg6s3D0Dy8qfAjW4sW7FcAQSvp7xFv7sUg71nYceIxtPq6gsPnEhhOP11pjXZomwsoKoMr+6usjuOmyK4Pkkq7hr0juLuykjuexSnlUNQKdUqeRtkCkPpZsAx5ioILVdw0GqdBKwCqspoZo+7V4oCKSN7GdUjI7yTiwcRocJ4q1PIHICanhNt6kbRVq8UPkhnTU+o8ne3ObOxoAxLOCaqpIjy2VLr/OhPt/HGVz9vVG1U/k0kBYSLFl/5DQaFV6vt5K+pE6PxYNuIDksUWjr5WjhSbkYd/W5ZedxsvmQLxw7JkJZlxcsjUic7Vl2V6swvYRyz9XAOQuYlP1UyKLbmCcH27nRot3jaxZhLats35HviQSaC3ed2G7H9Rt7C4ctzpjI7Ycsy8+lBSricaa8rvFQ+S/AcXoAjJ2W5G4DXkPDY84TTz585jbv6LayPOCAGjdBwhDfg1/Ktxb5aBnJdLPi5SBKd1ZrpMI/YQ/clMgBPdBa0duxafueIuCb08MjagcOkl4aEvRAk4LosEokj6CNZrRnTd97a7dB5NlmdLKjBc33fylHqggJmmIEW1eGMRjdIN0gB8LSnxdqFb+L6NnXFKBP6PhP0XLSV8RrGDIphkfKdHPA27FP7brEvfmSlM1VG6rlRsU08OF9prqLoO9ySvCl+EYM7D4bwZQ3Cd+J79XExT0cIWxI48beiUukyG3wb5M33NK9wEGuXse0d2knLmOLahKH4rS4UxSz7cGxix2euUVDxY+WOjI2TnHZBd74zLXWHaMa6rk8zGE+cbZE8zMt+rR8q4yAHz+jgvJ7DXDNVZaSCs+RwValD9YFLhEKRVAbFcd1mfhOOrjLifTIrESJ4W0iWr3Nm6K4WB3vC0jwIqDEZSrIQuV2hjb9Hx2/bpbUszBSDUDOxMBzck3vM7H/NVqOM38I3xjGpYC89/yhJPQ0MooyWresghQE8uIAnpLTXdgWfn2GK27MAQd5Ra1jhMjMbFXY6iliCAyOR4LJN+sHaNpMbGiSEwQ/U6vlmHXqNUiPQa/MujLOszqmdW1TSGzfNmPeofRaLMCKormxbp8G6ADR0vMGsMG6D7Fk628b5obmKL0TQUII9od02bFTPj348Bq+gMB8VK+eTR9RG5cth815Q11ehKpQ5DTyMe4TjGNiZ077bd4QP62E1DumULj7ENsXtBroo+UrHa74R+WtXYLy+PjLolU5NypRLazqafMlke2xwN1I4BdOJjapWwADOMiMpJ39EX04icJ4L2n0cFFG5PGAvdiLPQAVsTnp2qMdNuK6NQCRXKO18wZU1K3lGLCvC3raTplbntasgJWNPn7eFiL/sm1VG8NDVRmmMGOtYHacMRpk8XOQYXc84zno4xna7ujjsZq3H3Tu3ZRWiWm/UgzrO7PiUaGdW2XB0bOit7CfcCXB9B1HI1xg9nLrLvyVbBCttGJkw6gYLjgesYqYEva0GfNdBSqnABWzdeWoKZkCTQYGD6g7L9isOmAe94HMfPRoQOkUVLmNlyjRt4JJvBW8YL9OLX8O1Y5Bi89oDnMNd2tkwAQOf8j0lXM7H7dUNjeuWlnFBWvpC7EHnBuTQuVMn+W2jlrIQ661xLqibDKrgSFlBg9rDb7fbpDE2Vcle8CW9y8a8PV3Y1INIan3srmV9OdztQXJvy/YOg3Tg2/Hj5T29qTFMMvatcZLfHVgc3HRsd/U/HYI2GBrDr3K07Z+CFBz6tholtIVcttqHOfxLjf0anbPGhPO4J/VG+drXzPfyEdG13RmnHxM/c6YzdCRDsHmAmywgaCogymPDK0SOpMaqG9vvRYmEVvJszYuF1yIBmkIjXZd+WC1DtpM6SAmc1VgrnrWCFJ5hPr2mGJhiYIqBKQamGJhiYIqBKQamGJhiYIqBiwEG/BHE0yDlYkCKKQhTDEwxMMXAFANTDEwxMMXAFANTDEwxAAamQcqUD6YYmGJgioEpBqYYmGJgioEpBqYYmGLgYoWBaZBysSLHFJgpBqYYmGJgioEpBqYYmGJgioEpBqYYmAYpUx6YYmCKgSkGphiYYmCKgSkGphiYYmCKgYsVBqZBysWKHFNgphiYYmCKgSkGphiYYmCKgSkGphiYYmAapEx5YIqBKQamGJhiYIqBKQamGJhi4BKBgX//l39ozrz0ZZqrfMPVLhHw7geQR49c0Hzq3/+l+e5r/0CzsLB4oZY49yvn6IunL3/FK418r86FmvQk3Xyhg5R//ce/bX7nN182Ag7P4D585plioB/5ies03/6d1zpJ4E6nmWJgioGLKwa+/MXPN3/09jc3/2YG5Bz7/XJX+DqT/e9ubn7bu5ny+7qLK9hTuPYRAy997pObL37uMyMr3PTWd2y+74d+fOKqf/A7v9n87cc+2swvzDePfcZLJo6fDjj1MLB84njz9t9+XfPPf//XzZc+/9nmile6cnPN7/1/za/e5i7N4TPOPPU2vIcd8X0fz37iQ5qjR440S0tLzcOe9Lxmft6+Y+UUvf7+b/6ied5THmHf1TbXPPdVv9dc5rKXP0V3uvu2Hv/guzf/85//3lz3l27a3P7uD9gzDr74+c80j7jPrzfXuvYPNg95/LP2PM+QG4H9ic95Ra9bLnSQ8td//mfNi575uF0Xu871b9zc6o73ag4ePNQLqOmgKQamGLjkYeBJD/uN5j8/+a/bAD9gcv+U579GDsb0Or0w8NgH3qX53//+1Mim73a/RzY/+XO/uCsiPvmJf2qe9qj76gvXyBK+6vf+5PRC3HS35nRf0Dz+wXdr/u/LX9yGDRzTxz/75c3lLn/F0x5Tn/inv2ue8djWSb3/I5/a/L8f+clTFi//8g9/0zzz8Q+2QGyhef5r3tKceanLnLJ73W1jT3nEvZv/+Ld/bn7xl2/V/Nqd7rVnHLz8eU9p/vLD72+e+oLXNFf5xm/e8zyTbqRa83uvf0Vzy1+/R/P8pz6qufO9H9q8621vau75wMfoi6d3uk5akEL15Nfv8SCtw7cZf+Gzn1ZG9bOf/i+9d7Vv/Y7mCc96+a7ATNrk9PMpBqYYuPhigCAFp/L7f/gnmq+/6jc2/2GO5p+8861674d/8jrNvR/yhIsv8FPI9gUDH/vzDzZHL7hAc7/pNS9s1lZXm0lBysrKcvOY+9+5+fIXP6f7pkHKvpDmYj/pq85+RvPh9/+x6H/Dm92m+ZZv/87mM//zn8073vKGZmX5hBxxHPLT/Xrl2U9vPvL+dxc0/MCP/FRzv0c+5ZRGy/8aH5xhlTSq9afrhQz8z39+svkO61TazcnfDT8EDgS4P/zjP9vc/HZ323dU/uPf/pUFKq9svvC5Tzfffo3vbm57l/s23/jN37bruictSJmdnWte+7b3jyxmXxQphfK2N71a7xPtEfXV18bGevPVr/yf+uAua1mR2dnZXQE+YeXfC847t7n8Fa5kbQAL+4LU8879isqlZ1zq0vsy/3TSKQZORQyggL7n+394pKc1DSjG5HlWmp9epy8GfuO2N2yOHzs6MUh5/Sue3/zpH729OXT4DI2fBimnH8+Q2LjHr91Awcht7nKf5vo3vkVBwoff98fNq174DOmZl//2u63F6cDph6DYMfi57x1vKjx9mzl9/2lnFGiDesFr3zaxwgCOv/SFz8rvGodDkgW02136MpcbwS8VLuSSyjg02O06cfyYxnLWYbfr2NEjVjk7v7nC1329wX9yWtUuOP+8ZnFxsaGSX1/n/t+Xzc+cay5zuX5tYuDhmO25b0AEftj3uM4B9sl8+10BXF1dadjnTrRNfKyvrTUEKlcw+kwKdOAXqpqXusxld5U5zrZ8xdamc6r2odfX102vv6356Afea/N8wWh95eZGlnz4kZ/8ua9dkJIrn/30xzQf/6sPN0sHDjYvfeM7CxO+7qXPtgzAe5q1tVUN5fMbWBDzy7f89W0I46DU61/5AlVmQBYG7Ka/dicR+8XPeqIJ0mWt9PdWzcN8d7+VtxM87pkvtQzMNQoS3vDKs5v3/fHvNz9xnes3d73vw8v7IPadVnp6nxnH8776Fb2PYP2K9U//9M//0mmrBKcbn2LgwmDgbW96TfMHv/ubUvDTIOXCYPKSf2+fIIUzjmc97oE6b/DLt7pD86ZXv2gapFzyST94B5xve+g9f033Pf1FvzVyQJok4v3v/Kv67PHPelnzrd/xXYPnP1VuoIJCIgin+5kvfWPz6PvfSQHLbe963+Z6N7r5yDZpxX3KI+6j9+71kMc3r3vpcxQYZHvYc5788Oaf/+6vm1+66a3luP7VR97fbJhjydlizjx81/d8f/PqF56l6hbX4TMv1dzurvdrfvxnfmEbOv/2rz7S/K619tBRo7Emzz/5czewbP1dLXBYKuM/+7//3bzmRc8sbcK0cP3s9W606xmLeh+vtjbQdK7vdqvrNzjdd73fI5o/fdfbmv/6j08IL5yLZL8knp/zpIc3//2pf9P6V7XWprvd/1Ej/iHtR295w6ua7/iuaymZ8ooXPE2B34b5hxzUv871b9L8iumlOpBKvF3/JjdvPv/Z/23+8eN/qerAk5/nyXn81Q+85w/V2pSti2daAvzHf+Z6zc0MHxkgfvC972h+82XPk29LG1t9GJ7k/APufLNmdWWl+Y0HP7b5YTvrneve+Oa3szNad9ZaBEfQFdqxLkHkN37ztxssrxqhEXgnGUS7GDResGDuWt/3Q9YN9cBtARSB1Rtf4e+9hAAAIABJREFU9UL58AStM1ZIuNq3fHtz+7vdf9t5c84R4kevWiDGdenLXq551FPOVmcFQSP8+gs3+lXx4UMe/8zm/e/+wwb4dytO7GslJbHyKUPEk61/jqtWOI+49+1V0iei+r9zvihkcd3qDvc0QXEFxcW5lxc/+wnNllVmute3Xf2aYnCi/bNf93Z9TJBy11u44Dzh2a8YYcLM0tETDRMmE3Hw7J///m9ELOZcX18z5vxXERpYgGl6TTEwxUB/DCA7T3gIh/s+2fzgj/10c9+HP7n/zdORpxwGJgUpGOJH3++OzVfO+VJzzwc9tpmdmW1e8pwnToOUU44TJm+Ic0ycZ+J63qvfMuI44YTf/daehHzYE5+rpxudrtczHvOA5hP//HfNtX/gR5sHPfas5hXPf1rz0Q++R+31T3ruqGOKn0RLLtecOezpb2WQ8uwnPrT5p7/7mIIIMvH1heP8Az/6082H3/dH21D96Ke/qLn6d31Pef8Pf+/1zVvf6Gt/87ddQ073f9nay1HteYyNT6f0ofe8jXxA4LnqN35Lc86XPq9gaLc2vnofr33r+0uQgs+H7zcOfvBx8NDh5t/++e9H4L/UpS/bPOPFry8PYXjnW9+ocxNXuvI3WGCyPvY81DW/9weM755TqkiJtxqn32ROfAYpLzrrcc1f/8WfjWXRr7/KNyrQBkcEGPezqhi4v/fDnqgWrLz+7E/e1bzmxc9UYPgCS8YTwOS6N7nF7Zub3fauGvrqF53VfOhPnUZX/aZvUQWI+V76xneVuUgEPdcCUnD1dV9/Fe2VNkqS8wSTnB/NqtEF5321eZydC/uqBa0EVlf7tqs3557zZQvGPq1g5QHWbpkPQfnoB99r/OftlyT46XT68hc+Jz4EH/VFYJ3+9yTZvUiCFIzPPa10y1Ujn2jv+37wx1RBgUBUSj76gfdog8995e9qPPc+/F63bc7/6rkqXRG9XeO7r61IH0H4+7/+c427MEHK+9/9BxbBPtcIdtXmEU9+XilNEok/3ZQAxHzSc165DdGTkDv9fIqB0xkD7/7D323e/JoXS5lhmOhBnV6nLwYmBSkYYYxx9tT/lR3mnAYppye/TIOUyXQ/50tfaB5yj1tr4L0e/PjmR37q5/QUtGc94SF678nmbH5T1e9fO/fXNr/r7pak3bDzw1QvcE5LkGLtcw941NOaq1/ze6wq8Ff2YKTH65wx113v+wi15/zvf/9H8zw7/Ewlhq6Uu1tFggtnl4cdUMEgaOJJbFw4u8+wCunnLINPVYYnUn3FnN0H3c3b+HD6v9ueLkVLEHPvVh2bFKTgnN/34U9SYMtxA15cONns65ssYPnLD79PVaHc00/9vPunGaTwO1UAzkywB6oA77Dg6y8+9Kcad5f7PKz56eveUL8n3rBzD37MWc01rnVtHWG40pWv2nzIgrpc5wa/cmurbt1M/u7f/MWHmje++oWqev2UVZio/nBRucEHxvF/4KOfrve4nvLI++iM5/VufHPBVK9bBynwA3xx45vfXlUrLh5CkkEkrWYkghjDGZQb3ey2CraoQNFCyf5+6Md+prmP4Y+L4sDHPvIBnf/igDuwc9Fx9FtWibncFa7YnPXiNzaL9lS5V1Fls/1yRuYxz3ixxn3hc//bnGGB1YV5uMFFEqTg5N/tltdTVQJmhqnz4vFn53zpixZFX6053xiZzKuIRa+pIeRvP/aR5gVPe7Tee4I9zYPDc3nB0I+zbMvnPvM/FypIedyD7tp8+r/+Q4z9g0ag+qIl7QPveYciVZhhek0xMMXAZAz86z/9bfNsM5aUyVGEt7i9y/X0On0xsFuQ8g/WIkF2j0zh01/4m9Ln0yDl9OWVaZAymfa//zuva97+5tfqzMULX/f7chQ5B/yAu9xMSd3r3+SWzW3u7B0sXLVz/5inv1gtTfWVzvZPX/eXzAlvW+Gfa4/7/Qd77O93WLWEZFNev/tbL1cL07d+x3daNeDlevtNlpR6jyWnrnvDX1VCub4IDF76nCcpGCEooVJxz9vcUK1BP/Gz17dWowdsOz8yDguTgpS7P+DRNt/1dCv4uNftbqQkeO3M89kTH3pPtYTVnTJ1kPLYs16yLbHGIXOepnb1a35v8+invVBrJN5yXzXMT3jIPdRe9lN2ZKA+XsCYD773nc1rX/KskbNVn/zXf2yeak81JMijYsL5D3zkh9/rdpr2qS94bfMNV/vWkXXrfT3rCQ9WR9A3W8XjPg970rZzMX9nj3R//tMepTmYq76opNz/Tr+qKg3+NwHNPW/zS4LvbOOvS1m7W30BE7AlLxEMvuUNr5QOv6+tTUXsZFwXSZBCdP2YB3jP3JOe+0orRV5dFRIYFubPi5IlxoqL1i0MVZYOidie96q3bNtzCspeKykICudXaO+iTEg0XF+8T1n0x376umpBmF5TDEwxsDsG+F6MJz7snjowea3v/yFllyYdypvi9NTHwE5BCj3Pj7rvHdRuQAsAGWEuMnhkFsn0vuzNf2TGcvaU/v6HU58D+u9wGqRMxhVndji7w+OY0bN50dKkA87WysTZhjw/UTv3r3nr+7YdUB/XPsScmajtPqHxT+zcxxus+6VubeI8Ge1EyCztT/VFNYan+132clco54c5h/Halzxbw3j/tnbG5Yd+fDRR3MXEpCCl2wKYzvQd7vmg5ud+8ZfLdC8867GqaNTViQxS6Kp51svetI0IGVjQOvayN3lbVeKtrl7wPr7lPW59A3XijGtLJHAiCOCqg8aE9zZ3tgdG3OQWOiPzjre8XscQOGOd1zh6ERDxeGY9cMSOLtz4ZrdrbnTz2xZa/8Hv/pYeZEUQxOfdi8oOF+ebCHQJmLiyglKPp42MIxh3utdDdY7o6AXn60lhn4kn+v6o+cy3s7NRF6aKwnoXSZDCoZv3vvMtCgBe8eZ3K+L/rZc/TwfYibp+/ga/0szbEx3e9+7fF2K4Mkh5zzt+T4cnKUe+5A3v3IbUPGOyU5DSPViX6+aZlDpIyb7FbYvYGzxW9RctMzG9phiYYmBnDPBkE/qeeWoMZffHWtkXhT69phjYKUhJZ2cShugFf/iTnjtp2PTzUwAD9Lw/0r5gzh2mN6l1Ji+coXv/+k30J9lsstqn28WDhJ726PtN3DYtQ3lmYCfnPifZOUh5jg5+0+bFAfS8eAIf/lcdpGSlgSdb7fREL57MevcHeHsYF0+F5IFG2Awuqu5U33e6hgYpnH2m7egO93ywBSnON1x5VuRkBSndSs3EIKU6BoGdzC895wuR+YJ08PpEO2bw4Lvf0p7UdU4JBibRC9l5/SteYMHixzX0ezmv9Bh/Gh4H29/25tfIn97t0b/3e8RT9JAqeIz7kLGdnuTGA06u+T3e1kfC6S12DAN+IYCBB/jqESpCe732PUihUvJ8a9ciiq6/GfOBd72FHpF2t/vbF3tdxw/B5TeJ8nsGKbSNnPXYB+pzeuJ+rHqSxJELzpMiO2JKqw5SeFLXnW9xXSEJoaofcZaCWB+cf+wD76o+yHGPSN4rYqf3TTFwumGA9kvKzWTyyOKRIOCRktNrigEwsFOQkomoSViaBimTMHTqfI4uufutrqd20d948OOaH/2pny+by9ZA3njx69+hnvfT7cr+fw5cj3uE68f/8sN2juKrIw8suSiCFBLKyHP3TMUk+nAm4nV2LpgzDSS1XmJ03an6flEEKcA77slxZz3uQXL+69a3nYI75sh2r5/5hRvalxc+bAQNH/rTd9lB92d6u9eb/7hUKzi/Q8sevH/rO/5G89uve6kl9g/IJ66/EH23dVkoD9sLjniAVB6f4HzOc+0rAeonrXVpRDUGnc1FsEQLWd+LNjrgI2hhD5zH2et10oIUqiREg1wgl161T1jZ78//zL8pmENIZ734DSWr+uC730olydtZ3+IvWP8iF4d2XvZcfwJQBin0FD7xoffQE4J4/jdR7zWu6QfniTjzkW51kML9WTK7sj0+73521oTyHfNzOIirDlLSSEKwezzoMc0P2lMsuChn8Ug+Smj59IS9Inp63xQDpzoG6ieL8AhMytN5LZhs1Yc4T3VcTPfnj8Mkq5cXBp52gpvYI+Z5YArXN1i1jRaQ8+y7r7oXh3Z/5zdfqrYRnhDDozrHfffAFNenJgZoW+HbxWlnupN9OzVfJUDrOO1B2H2eHPXE57zi1Nz8LrvirMD97vArelpWnfitb8kWIWTn7Ne+XYHcRRGk/Pen/l2tviSIf+VWd9TjZXnKE4nj//mvTzZUTe9hZ0a4qDRwRiLPAdfnj9P/G4eGiypI4UFNd/yNB6tKQEKcM0D55KxscQK+3YKFDEQYR3XoF+Lg/MetzYwHRfFI39oXzf2e/YzHNh//yw/J58Wf7p4T2mldgtPv/YEf0bkSKo73u9NNdX8+WIH1HnnfX1dlhu6gO1urVlY5OEzPly+zVp57ecHTH93wOGmeQsZDr9KGE3zwFLkzzuRRyv4kXc7qXMXOluf36mTyn8c2g8e9XictSNkNAA67UzHhudR5vfm1L2ne/Qe/o97FH7QeRIjBo4bz+co1k/LtojwiOFvBcg566n70J39ez+3uBik7tRBQ5gLBNWMQCFGmpITKRQvaIYvmUYQc9udJGJTLptcUA1MMjMdA/VjQcSNo/Xra2a+bou80wsC//MPHrT/6QbvuuPuI+Hrw9OD8acQsY7ZKiw6PISaI7V74C4975ssGZXdPFWzWj3oFB9929e3fEwPuaHPiyqdpXRRBCuu91c48/KGdfeAi8Yuzz2PFOd/L2QYOZXPlV0WQ1b/ila5i3Syf0phxh7pr2l0UQQpnoFfsO0l4hG/3+s5rfZ89Bfb52x5B3G33yvvS0R/HfzwCGB2IX1pfdbWQ98cd4h8XHNFqzZkQkj8UCqiGQIOzXvKG8lhh2uue/1R7spsFL5xNoduBIIykEletk/lOosc88M7NEXu6GRd42dzYLN8lWFdJOB/+x7//O0a/b9G6WUAY90CqIbK4b0EKSOdLgDhsdd0b3HRb6Y5swOssI5KVFspZv/jLtyzM3Y2kiQo5RM+Xz4BMHo/3M79w4+bz9mQvqiNdJ4jA4+2//drmXfbca4gBoX7eHntHEMRZmG70SnmZw0lEkgQxeRFgwXw8gm16TTEwxcB4DEyDlClndDEwDVKmPHFhMYB9f619OR2PXyVhyMXjacnMcob0dLzycDrfb8EB552ubDXKitNFFaQAz8c++oEGp5XsfF6cT+Dgep43qZ/OmmOovpPQvvJVv2nHfV0UQQrtXPDYK+3BHTz5Fd6jDe1nr3djPbqXL4bMa1LbFfe+9x1vad719jeVRDtPZKMCwffv8Xv3wn990N1uqe8nwY/m+wW717h1aQP8iCXtU1b4vpM72Bc05rmknIM9/dYrnmfVtU+U7x9kfzwgiv3VQROPX37jq87WlzlmwoAkAWddbnabu5SzLTwE4Y3W7peFBnx6KmkX9qm4vYOU3HRfpbDTIZvu/QQctG4hcDXh+67zqrOfoUpK98kTeT/ROk/AuJK1e1F27HPx/O6V5ePNFezw1249e7vNtV/46gM/Y/Zj/aFzAkdfPui7r1N13FDc9sHr0Dn70mvcvDvBM2Ts15q2Q/HVhwb7taedYB0Lk/t2/a+Z/kNP55GXJH4ZRicYZvsXJ+88x1yv6Yfogu5YkprnmB0n61s7dfW4mvfHyQFjc3yfsb02FYO+lrpgCJz12En0gANa1dFVIqNKgr9Gn4vqK/EgFRxtApT6ASo1vjiDwZP9aOvb7YB1F94943wXfZhP96rPnBw7dkSVBnzUIXZuHF3YJwk9jh/0hT/H9dX5PDn3/yw4BN8EKWO/zT1wwDfY88CCM+3xwuB/x8sITMvel+yLN+l+ujzzWqDSvfC3v/LlL+n7d2jNpe2s61f03UfOrSBlfW3020X3yvT1fX0J0FfR02PJY86yJ5n7OBjEc6a56i/XORnwj5ujL6x7Wb8vvvrOPRTWPusPnbPLnH1hPx3HDcXt15Jek4zbEEN4caL1UBoMgb0PvYbMN0TRRwK69/R2jrPXNRRfJxsHvYDcx0GXpP0PgxUPZsucqMnIc94a555OvnfciEkOWfeecUHHTnbnkhSkDKOXY6WLu3q/fajB/flivAcp4c3upETy/Y7jn7BcfGV+PHNvD1KGZnj6YHrYmEkyMenznVfrIeBVmNoX6i7f1Ty1kwzu5iteYoKUe9/+Jvp2U56lfXnLpvzfl79QSmfXsMejPfKpZ/eOTPsieyeFuNf7d7vvZAvzUCXXZ/2hc+7GePuBw0vynENxe3Gm10nLeF3EBB1KgyHg9aHXkPkmjd2+lz4GKZ2dSbP750PxdVHjoN8u9j7qkrT/obC67p6Mm6EB8G4z1jAO5ZU+44fopaH46rP+ZGy2I4auX9va+t7dApUuzN3AwkPVDFJC5rtOa2EAC3DGbPBk42UIDncfe8kLUibtfTjP9BDwPQYptX3oVnJoZeMaW+EZx0NUUjbWtx9Mm4SQvsqm7zy7MTPI55nWf2NPO6gvDv1c94Y3bX7V+uLqR7P1XXPouKFMcPEV0KE7Hz7+4oCroTAM3+XJvaMvvwzdV995++5m0voXxtnoC8PQcRc1DobCd7LHd2nU1yAMgWMSHwyZqx57smm1VzhO1/uGBh59gpnaadkJr1290YcP9sKDfeYdQvuhMPRZf+icjB8XdOw2zzg4dhwf/mwGLVubEbzE+zNWTdvN5d17tr8/JfrgddJs3UrKUDqcDBhqGMetf7Jw2QfWofsfh9/uOnsKUvq2e/XZVB9lNI4Ik4IU7qGS8qXPf079i5e/4tc1PF74oghOJjH29PPtGBjK3H15awiuh8IwZO79GNsXB0P31Xfevnsal52r1+gbpOymgPvC0nfcycZB33WH6sO+8+7EAzsZsCH7HzK2D7xfa37tA+OpPmYIDTJI6ccH29thdnOiunMOdaK7dJqki/o4TReW9kNwy1r98NofKtZPx6+eu886Xb09upeWtt1AtOWRhJNWsdlSXe3iZFwANWmHk+YYivdJ67mPeYHOn3AWOb+Msg8e+8y9lzFd/gaWWr72EtjvxSb1wcE4WMftOWHuM6fkhUrK2upyL/z1zcYNYZ4UrsLqHWmo52L9vhvrtaHpoH3DwBAe2A/FvRdB3Ddk9Jy4L29/rXG7F8dgN2VVf9YXBz1RWobt17x94BhKrwsz57h9sv6Q/Q8Ze2Fg3enek71+HxhP9THjZHb3PbfO0O7jvvZBSsLX1/k52fw1VL73Y/1xQcpOPtVO+jZ5JPezteWnUtwxxvdq7+wTpOyEl75+3NciSBnH6yebXkN0zX4FKV2/ezeY6sBot3HdYHmnxGUfvhwJvvoenB9i6IYKbV+iDWGWvmOHwrpf8/bFwSVl3H7hdcj+h8IwZO79GLtfvNV33pOxpyGZ0u56+0mv/cBB3zmHGIShNBgHw3gaDDkA2qdX2SHtg4OhDnKfOfsYuhqX+8lbQ2l2ssf3wdew/Q/hFXHByJbqTO+kve4E+zB4nQ/73rNTID8J1p0+77vuUJ7di3yNk/2aHrslfdvgxOnvQQovgpSU9a5usLEMVyAzN0KDLl7y7yFBSh147mRb+ganLf2G8He/YH0oD+yV1ybZ1z66oKVtXyj642AcLXbCTV9YBz2CeD8IkVFaV0BqgR6igIYqgiF72s9ArS/B+rLVkH0NUYZ91x867mTv3wVxiDIaCvGpOb4vHXbLktR4H8mIRCquvrf+/aJ25rsUHMovfXE1dN6+nJW6cxyvj+K93yFon0faoBcIffXh0P33xWtfvbVfumA/99WLAHsY1Ae3mUHvOz3OaY3jnWQe+e5+drJ0QZ991b7BTg503z1fmHF9YB3qeO80vpZRfh8XpOyorxV9+CHnMk+lw3lPOhulYZUWnvJW66SujRjHF7vhsYa3O2/9Wc7bt9Nn2OO10YWT9eFQXTCEf3aztX14afxaQ57e198m1Do5cTKpW6q7h21/D6mkDCHEEOTVQUh3jW4Q03fevuOG7Gm/nKhaAIcwb18BnzRn3/W7Sm7SvEOciL706rNmjhlC2yHz7sfYobD2wdde5uwzb3f/Xb7Y0eh1gpQu3w2Fdwgd+uxrL/zdF4Y+6/edq3a2uryeOBx1CHiSymRD684IAU2/R8oO1Yd9cdB33BD9sh+8NZRf+jtR/Tlh6L764JYgZavZ6AmEHZme8S+2S36oW49SxvnJ+zXPdB3P3ZzaScDs5sjV99Zr7qSnJq017vM+eB0ntzutNZS3djuTkrAlDWo40vfK9ep150wNzKA3SnCDY8ubnlkXPe27M9btNdPM2VgPUuDzbrVk6H66eq3LK90gpa8P4/P2/w6gra1+enMvPNP3nqRfTaPUfTvx86S5vTI2aZTbgyG53i48KfN1ILmTHqz5dERmNzc3tvhCxUlXMt+kcUME0Y2iR/cpZHw7fF7J6PlzCCP2VRpDlPxQozwEV33h7TvnEKXQF69D5hzKByd7/8lbffH1tR43hA9TQU2CeS9zDqVD7ZiMM3RdWGte6xqyoWtP2v+IouuhkffC331h2I+9jTNema2ugxW2bn5Dr4snJs7N9fvS26H6sC8O+o7rKwf7pQuG8svXMkgB1tq27s4M5pnMrvd0YoyxNr2SkrzXDVJ2a++pP+s6OH3117jAfKd7+cLoWm4SD33X2glvJ5tnh/AWdF1eXpYfVftK/M43g3Pl+13nPmUjnUl+Mh8/Dx5YbJYW5+2L+TwYyfnREaK3vbe2vtasra2Zx2t4tfdzzW6gUtMoP5ukkNIvTL6ondh6vq7OmzSvgpSZfl0Ws7MLzVzsd/K8+zcicVHTL/HSt32uhm5jY50T6ZMBRhXMIjOTDUiXt2qemhSk1PFFN1iZ2Vhd2TrvM58SA8KcMB2/89TrZCYtbt8y2SwcsG+QnNc3t8/NmzEDcIu02wU8NNsyHt6Mb6jUXIquLdZO5rbH1/GNlLwWViwoWbPf19ab1dXVZnV51eBYk2DMWig/P7/YzC/aeiYsc0tL9p79tPf9SRImPMAWJccZE0jWmLX17P8GSAhcCN283Ttj8MtY2H3rqyZgG7ae/Zu3e2dtT0kMHRSz8WlYWAOsqKxpe9m0b9ZcPn68OXHihMG9bPfPmkAvNgcMxkVbY2NzttlQFOoBmNo2wamNQ3FIWdp6zDcTcZnWAFaUDdkKG0d2whAiRbCyvt4sN+txf+yVMUK74xi4da8ecp7PDdz2TUsjzGm78b/Dkdu0dVBA8AOwAjN40P7jGdejE4CXfMdDdB5VuGFACI+A0hGHHC68GD/MbaA4qnnEI5l5c+xpX5GtATZerANewSffgCp8pUNavmisu7r9nY9QBDbDG6hirk2yiJE6EC7BaV3uJdPsmBh/5VKag/3U38oaaYn61GFNom7KopvuoEc452ebAYU9+0K8LhKGbDiUxuMa4xTY2AJn68268dK6ydgmiirBRBkZHyIH8wtzzYLJHTIug4R+suntYeW2jLAkmVszPllfXWk27KfzhU0iuvD+qtbYMjmYNRwgl9BIeoM5cZzhDcOv/2yaVeTAfkG/LJoszSEjZPJqBQmtgrWRE0uySI84+/pe4RMuINVYZfaMPwJfJmE+3l72iX7fMPzN2P4WbCpfMxIott9N48119mT7RA7X1ze0xjywB7+xpMinpEuwcuxtdmnRZT10qpOVdZ2YrcE1/Aduaj4UfAYDeoR7pePQEfbNwujMNUOcGx3nCO6FJhsGO3+T6VzFkWC/CkKMFikretdxJ31vOOdbgsH/vOkx5xxtrGrlAO9bzWrwADhZM/3NHPO2z0W7Hxpm9UaihrPE2sgveAHvRU7hqErugk7SnZJHx+u2y5Wcv40IVFrGDXi2nzidWVeGE7shoIL5c4JYZt7YA+pIlwR93AB7f37qRPjSqLAdrnHvwF/wKXioAuZNs7cbxk/p2KcOF/wimBRTSeb5W8F3la5DHqW3q5Yqlw94wfljERpi92RPjG+MZshPcT4DX5KbWYNXZHO5hV+Yj3vRH7qn2Nt5lw/suP0Evw5nm1HXfsyHmDXekC+AXckH4YT9cvXvB7RP2Ldyw1eMWzT7L360V37LtexkZPGxHZJR9JHtCb0k2yB5cZsh59n2ceCMM0aCFKcrRDY8wc92P3OA9MUleNjuZZ/Si6ZD0ImyualXXR+N6PnkW3EL/wt9ZO/PhT+UvIXelK01GsmfQb+i06hOwN+1oRQv4tO4LtB+wYHp4BPnXSCYpWsNxpTDBZPDfLEHbMAqshq+AvuHdvgxvJZPmIdhf8N9l77Umc2Z9q3l0GHV+JSNgg/8KGiM7iE4OmF+EFkQ6HPw4IHmsN2DL4TfgFlIngDP8O6Bg4eKDybTBV7EE+7boV9XpNdWxZ/oDPcF7XPxvIyfbI5wEX4ePKFAyT5jXueP4IVQyqyPN8Y/9Ch0FA8gG+lHhL1h3rmFJdGe5cDpgvEwMGAHkSF4viRrcHrDhxHfha8H383hM5tdxadDOpZtj4xNGWHusd80Y/RqzEcVro0+Kyv+e8rsQsjGAv4Pe7R5JQPYXsmg8632IJ/ZeSj1n/unrtvc5+Mzlx3knevA4gHxvNPef6bdCwXpGGUeux95BXfAe97553kAbf+AEd5kfujEN9cn7iUm/DOcLRgfOM9iRwzuleNHt/79o3+qtdaNEVfNcQfp6RDqfYjPjYtnmOCaE37ACJfOhulcGU0IHkp9cw5GcAYCOAgBkgASwqBQcCwQspkVQybKctUQi2NjRADJIjyKheAEg2fAztqmIKac5njcXUb9wJmKZN4ygRhJZ+J0LNy5n5XxtANetv7q8ooJnwmCBSlL5kjMS4GGUwnMMKTt22E2ZsHIEjQZLJsmuMeO2uPq7JF1J44eNdW6afgxJWjCyT43GwTZ7stACgE1vAgPKFz2ghMU8AwiAAAgAElEQVRgTLS5bviWAoLI7nTBXKkQNxHalZVmeW25WbHP5UTaPlAWmSmRoyOmd0XfajeR1gUAx1CGIZzvdPjBAUY0Ar81aIDxNNwJThgc4xrOl4JAaI5DbP/c3DtDyzEQEK4MxEdgRwGHG0SNCzxDB/jBtHQoH3eL0ujIAQ3noIZdzqmyO+5MLIYiIIjV+nZtGF7TUavv5bMMbN3AuNGXcSgC7C0y7iyEoyBBtH04KvU/map0tsOl8/lxsFAAGEmfozgevJ9zyUi6gkS/1YFYylM+WcV3NSPlKNymvEUQLrlVUBHKknk34qksKG1TeNxLUO1OCoYnHArfiQzBgvEXTgGBingwHGpXZvCnGXM5OisKRjaYB2MShmPTFCSGU0kAprdsFDKB7pCSl0J2FzHYVrhZJQaDlhHsI3/CQbYqoWAd4ZrHjRNOiTtNTkqnpePcA4F1AwJZ8X0QkLQGQkGBXevwpsE9Y/sqeLX50VEZEEuBo7vQBUYByUE6W5KDcHjYMnBEcD9n+nIGvSMBtHsi0VEc7+JnbxmcVDEIKBUVisHAN0EHzpeCI5wl+2z9yBEZAnQ2eEjegUcFI7cbDLQsrJsscGEw5XQaPOAKvaZXOE9zhnv0+6GDBxVsOL7WXV6E0zRyRn/DxarpbXTTmtEb/OKoHDi4ZHrQ9px8g+4LQ4feyCRT8b/sc2giBxvnS3LtRi+DNQ8QnP9TDjwTMz4bWBJn4ewrEMYhQbcQ+FRJipjYf4Rf6Gzmcq9EmNaX2XcbhFMgu+f2QfwnOtahUjuznJxZWxucR5JOjiaOGI694VLyn3oxeMidMuAAbp/feQs5jyAqnAOSe8xTIJDPgv0zHjbeOQg/2j7WzJ5ga6VH5MibY6DEozuBW4ZXJYhw0mTz3N6AM+bDSWKvej9sJPYig4SRCpvBzVzgB55bWDroDmc4pHJ+5Ni5Ms2U0FFzfFkHXpU+MJ7EacEX4JJDRXCM8yzHHlnFp+A9nP7wIYKvmR++Wzp4WHo9dYE4irXhc3wCkyXtz+ZcNHvugTtBvckMyVL8HiVPqvMXZJpNx6UO90A4HN/gP8EMrlFnEfiAww18LrO36NIty2oK7+wD2xu0DrYvDnVWO/CTtF+Su+aDwB7sJZMQKeeL4J2kjxzkLXOQPWERbCVdsUKQYv4QiSX2AV0PHT7cHDS5JcFRAlMcVdM/8AJ4OhFBCvKLjucrIQ6dcUg0A8ey0wThoZ/B/SI8gA8m++gBF7SRr2H4hV+Zd22F6hC+EPocH9JekcRJ4MGX6A+d7eUBpCeoFYzjU8IL6CD2rB42BM2DXyWJJV6ehGHf2I7kdfkpQUNkYAk5MViQM+lewxn7c90RfBzJq1mCA+HebCr+JXMbjhh9/AT60uUYp5xHHivRWmwdvGD4MZ9vffmo4zrWWzVdCz7Tl1zCriIX4NP2ylh4Q/xg8EN7Xhng41K5mnG9wl6LjcPeRZJausQ+h5b4f7W9qyt2qeVET8M5ASrcf+LEsebcc8+1IOWEcCwfm/1vktBCpkynoI8VqYZ2tf1Dg0UbywuZnzl+5IKtD/7+m92plKB7xJzXKhUDI8Sc8cLhOSopHgAgrKlUEGIQJoeZeXgFAtIBlJCTSZHRDGfP1jtuDnIxqDCSMNuu7+5AGAljWrkeoVSyipLg4kwri2BlysUzz9AkrrhWFYGmIw+jo5Bw0jYsEsZ5WLIMAMLswgMKTNgV+blzoxyaBHTJyqBE1+ZUmXE+ceyoBStHJFDrhitlDXAYcDZkRAx2KV/PBmRmypUd9R7KTm4MJEAYRSJN/kXECl0wKAjDjDlcCCuELFkl6CZnH2XguKOKsZ5JvvAEpcAk7IGncOjZh2du3CFaM0WNgHNROUvFgJ2Wz0gUbI6sKlNBLIJSLmVqI2M6b0pXxgBDRTaXrDsBiV0ZXLHXNVtzxcpJyq4qc9hWUWqjq7mUhXWHWmIWv3pGwoU+HZJlaALOcJ6UkXNFzT3iHRl0n8k+caewClIKFwY8Xv0zWCk5aHEUX6yb2YW4yWUJh4BsoGciRfMI9sAHin81nGBXkJ5JQr6E21BYOLXal16zxnPHvcoVrQuexXTjnI6vMkO2n4Nmb+dxvKRoZzzDTgYOp4LAMH08Q+06UQb8kTySDjh74/5wJlCeK2RNI+NC/zo5Za8VuOOIDCBvKzb/Grg3ZbO0ZPqDpIOeAuNGxDNd7jSKh0Ri51Hxf67LrOHsICSH590JVv98OkLBW6JL0EP65LjRoDIA1uHqvKqkAa6A88KKGehl0xVKgNg/VZYVANj+JHNuTOZMJtwZ8sRHVgeSX0pVQnJgwAQeU09lwFoUXfAwPwSPjDdVQr/QUWsGl6oVGHmq2rbJC6KSIjoYHkhshH12p1DOpeHd9NWSOQYud1HNwmExfCL7BBkKdOxvgoylAwftdcBwZsQQH3sgKE0cjoX4D3qI7zyQ8wDKDHkkauS8y2Ez+SIjGYkN0SZ0uLglMsPswR2UE+H0e6Av/yacHM8Ah9YRb7gcliRA2A6fvjUk6STNiYdZH5loq1maIWBasTaIjQhMSqad2eBNtE8kybwiEE5zBJUOqjtNtR1Dng8eOugyj1MJztORhhfZi3jWZFQZTeTbdGwkAGVO5dCFNc+tKQPq9jEdLelCbIndBB9l1l2BOpIaOo6kRVY4Dxi9i00JOwCsWa2WPsIOKph0znRb5pnVrABk9SaDefa4anoYR3fR7j+EM2XzZ4JNejFkPYNIGH/Fgt8MrNvKiwe4kgkl8zxJsUHGHocv9GVmx8uYrKwYn82bjvSsfdip9F0iOJSdYt8kUG2vntxzR9bbmTz5kB0L6Kt500VzBOGRjJImG21OcJ8C3JEZjsy29CPVC5KlZt8z2FIQYjK/aI6D+BVfJBIenmB0cZDeI2kC7ec9ISqlAf+F7vBKUmbswzcjCCUREIk07U1reDBKNQT5x3GpnVfpzLDvoMXbvTwJjH9Ckg8bpaRmrN+mFkIcbDFky//CWnhw6abF7wVPGWjKnqBztC/n8dxb6hBuho9JVKbNcL3iifBMZmbSkQQDOrwNDNpqqAIQu5n7VKXOwD+Cgnl0LPJhMFNBgreBn2ve9GVJhsIjRmv3IduEs5Kh5hesX2COe+CTpOCS8Q9JvKxeq0uB7iJz9E8cPT/kK4Lf0IUK2kJ++LlqdF4DNtMHnijwZB3JPtbwpApW2hKBS/i1/N76PMJTVFKQZw8goxMIPRK+aSzvsV7a2SphSkDjvBkBP4GmfGeCUMc1tMaTy0qKJ3lc1xc/OXWDIXnrc5/8x5Jd8mjfjQgKZ8XKf8eMGMvnnd+snX+BZ/GkKFoF70GKZ2G4d2HpsI07FESICFgKzVsAXBk5fo42lv2xn3LOgtGkTFE89j6VDhSdMj9GLKRf+wmD6Qk2ssooqSjLEoVd6rCvo8wR2b6o0JABTVcKJ02tebMSTKLN/EIiGTVKpxl82SprBhBrnGFZRqJChAa4lpet7ctwtGJOw4oZWIz+iRNHFTEq+ygFinFzJeeKJg+ZzVjQc9DW9lY6hNwdc1c4aUhRRsBtozyjIGc72qrIjAVT47DIKJnjaKrWlYzK/Saw8ZlrsjbYc+fTqyJ5oSxwbg5a6RYGl4Nr81I9IjIGnytE9BFgqQ1Q9HUhxjlclJ32zCFODnhB+LlKBQhhgn8OuROTjrwy1JVzrjYkSoUSFBcOUZ6gikAUw09Wn0CtqDFvd2EuOU6RcYBPs5Uss34HZizTAMqlBF0NZnYUI0BVwFt+1pqjG8sy1spYRxbP2468tUKZffGpVybccTNHkeA5MjXQ09suPAMJU6sipFanDFLCGuH84bCYw4kjMW+OPn+jALlwpDOjRVYOpenZYlP+ZuxpS6JtkrmlNCMzBcW9PRJ8bDTnm4yL79PJkjIJgx5ZLLWTkTU0wyxHD36uih2uuNLpMp6hUkh1huxICRI9ISLjRsVOVTH7e+WYGWenYQbNMFM6j9525S0lx887IqN0+JBl7g5bhZdMr8GNsQQXK2H4CY6ufJWrRnAYwTI4UkBvxkXtCG7M0BXEafALHOCBtcOjzKIZ7kNnWHbR5B9dsIpRrpR0wulK2GVe7QtWLaZa6g63rK3kT3tDk6aD6t6Cf8wVPE7GGMcJfDEnjgQV4VUZfFpE0yPytjBVPexCn6GnDh06Q3LswZ/rDvSr78/k0vCV+9wIeoM35EQ8au0GJHpKW4DoZRk2gtMS1Htrp1eznac8oLFkCQbfAmvpM/6ViozjIwOf4tyHHqplkZuVoAIn4VRRNSULOaJfQ4WlIXU59DYl0IoeUWuEHM32sbUZgEOLI2uWIaWVQ45clTAK/c1E0BL8HT1ytDjtWlr8GuSLXxw+9OkB8eUyVUa1TJmOjMoTTgqtG+4kATOJq6hK2zhl+aPVQ7aM5B5BZfTMp4MJzXF20Hfp2KYeWyWYEee53eDKpBn6SbZdtt+7CFRVsLVYO+1gsd3ci+Brr45bx2HMD37C0VsmIKPaSgJA+GzlQ0lPJWcieRROESqRPJnrgqgOpVwgIsE3CswOeXuhdC2v4AklwICBqjEdIrRxWRW5BCnFwcuzGzjl3rZGUmDT9u4+sidRaudMelF61MRU1WFvDVPHAVfAWhLjYIm9kNw1JeOBHUkCd+RI6ngayXUCPLAwi03MKoInQ4o/UmQIN2W2OXCpQy5Hkjmv+PoDENpLqgUdGV0I8vWwAVERg/+U1IhWT69EuL3OID8DGhI8QXzfbLGDntRQQknI86RTBkq8t0piOPwgySaBRPBFBqxe6fQ2MGX6ZV+z2uq7aluFnRZJ99TDtV5x0XTB1MyGSyoQal+KwDcx5V0crvtdD0QlGVwxR8C8bNUQtaRRBTU+OOPMg7LLgivm9fZzT2wIam4nAD/3iFcD4V97O+kqu2P4oEUK3xt+tJR6+FVRJYuEW/paCfec2cFZs4e+prxi5yYFce5bpm89olvTJCm4DvsfNgU6Ir/yfUgI0J2CYMo/ziClTR7gY1IdzCMLzlPRdYMelH11OV00HyIveV2SsUzwuBwoyLa2jK0vffrfxdBy2EBaZOSYgLMiJyxaxHngHAZExXhqXx4heIZB7V9eSjN2sQW8DJ59f+6UuwJrmZs+9Oid4105Ql7ySmXoh7Yi27pl0XoITFv+T8MX2TEZMnd2C9Np8+6sO8ACWkEGQQqOCm0OmaWTMoJY0kDKnek2tR7ZJrzE7VGoKwTgcyUIgeTwmGFXoBHCWNYMA5biwlJkltWziKKOSlMpiSS8/BRfRE9sYNL5K+Hwsqo7Qra2LSLlIhiJkrMsGZgJWILsoVjdjJFFVU+g8JIBQWS+yeqaAj9ujodaAgxunBp6eJO20MeVgmd4MhvbVlJUg1D2HCUmxyGCEhSTt+xE5URKzoUfv9JpI24XvyprhzJRf3fbS0lPr5PQ+1nVzocSSecEnLge9cpXeheFc/yX7H3OTIM1z+h9CVQ4QW3QQ0ULYxGtaFKeHlCkQdY+IAsry1n2NZiLMZSEi+KUsrB9SOlFNgQ5gq/CICrbQVtHtP14hcj54MSMH4BFMYhvI4PhWagImPmdQJJeV2VP/JVGWRWHkClvk8CJ98yly0za5AjwDO9ezQJ0pCcyjziGybfSNxgdIdL1D87OpresqMojRRjtUSF/mT2lrxqnin5ZHCwZTaHTEhLhYIJT2lQPnXGp8Pc9YF5njSInXrWDb2hZ4zyCn9egFQrnlgqmn4/TmTNzNOElwHY2dCOQmm2UdUKPgcsQMv0I10G4SFomvsoErbPr9HUj7YGA43NLFSnHX17eMuVOowJS6VRPbHiA4PcGyTVWgX0J7mUyTU7Sifd2TPRnGibne3sR1XP4MqxvVusKTmTvoCvlNKsuhx5NWJ1HpUXdzwmnJtDjMlb9ofnDhqRuQR/yXtviVzkimtR5UnrHFpPjLofYKw3JuTX9oLnLI0Ese2QB1na+EL+GTiULLhA1JIKK4IZy7kAwO96ptmfViv1RlZ+Hf7NiLQYRd0m/FdmCt9Fv0eJDlpUAlSBFjkfYYHeY2ypkzY9hrUdYNINGVcvl2zjPzthBaCW3lPCIs4kxxo2wU8d/ySA577VPQsdmlcyr/PBljLW7XL07rHWA7wmWqATJ8fbWM7drQanU1fbWfCQKPLnqNEjKpj7znnvnYxfZ8Ec0T/omLtMkF9X+HDrCEzfoB1/fIfO9okfplMDdl4yFrUyZlL50lvGgQduPcfYmDil2GXnyVqSQO3Arm5dyG7om6eOICN4jCeXnDWQPhasgc+jQ2rRlsiEZIQ+8l/bmuFk01G6D1uAjmD1l3atXvEKG0elh0/RJyGva1qyEOM2Dg6R/3M4lP+T4EDfHXRjrVn8GErSG02Xkik0nKlwzePIdPHvbsfNKrQfkT4FHeN8taflYY0NnkagR7WQNjQZz3jJWfD4xSgAXK2gPbFUtyh4U8F7qZ6ZXt4YlMrKtckH2CHnxpLkSCaHL6/1KP+l4gvvhzh++u+SrTI77ubGUp8BjOkOicwJMK27rT0ieKnQVfSw+cFyp1Yz57UOClGznTB5MuSktl0mnZNoIlBxuw6wpvq3zvvwZd0rCucke+3TmVPaVevGKBUTwiCdQRGZAyiGqK9YHz2fquUvjG4JakJq0MwcAZRBavmUZgBMykklMoIkrQkxybWVzGVdSFtIYaj0pV715wNdNwZoyXnG/hDIIlo6wlK07+7RAa4sycKF04HecYe3AFZkO7IlxW7gQeKdtIC0UYAp9MZwhuMklHgn7TgBpXXgNpR7v+7z8zwVZsDAu9+3aS7jUWbxg4BRPqgGJ5xavbsxFaxwijYEDyIR5YCCnli3aKx0i5kwabQRNJPThaJVDlaq4OFNwzwIBilCfhq5VHdqbWxZHAlKigCYcZHBOmZJyerTyOMbYrPMW7Xn5IIRkWzkgwXobtPnVmly861PkQdsM4nUA1RdwioZEJ58Il4W+kXG0yQi+5BxpnVQiMUcEO6ItmXyt7bzkzqEY13lPkRqIb7ncaR5l3iAieKc1zeIEDwBxZFgXByDZMP0L5isdb6Nl5cxUe8bfXgYcaxVnlPYBTejcXOfv5jeMtpU0+rJCqn4KjykbNo9mQBGGoXVWDXmLTI+y2Nq+O+zgJI1YZhMDw4wSDwuvgXPUrNZJesObmS21tf2MXVQCCJjUF+1GQpmyoGHKT+GEZKyiGOMT8Ib4SAZrc+ify+Cn/nLsiD/aPSB6EXxLDGw/8oxGJ0t5clm1cZKPbmjg8yeolQrRqmodYm0FNYwL/ouElFAYcrFmqOV8lkMbeoV7Kjzkr8SQeV/BV/JC8mvYgS5MOT6QVbCjfbDPgsPRvYqbwk4VB1dwuAzW6+Tnchh4JY/mZlL+AhglJzKYdy4LPe36i8u5u8W02oajMuAdC15phd+2MuGgLCUG3u4LfVH4QPLdVnCREz8o7BV6OSKpr2U3q+ULfC3b557Fa0GczGDPWLLQ/ZjKicIWhs7OrKf4gWBVa8Vewz66I5sI4yEeJkuh9lzuK6CKUg6LWPSk+x3dM0QeSNkEtuZ8BA8ddvKFk+8CjM1IpLoc8r+EuaWbkifcmmoy8JBb8bZWnxy6e0u6J9sEUoV3sU34EKxHpzBxPbKpYcgbAYqmS9vnSeB1c3rR3RHh5PLlZ67DvTTyuS2qdEKOTBkVPZIioYkZHvzqn/FGBFMS2nD9A03pv5R5ynSVVkkbLNy366Ub4qQNXhV/ZfDmvOkJ6qj2Sb7dzm/Tt0lwfhYfZhRNbRLJieI4C32bcio76xssCfLKho5oTO/drzjA1xNsJDV8em0k9XhZN94RpuCtDBTiLAtVGj6TfYvqkngsulOkD0jthq1I1CaGeQCTsUwIeNpMh8+pUzQJq/g7hfaucrpX8Wnig9Z3bPncceqKGNiUjAAVYp8QwCIU3rrn8ZvDU2xf8hh4YbrA84wFIFvnnfPZkANnGCFdTo1vHz8JseUoTir4jIiDQiJSUcc4MPZBZmsTTVky9Pmd5fxUQ6LZN55ZTp/DYeHCQa/1UTJ0UkGEkJBiaJwyGWiF6S3Z36KkpALb7E6QrsDETrIvjyd4EX1nJjEdG8DTuYFUaoIhdxXKKAQkVIPjOzCWfYyMdBy1iqYcnhYcFhiEQvP3R8U2aO7YRGCycpLKzxHvd1WCloQr+gRadhg2sy861M9+I6Iv+JUBhT8CKsrZzrdBHoUq8ZdELX7nR+30O3O2jk6bQSsjwW3sqeDcP9T/ijzIM/S/ma8cLK42l4IAb5X7hNnOVSljP6HkY6CD5LOGOXcZCldQhbFvHYMxa5QlmTngjkywk87p3XJra9Drsxu+Pd+7S2WqJ1cK4r0wvCVpgY5djEBNOOswQGBEDrJ9Np9Oa6BdMEWQESGAdjNv2tgNaGCsmttRGkos50n+0X79rhFeFGpc0fku/allmbHlPc84RVZVqdE4fFnRI3VKmYVhBv+aqkCeYUsdIb4tsKAjnZdsldhXwpm81lJIO8xETYerRnksNgQdjL+lr7ROLuE80eLDHFQ5tIFZ+9iztu04SaILpIYlr5eSumM/dELoXksaaX/K4oJqlz+vjPociTuO2Iqzgi9TG6UOK7xe7gv9PIK10T/Exzwessclzg786Eelb/TnNiEeI+MjdHUnbwHaRkbc8ZM82MpEyryjzyepAx3nUVcqre0Zsy8njw33OdRKAVYhZZm7lZHxaKnsQMDqT+HTxO0t0JC5A95MGDl/Ot/oIDL0JyNbZL5e1fnfecvfL34sgVs1NHkr35Iohs1qndfgu0qfMD6eJRk6pZ2066gKVmy4eNT3my28SZvM2gOopSBCWTtdsjVSLTpZBYEONldrrYIWAYboMkKIWlvG2ZDAhCxd8of2VQe0QnmRYU0ZPCy9ZsGfQrSwYV3a537ByWIEuYGCkaEJa6FX+ACpB5zm8FyeXXF9XWuxrjVwO+LyosRo0C9xOEb0XAfFJt1+O3umfDi94r2oMri3IuWmBFuwnu/PGXyE5xyflVKUfOWqLo+usqL9SlP4uTkuJdbrhJG6LSKZmVh1Dzv+an2RiE5iT6N0LbGN8GqVe4tUCz2KcenwArjQnquAw8W0uto/OF3pDeCJ6dYn1zyBa9ddqc99H8UL78zN2NRJjKofcpG4dv50veJPFw3ypA6MFaQLDZfUBUCxurJYO4ob2x5mEnRSkHLulz47YnxqIa/RMeJYdrmwKHInuiuoyhF1iaqmC6Ws7LxHYAChio2qOj6Wt7NvXudHcoau5OX0IAxYoJaQkoIQiWjBJerrPAFZIP5UdlUwIhCRdQ2h4H1MB1NmhjVUXKpcNzTxT/14ClLa/Xvw49MnCPVWUrZGcC/ZjDkwnAbvQmqOEWmNmZg7XnIU6ziAISGjYrwoM6ZhbfviW/wktTRlPO7TDzPmQT430Jm9VutOXPAKrTMtvUa432BpGej/t/cdgLZU1dnz3i2vgSCKiF1jrIlGjb1EYy/R2BsWrIgNqVIVH0gXUayo0Vhji12jxpJYIv5qbEHsigVBaa/e/q/v+9bae8/cc++Zua/wyow+7r3nzOy99upt7wHNrQEnIYaOsK8jZygL1knLDRdcH4jWXrUxYMZSy0p2asvNspwCiXZAqX3Bi15kGzji2X4nnaiNo3WFCZ4GDAm44IEEa306rLnUscEnSeidvIkFbK3THglSydiNcSBAVCKwL8hVQWq3UUATfOWDYrKkfBu0KsGkcAHRzewpmHU++tBzG65L6ZgMQvQ0TsMj7WNjs+6qFQwwDeTL6JXArSf7/PhtJFdkQCM7Jjr4zB6kKeHgVQoENmyVcb6m7dYD2RGTIweeqZ2fz9sG4y05O05I6cZ8u2ju84BYVp5IgQHoyoy6f2Zr4slfmKt4nQmG036NRtKH96NVrI6HMlgm5HQ2TMfZQsN4aOHxHeAr3Tb4j4aFWiQwgIFjraGbBhE+qwKhMMozjXsHYbc0MfPQP2BOojlUDcZPcYMrR/sOB44guxyBAnAgP044AhnxL3yZxNdOw4AzfCXS1waYdptWykEkW3JGU0+nriGbl66q7ycp9XW60R0+otr5Svq60L9uCMsgJdBbBuy0YbB3TgNwU3xWBrexFyvXzclFyWmNsQMH+BvJilEEoDIoderGjf4xTtrDeCmhFkKTPSDNRxpCiRcOWWmIOJU7TqA7TjtMTqE9HffK0UgwQeckx9XxmECmndGtchkgW/4odBir4vqbtqxwelF9REcIeUiP1tWGj81g2XwTdkNwsIL7C58A35GlreqR7mgISnKGwz5AfzlOYC+w/0JJCLSGat8DAETgnBMOeT3Bs9EWjJ/aE+xOrOMl+CbwQI+I4yZvKOEo6Ayc8PQ7DwzQylgG/7UkX+jT7O07UeqsVXjNwlUYlPR8vl+JwMybPALKdSDp3VQylL14RjgjyYI3fOigdwA4TzWB37hp3R3+CAi8QpogLO0G55HM4fKmAnYFOLVkD7hOwUVdQp4tun34bQ7l0hJ9IXq1Qw5K+X2CwxWizwhrrxZFsW3uiMj2UnmQQmZcx+Rj4TOvkU8RpFzOICU7LilCdmi5RJYpM0DyVVwROgUkT+7ENpVQg2+CcWbjLHBEtsnGiVD4P3OaFGj7D1rDYpz4JZBVCCYZRCeySWlmkqVxw+CoL1aqNkfT+FDZpdJBmuNpSBqPOOGz6hsFsHL8xWisNDAflNWLyoCZa2tLiGi91OoFDkkfQy1L2+U9Tbz639Zlw66eEl25pUSIzgIPujqOCZSMcaoUuVER64lP2LPplRoyuPe8c72emdGhq77KGuEweY4I8NtsnPrgzF1zaEnDEF4p+IjeQxhTb6wTm9kd9yZStoewexk5kcEhtFJKrdxZehgFEkFDHu4HejDbGVmO7MDgdipbwOwbb1WqdV5OSiMrmFD8wT+c0u7j6VCuBIOTo/0hFHkcxDmoyE4AACAASURBVMBnuH7BEvc71QpeCGKo8oX7KIbY0KjpMqMK2UluojpW2F0ngd1HJzmeFSFojobpAoeM7xXCzK7kfOrMp4TNcGjw2LvmnBudYRKNfAG+fjYo4hSHxIZYT2mGhCv8B59yM7CvPlpf+HBasNMMTn+hc4JewY+lE8YUR+J/rSEreZfDGKuIysnDwaduJEJuebud6JMHdp4MXnGaJUcCutT3OJBDfL7QrSFPOfjKi4tqSiRQgpzL7SV+PJ2wdjkRy8/meWKxqCBKgRyx7/wLcuu8nb70ykC+eeCDTejS35w1RRo+rw2BNlVuOq3l2JxPHOPSpdrQy6uht5uyThkaoLddshJMTCBwOOGktF/EC0UsHA+XcZfhdH85V4ESnRSWcR30jKQF7Z23nVIanNDBG6W9JwzJcZHNT3a6wHjp1KHVacTRlSK9eZT2dTNrVLSDEhZqB39CfEbR5amE+Ni/m4dnwUZlpNcJOc3wGaNPPerdCa4RueerGLUU4TqLSvR0gRZFsooSWui/SXOkInkY36lGUMAkQvJQClYoautxPVvi2L6HvQ9S54BX8JQJKdKQ65U9ir8Ds8QnfCEc1ONtr5wqfL3EP0UlJWYu0J/2kARaMJ93m9D2l76j81qgKfMg9hvlTEzwa83vdPxy7Ymug/RARpim1s38b8M+1f40WJk89CGZpCzoUeZo5As4nwqR+XJVTazTuaqZBKGYzntexzyWb8AZdivmmXM7l8Ej8ZMfJDJGkFJv/qrJRIFKocf9JjzbSADEAiOJhr3Zsf8cK8wnacbJYrFOGKSSJkou1/aaeyCtdq8//b4mgFhY6QRSbULxAUCuBkpcnd1JYboRgWNL1zRhOC2jQRUxSSKrEV8OjZgm3IjYWyHk1o09kV7wQUHf3E/auCFF5f5k3hYfjChhcu/N7wKxgVyc8qABHUz2BAeTR+CDn6UxSA/E+vwnMQB9QcK7pisZkQqlmIyMHxnsxsKbf0r6ap9mRer4TV/XFWGgTEKT15sFW8FXdlqEM4wfAsKNh+CEOggOk6+rYI2i0t6IwVyRppWAB0Nj+IeSxQFz5c2ERGPc5Io6AhmAGAFqDWEDnAp8rzNRshEvnwm0Yyq2CUabTDABBZ7ASKZ8KaEsZTRyAFe2+wUtyAaFI0Il4n1vsWma46HlrsED/DgYTx5vMlTLLUqIrEtCputc9+RdQZvyKQlGVsON7uAXjCCUiwlKh0Xc6crPeSyVe/1+hpNNRR9GIKMoKQGO7wTQjAJ+1pR3ZJY1a3xXo7YMR5ovG/AQ9mBl3hKyOY/4PnaN78Mz85ubMlGsUXzq95VsDjw2dFk+w3+AvubK7QIPOuajJVAJGQ2WqmrUr2osUMU8M2bOZNbXUTdzTtHaWpImCbI0EB7MlREyiEf00DxFYp818No0BsVjWY8NGqcBlm/Gr9O7dALF0wwwog+9GCLNUDgIaocpAPSbmjZfZhP0HFCWLHiDt0F2ucGhcKJCpptLsr9H+FZwlIkkizlIUUKuDFIieAvnw1kpUSESe1KlMlIq5BW8U4PBgCxOnoOz5xrAqes6AmshnsoWYMOHFlzDcnDPcs8WhGQDyPR78QTffYH9ZeW3UqbOYnwwxyzFi3jLmZtsRj6wMQbt/ypRoFUhM59HwBr0XBb2oK2/PW0AJXNiTF96xalp753/01G99nfogsAPcZ2W750JvicQh6yk98YlKMJmxAeOM+CAuNNggwJy8RhQHN44WWCeLU1HKdvXTAKH/XBblcnl49n36bCALHzEi6Mn05fAEev6nvfPVxzZ//RAMWBw/syaLfAQAbX/3dTVpdppxp01Cguf5BQHL+kh/yWGDtDz0LGu+MT/FpOlJet56Y0SrNqOvjIQa/hB5Z9Ci+igI639YAryQCwM+kXt1+INyXju6pWdl09T+D6RMLTjLRmk1AlVgO6OHUOSQrh0ZkspHOVyxXgLG5xMFWRW9FYC33xbZI6JWxAKi0e5fHR+kFJ2wYokgqPohKixQAkT77VyA9oWnIvrP0vlxXEDgSWbDGAIjjIf1pIjEtwgCs8J9+CotE2cTsoc/0e2BL2M+crBXG2R9geGqR8eMIDEiWTgkHJcTdl0DIAOOxiJn2MjuvfFaGp3/CNa8KTVYN+iASxoPLZAQDA/8vCdh80FD/xbBjnpoJBh/ywJhOEeGzrVN1rn43k8bDfp3eX1+/yYqsw/lBsw73wF2Ar0IP1CNzemDxLwpCZsqLX5eZw1eSccBzmhoa+oKpg5LTbiz48q50EA44mzmko+LG8qcYMNyKni0KBxytA4gaKomsaqyV+eATThO6GdXuHUpLYycqhoBC3kWBiKdrmRWRewquUwAC1JydLV6ELX2Bu0OAh0HO1/fnZL0p9NB1v4xQr1RniuEgq+GL50TEoREJ9An4rmuQqn56FeuCk/ODmySPy7bprxStG6NqqLeznvYJd7Pj5kCTSPpwIyLAPR19BbjXtirPhZ3ws3mB4jZj2Jg0E6KRIdCR+DUqKNcYFO6keXs9oYA2DgrlrH2CB5dGMOlc1N63hJpEc7IVO1SnSiHBuWE37jHVRxEEsEJOJDXc1xSrWTWlNgu9xRSZ7QvGXBNfWT3uy74JyoIsS4oLxkCyNmCxYynod122e4QC9+CRdx0NTPPqedrUbJqR+xUAcWc+F5dAIE15ey1Qg3i7bS2NtTHy98IYwLCkAnNqv7idfCybf7pvii0IUlJ2QFOg7v+Zq35gH8q84QJaO4JugCJhTtfzg1yoNv0r7Rsq7b5UjG0LFHgRUGEqHE1AAj5bQa9M1gaZxvkwfdl05rTIHQYv6ntGZKxC8g58QJOyEoaC4Q+hHdAVn7YN06QmHQVa5XPC7FWufrsFjSnOiUwCfZ7kgy6vpRlgDXiOkM1LY9C0pMx9JIlQIIbWCo6+uBQQp8vqJ9rHwXUbnOHJS6rQvlz4Q/9Bn0aX6CwTI3jtdGGcg9Ot3r0j8uxB/95z0Gegz0GOgx0GOgx0CPgR4DPQZ6DPQY2K4Y6IOU7YrufrIeAz0Gegz0GOgx0GOgx0CPgR4DPQaGYaAPUoZhqP++x0CPgR4DPQZ6DPQY6DHQY6DHQI+B7YqBPkjZrujuJ+sx0GOgx0CPgR4DPQZ6DPQY6DHQY2AYBvogZRiG+u97DPQY6DHQY6DHQI+BHgM9BnoM9BjYrhjog5Ttiu5+sh4DPQZ6DPQY6DHQY6DHQI+BHgM9BoZhwN6TMjl35Z8vHnZf/71hYHp6qvrJj39Q3eRmf13tsec1epz0GOgx0GOgx0CPgR4DPQZ6DGxHDPz8pxfQB7vu/tffjrPuWFNtWL+u+tUvflrd8ja3q8bGFnrpxnCYcRz9FZddVo2MjlZ77X3N4Q9s5zuWTU1OzF31lz9tlWn/fOmfqv/83CeqC//vB9Xll/2FZ3FfY6+9qxve+GbV3e51v+q2t7vjVplnewzy7x/81+pL//HJ6u/udLfq2Qcfxinjs/2vf6PqmFedtT3A6OfoMbDTYOB/v/Ot6ouf/Vh16SUXV1OTk9V19tu/uuNd7lHd70GPMCU6vtOsowd062HgnW89p7rkT3+oDfiwRz6h+pvb32neJHA8vvz5T1UX/faX1borr6z2u+71qtve/o7Vgx/+2Gp8xYqtB1Q/0k6DgYnNm6rPfPxD1QU//n516Z/+WF173/2qW9z6b6qHP/pJ1erVa3aadWxLQPGOijeefVK1YcP6anx8RfXiw06gw7mrXj/6/neqt7zuVL4HbO0ZbzIfc8dzrLcH7k9fe1R10a9/Wd3nHx9SPf6pz17ylP/ztS9V7/2XN1WPfOxTqwc+7J+XPE6XBwH7kcef1uoRq6RMWCVly4IUCMl/felz1Sc+/N5qcnJi4MS3vPXfVi86/IRWQO0INw0KUj750fdXn//0R6sb3Oim1VGvOH1HALOHocfADoOB97zjDdW3vv6VefDc4lZ/U73wsOPt7cVtX+m3wyypB2QLMXDqK4+ofn/Rr2ujHPCsF1Z3ved9a59NTU1Vhx70lIGz3eBGN6kOP/aUXdrx2kI075KPI1N8xtqXV3/58yXz1ncNy/gecdwp1d7XvNYuufYui/rZT35cve6MV6ZHnvuiI6vb3eHOXYbYqe79iSXB33DW2mrUArG1Z75lt+1qOfuU46pf/vzC6h8f9E/Vo5/49CXRcGZ6ulp77Ev57LEnvXaLKjLDALji8r9Un/jI+6pHWTD0lnNPq57yjIOqL3z249Uznvti8w1qrx6vDbVV2r0+/bF/qz73yQ9z4D32uEb193e7tznyN7G3ko9Ul1p15af/90P+vrMHKXir769+cWF1gxvepFqxctUwmvTf9xjYrTDwgXe/lW+VRTskWiP/3//8d/WLn/2EOHj2Cw6r/u7v77Zb4aNfbFV97/99s4KzieujH3hXNTU1WS0WpNz+jnep/tqCWrRyfPub/1X9+Aff5bNPPOC51b3u96AepbsRBt7zjjda0uPL5oyOMcN7o5v8VfWH3/2m+o9P/3s1ObGZjjgc8t39aiaHbneHuxhejtil0fL7i35TrV6zR3XNfXbfIHXCZOCi3/yqutnNb7Gok78YI/zge99mh9BjnvD06m+3Q2D7fz/8XvXJj76v+tMf/1Dd9K9uUT32yc+srneDGy/Kq1tcSfmdZcmQ7Zidmalu8zd/Vx3wnBdVe+6517xJYajW7LHnosBstHIlKjHbKjuCbB2yMmhDaWZ1AR8qQrHXZFAlpa3UX3nF5WxPWLVqddtH+vt6DOz0GJgxHYBkRFzI0hx/xEHVuquurB7w0EdVj3rcATv9GvsFLB0DR77oGdWmTRsHBingnZ/95EfVrW57+zQBeqXXHntI9WdrH7zL3f+heprZlv7aPTAAW3z4C5/OYOSxT3pmdd8HPjwt/H++9mVrT3kj28nPfMO7d+tWQDiqx7zsucTTTczp+7XtUUAb1MlnvXVohQE4Rmvu3nvvMxCHkxMT1WZrt0PLfnnBV4IcX+va1yENFrtw36aNG6p9rrXv4r6f3bNh3VXVPjZmaUO2hNvXrbuyGrc242ZCGVsR4P+13X8BPKCVrm1ABPwAb8BP89rWPm7Mh2QQ1rkQbeO+tvTB/eAX+M/XuMbei8oc9PZlf/kz/d/S54c/8FXruPr2N79q41xq+NnXkg+Pru5453ssHqRMTW62PSnzy6ltmePcM19VXXjBD43g+1THrn1NtapjnygW/vWvfKH64uc+nsq6qMbc+e73rh7x6CfXkHHBj75fvfmcV9tnK6szzn1XDcRTX3F49cc/XFQ95cAXVHe9x3353ResP/5T1qJ1s5vfqvqrW9yae0xAvNNf/84E57e+8ZXqs9bzGiXl/a9/w+rRFlWipNjck1KO99KjTuQcv/7lzyqU3XAdftyp1bvOO8eixN/z77++1W2rAw58oQne4gLaFtf9fT0GdiYMwPE8/nAEKVeYLD+pevAjHrszgd/DupUxsFiQstBUrz3thOoXtlelD1K2MjF28OGwv/XElysoRRtKuUEaScDjDnue29xTqhvf9OY7+Gq2HXhor0UlBU738a9+XXWK+UEM7J58YHXfBzysNnHpqxz4/JdVqHzDoY72sDe99tV2MND3q/s/5FEVWnO+e/43qpmZacP9DarHPfVZFdp2sXcB1S1cqGQ8zua5893vM2+ByNB/4iPvTb4Q7kWL5z895sm1/Yl//P1F1fve+Sb6UbjQwnWP+zxg0T0W5TrOfsv7UhXhsBccwAr+U62d9L/+87PVb371c+IFGXusF/t0sMbf/voXnOu617tB9bRnv4gVurhKH++pzzq4es/bz61+ZbAhCY8E9r3+4YHVQx75+FogFXhDIA3fD9UCVAde/sozOGxbH/frX/1i9cH3nEffFG1s5Wb4zZs2mS19PpP4z3zeIdUd7nx3rgX0etDDH1M9/J+fyLkQdPzbv761+u63v8F5EURe/4Y3tu0JgiWutvTB/QisPvL+d1Y/+N75DL6WLVvOTqnHP+VZ1U1vfsvauJ+1jqovfuZjadsHAtyXHnlidR3bX4ig8fyvf7W6z/0fWp196nHVwYccW33tK58n/Iu1gtvG+aUHKdjUduSLn1mhDeqfn/C06v4PfmQC+A+/+20q1Tc5+E53vWeKrN/+xrOq//3O/wyUYizs8GNfnQKKC370v7ZB7GQGKWe98d21Z159wqEVGL5sJfiCIQuCMjIySmGLK4KUj33o3dzo37xw//7Xv0H1u9/+urZxPsZD0POyo9fyMQjMWScfw9/BxOstG1Be17fWsCNPOK3vxx9I4f7DXQ0DMAAwfOtMDs43A4oEBjZzHmUKGxXM/tp9MdA1SIEuPe6w51N3P84M4j+Yceuv3QMD6NA4zfYz4Vp75ptr3RWoHhx+8NP43Ytsk/gtb/O3uwdSBqwSe1GwJwWHEh300qOrd7/t3Op8y1QP2jdb+iqlTxRBCnwr+Fhj4+M8+KS8kBW//Z3uWqGK1bwOefna6q/++lbp4//41EerT/37+/n3DW9ys2r1qjXVr3/1s2pis6o9L7P7wyk98egXs1IaPtefL73EgqHbLtrGV67jnPM+kIKUlz3/KQxSBsEPfKxctar6+YX/VwN/z2vsVR1nQTCCKFzh4+17neua3kFF4NJ568X+auyxjCpS4K3EKfy+CFLa+rgIMI499LnE/bNecGh1h7+/e5r7G//9n9X73/lmwnmSVckQwMS8SP4hCYjrfRZEftM2wuNCwh0VoCmrBJ1eJPW70AddEKe/6kgLWi/jVo4b3PimdhLYX6qL//g7BivPe/GR6RCU8609991vez3nvua1rs02TdD2SNu/jS0S5YXAGr56m2uLTve6+A+/q04+/mWc5yVHvJKVg7giwh8ExHNeeHh1+zuC4XWqAK77P+SRZoQeZqW5lQxaELkhI3DXe97PFnMw71lqkIJnH/aoJzCIuvLKy1lmQgBy5klHM9pEpI3qyX4WWWOTJ3qnf/fbX3HO8nSvYUEKWhWeapWcFRZEfe6TH6m+9PlPDsRNG8L09/QY2BkxEIozYIfBgG7APpX+2r0x0DVIecvrT6t+9L//j1X6Y6xK35/mtPvwTx+kDKc1uj9eeZQcvWc+/5DqTne5JzPrb3jNSfzs5a88k1n0uErnHkENqghwxFG9gPMbuhtJpee9+KjqZhZ4oCrwjjedxUQ0rqceeDBPbPy9+U+QTySk7nIPa8W0sXBhz9BprzqqWm4O7EGHHF3BoccFZ/f1Z57IRDJOosKJVJdf9ufqhCNewO/h9N/KjtJFSxBov1h1bFiQAucceyD3tv0qOOjo87aHCRecbDjVcLS/862vJd8Ta8Lps7jCx8PvqAKgIoUKEqoAGAf7LHE95ZkvqO5+73/k74E3OO0vsDXf/Ja3oVOPQKerj/tuq9yc/42v0vF//ktenmh39inH2yb5n1h17OHcx1HOWwYp4AfwBaoTqFrhwr7QCCK70AfP/subz2ZVBvu/nv7cl9C3xYWDsj703rczeXD8q89hIhItmAhib2bVlZcdLR5EZQktX1vyyo4tqqRg89KprzycwBxmFY/SEQFivmnRX1yIoqNicsCz7XQXa8nCXhZkXsEgYJTy+sZ/fbF6/7veUus7XWqQgsDnlNe+vVZm/PD7/6X66hc/QyQfu/ZsRtlxIYN30nGHUAC7BCkot0a2GEKNqBhjhVDWFtj/0WNgF8TAeeeebq2SP2RGCyVyXPe4z/0pA8is9Nfui4EuQQoOYsGBLLgOftmx1a1tv2N/7T4Y6IOU4bT+7Cc+ZMczf7BaaYf4nHz2eXQU4XegLeiqK6/g0e+PeeIz0kClcw8nEs5keYWzffd7/SPb5uN68zmnsCum7CDBdx//8HvsyPmPM6A43E5aw/XRf3sXjxFHSw/agcoLgQGOJMd7PV5kQQkCJOgEtDChnfMJBzy71YFEw4KUpz3nxTaeWtCAj6NecmC12aoUpTOP75CkRkvYA6y97VGP137JMkg59JiTmcAur9efcWL1U9s7B6cfFSRcgbdYV3l/Vx/3Fz+7oHrtqSew0oSKCSo9l9jR22uPeQmHPfrEs6yV7Ea1ect1veE1a/kuP7z2A6/OaO6L6UIfVHZAH1SMwF/NveY4FeySi//AgAS8hIAQJ+Ai4H3OwYfXihbDuXnhO7YoSIEDfvQhOp/5SU9/fnXPf3jAgjOhMnHaiTqJA8RHHyBKtnBmBpVsA0G4P5Cw1CCljOwCwGC2e9/vwSYcz5kH97vOex2j5i5Bymvf+oFar2IIQbMVbksI1j/bY2BnwAA2z/38wguqt1sWDj2tW3JM4s6w3h7G4RhoG6R879vfrN7x5tdwwH4v03C87op39EHKcKpizw727uA45lsXB06g/QttSnBwsbchNqKXzn3TV8Fsg9qH8PkHbI/D17/6BW5wPvAgdc7g+qrt+/jw+95h1Zrc2oRqyU8v+BGrM8utbb685ixgwJ5gVEZPOust/Ar7MD7wr/odn2OPy7BTIIcFKU1/Mpzp5gmBb3vjmdX37d1eZXUigpRrWxXkFaeodam8Inm+0trfYl904K2sXuAZBGFdfVw8F/A+5knPqO73wEfQ8UcAgCIAigFxDaLXb3/1i+rcs17FvSl4N9kDH/7o6kG2OT14oAt9ImDCfNhi0bzQljY3N1s9+RnP5z4iJPXRfoitHrjudNd7kZ5bUkXBOFvU7oUBXn3CYVbC+y17II84/pQFj0L7yhc+XX3kA+8k8OiPQ9S/GAGxUeiIF+ns50MtUsMGnQhS0ELymje9t4YztJ2h/WzQnpRmBgAPRi/nQi/CQcSPyL9LkFL2R2IO7FWBQPVByjz+7j/YTTCATB8yfuhRfdXpau3sr90TA22CFGQ2zzntFXRm+s3yuyefYNUXW5vIydbNgOsEcxbROhMXnKGXv1RZ+kNe/irLat96t0MUXnx6jh0qMexCy1C8OHUh5z7GWDBIsQ32ONzojtZOdqC1lcUVLT+1IMUrDcjgQ+cPuvbZZ9/aSX1oKUOwg5PGcA17qWDXIOUky/j/yTL+T3yaHWN+33yMeewV2VpBSrNSMyxIGeTjYv2oTqFKFfuZX3HkwTzIIIKBYfSC7HzYWrGwHxTXbf72DtyvhIpIJOfb0Cd4DM9RxhY4yO2h//R4vmAV10Y7pQ2HVX3N+AUBDHjgCDtQCgHzUq8tDlJwDv473qSsF44ZBYM1j6VDtH+6VVEQ3ZVnm0cp7O73vr/1+B1UW8M3//tLPPUBY53xhn9lL9zPLrSXFp3+St538mvOS0fjoY/xqJceyI1ZbYMUCAUyAdfc59p2esjZqdcOY0MJnmRHX65ff1UfpCyVs/rndjsMxGki5cJDztAPfMo5b9/tcNIvOGNgWJCCHvUz1h7N0+BwGiNaQvoWwd2Tg2DTDz34ALaMPvN5L2VWNq4fm1P7ZjvZCNep57xj6KsNdkUMRv8/ToLCHpHm9YPvns99INjsjtYbXNsjSPmoJaK/bAnp5p6KYTRAR82/vfs87mlAleK0171jwYT39ghSAC9a2Jp7Y+I02zLxvVBwhzG6+rh4BnQ7zlr2wPtIcH/sg3bMtiX14fOW2xIWmxfjxGZ7/H7E8aeye6kLfXB0NA7GwoXDn9BC1vZCsgnwoYtiS5P0W9TuFQC/5XWnVj/6/nf4JzYZ3cPavm5olZX15uyj9Pj5z+jlS6iAHLf2telI3ghE8BzOS77vAx5qxFhZff+732JkjePOcGxdnAJwlW16P/ZQHT2ICgciYxwrhzfd4ygzXG2DFJTFzjxZG+ex0elxT35Wtd/+12Op6oPveRt7FWMe9PbhGrZxvq+ktGXh/r5dEQPnnXuG7R24PRU7zqb/8Q++U33sQ++hsu1qtHZF/Oxua0JSKo5jx9pfb8fVww48xE6jua1tDMWFTa5IQOGkSGwO/b1tvEWPPTYCl2fsIxM36L0DuxtOd6f1nmtvFb/QXgWAdqYnWzt5vMwR7UfYHIyTo448/rTdCSVcK97bccyhz2FSdqFOkGgRwolTJ7/mrZSl7RGkYI/xmScdwyz6Q+2o3gdZuxESDWj/xYsHkRh+uu0ZwYVKww/tYIy/s0AK1w/t2OK32p5GXGUSukng7RWk7H3NfczHfB6rBNja8LlPfDidnFVWNRYLFrr6uLHWt73hDPODz+c7b2A/m/uEcN+gefEMKic4/QvJ9mNsXzQDfT9YoQt9MAf2mOK4Ypy0+6yDDk0HMSD4wGlea2z/SRxBDV9/v/2vn4oHp514BA+ouud9H1g9yfC41GvZ5OZNc+sun3/MWpcBQUAcKRZvBx70LIQEAUSUHuOeQMKgZ669737VERbBlae6RB9heT8ICaJ0qaTg+Ygqm3Nj09J+djY42tj6dq8unNDfuztj4PS1R1UX/fqX81CALBAyOTiXvr92HwxcaAcooD96sSsyfEhyIdm10LWQM7b7YHP3WykCXOxjRevfPBttNh+vJ+iS3d1VMFge9do8sCjWCNzh8B9ccXDP9ghSMN+n//0D1ec+9RHOjcQ0XiiIKum0VcfK10fg5dqHHvQUnrp1rX2vw5NVcc/+179RdcyrzlqQXNsjSMGBStjQD2e8eSGpjRMrm0cQN9u94rmuPi6eK6uF+HvQJv5BQQq2GCDRjuQPNtyjGgIaHH/y69LLKNvSB/PinUQ4HCterQG8zFoAepV9jquskqBY8J//8QnSD/PG8c3PtkpeBKJLkcFlkxMWpFy2ZUFKTIxNUHgpI85GjgsIut0d7sJTJppvLsU9qGR85YufZh8eTqTAhUza39/t3tU/24kLzbeFIjp8n50XjRfL4AKDP95OhcBpMAu9J2XQnpSADxWYz9jLHNFigAsbpvCGW7SWzXuZo793ZaH3pPSVlKWwYP/MroIBVD+hA1C6jwuV1UfbBsDmOem7ypr7dSyMgT5I6bljSzGAluMT2gAAIABJREFUfabYWP3Ln19IXwEXKrVPevrzuA92d7xi8zP26WC/zkJXtBpFxWl7BSmAB4dfYF9FvCQbn2F/AvaEYCM3LrT0nWrZdtA4LmwORzIbGfmFru0RpMDHA4/hSGAc+gTeQxsaDof6J3vJODp44hrWdtXVx8W4OJXsFUe+gEcZ42Wa2JLQvAbNizZAvP4jZAXbGXAwVLM40IY+MR+OX/7I+/6FFZVIGKAwcFur2OBgE7y4EhdsPxL/CO5wITmJwwQe/IjHbJGYLpuasJc5Xjb8jfOx6DazIfpCXx2O/gWSyjdnLvY82rlQDUGg0NzX0nwOkRrm2NdeEDfs3jYwX24vqFlu+1/2shLf1ri64AvzbY01lHBvi/m7jrkt1rU1aLMjjtEVt234peuYbek1aNyABwEKFCvaeq6973WZxWlebWC/OmjUFV9X5zoWgnUgTPLt2l8LbJBsP8DucefOxC/dKAKG0Xsx2l0jrW5bTG80B2jeixYn7G3FO87KxGV5X8n7g+QA98b9be5ttSi/6erUBV3gHOYjlOsAB2TV0VQidSWBv5YPAARJ5SuvuIx+IJz8uMp54Mfh/XV77XXNRTdYN3liyThfRB8OaunfuGkDKwkICheas60u6OLjNnHVVudjQ/5lf7nEkv2r+a6YgW9zdxyU9MH+pgUvIzBa9i7908XVqHUtXZPjzpd7VMcut5PlZizIQntu+P4l3tquI61/anJi7so/58rHUhm++VxbBmpL3EHMvbVgbTtOV1jbjov72uKr7ZhdYW0zf9cxt8W62q5/Z7uvK26vTnptibOxI/NEVxp04bE29OoyXhdF7wno1sNbrqbV1RVfWxsHrYDchjftTOvvBis8mDmzScORJ94a5J4Of3bQHcEjbeEdFHQspGN2piCl7fpLHDZxV663DTXwfPzD/QpS3JtdSInE5w3HP2DZcWV+MHPPD1K6ZnjaYLrbPcNkYtj3C8/WQsCLMLUt1E2+K3lqIRlczC9YNj01OXfFpX9sO3/r+9oyZ1dhbDtua0A73NgV1g5D90FKF2Ttgvd25a02ctB1zK0VQGy1jNd2pvNS8NUWxDb0ajtWm/vmr6WNQdLIbZxT3NcVX9sbB23wtCX37Ezr7warHLM2fCAftT1vLYZvwLhUHmnzXBe91A1fV3+SsdTdAXvbIKVZVUpOL2TcndQF8dEHKVuiQlo924a3l6KP28lt9yBtmwQpW7uS0lXAhzlH5XhtCdaK+h1v6rquqxPWjkvb6rfvCLjqCsNWR0LHAdvyS9d1tR23LbjD5t9R5LVcz/bGQVtcbqv7mjQaWPLfwsmH8cFSh9/atFoqHLvrc1dX5a2pN9rwwVJ4sM24XWjfFYY283cdc1CAh3kWG2cQHAve73FoClpm3Xn1z5dZNW2xUHXp2f72lGiD12GjNSspXemwNWAoYRw0/9bCZRtYu65/EH6b82C/Da62NskqKVPW7rV1KylLWdhiCNtRnJ6u62rDBMOEZmf9fkfAVVcYrm5ct+WXrutqO27b9Q+bv628LqaA28LS9r7tjYO2cG2r+/ogZVthdtcfd2cLUpq8PkzWh33flcLD9GFzvDbzdx1zkM7d8iCl2JfUKKvNepASHyNIWezaWo51mzm60q+8H3s0sP8Eeyn3uda+V3u1GHRdKHgf9F2XtW8LPtxmQcrll/y+1draRj5dBCyiqjZBCuZvg9hWi+lv2qYY6MIDAGRb0LUrDNsUIS0Gb4uDrutqO24LEHlLUzkulX47c5DSFleBry73t7l3IR5YKDvahQe63LslsC707Naevw2Mu/o9g2R28TVrf8Lwa347yGIOaXPMrpn+Jjzl8/H7MLiHfT98zfU7dgR9vJgftdh6y++CR/J6tDcJbUG4r2SHCGTzZ/h+eXKoF3OgNdZw3hoWfHbFe1e6xv1tYF3q2MOe6xqktIU1+GXY/GHb24wLWEs+bPJWc642Pj/nRyWlbZDSBtCuRhkLazMu7msbJHVxmroyehtYu+KgDaPsbPdsK7x2wUNXGLqMvS3u3Va81XbcLmtayIB0cUIWczi6wNLm3m2Bg7ZjdjEIbday2D2DHADRqktv8XAHoosB7+ogt8XrttTzW0qH7fl8G3x1pUF73MqJLa/FgpS2jkpX3Y052z6zUCC/VJq1nbeLzHS5dxhtF6JHU1c0x8ELGbV9vr6hfh6eoF8YeIzUgpTyvhJHbZPNJTwL67W8N66NHAimbrqwzbhdeWCpvDbMvraBFXN3sUldgsoSD8P0QOsgZWZ6qtXG+WGCsCVILxXMIOeniwLqItxk1w617bYBVddx2xuE9ljusq6283cdsz20fSWlC6625b1tldywLEnAOEhpDXJouirOrjhos66u/N1mzKXogrZrK43H4rC3O6lJsFIbtAKhrT7cVnhtq7e2FQ225bpaEWAJN7XhWTmn7R05OKfDcIx5BzlGJTzl712cqC58EPc2adeVlktAfXqkHQ3i8IJ2srgQPKWMNn24CBYWXHsKUuQnEW6vgIRPxmcZpIywkrKQbm/O3RYHAVup62pzU2cJV+2T2F2O1wb+h9NgW/JPG1x158d2NiG7x8NxEDA0g5OmLDfXM/TvHS1IKRcUjLkjBSndmaHdE1ubEbsKTZv5u47ZbuW6q838XcYbZjS7jrW73N+WDs0gJXhjMeMfz5Q/t8Qx6UKTNuvalvzdBda29w4KUhZKJo2MtDMyXYOUtrB2ua8NrZoGcdj424K2Xcfssq5h61nq921gQJAyV023nGK5vV9ML7aD7V4oyYh5Z2Zm5vXXxyTN7PqWBCkL6aJwZJv+xEI6qw2uWiKpdlubcbvw1kL3NvVt0KiJ83g+cJ4DA3P8lykAmI1AwAMVjI37Z2fsHzZCM0jJFZcmPRfSS4vhr7muCELKIKW8Z1sEKV304VJ4oc0zQcf59JFOj3V34Zki3lwUhIhB28CJe5o2iTxS6AXAOgjeZhBazsd2r79cfNFQGNoIVm3gFj2HuL9UKIMYuWT2ciHDAG4LbxfCdlWcw2CM77usq+2YXZRC2/m7jFmurQ3MbenVZqy4pwttu4y7Le7tCmsbfC1lzDbjlusPnih/Sq7zXU1VUBqbUGzbAqdd9dFS+Lst3F3x2mbcGLOEu+koeieGGYY2I8LIwIi0ezlfV33YFgdt7+vCO11loQ22uvJLeyeqzey6p+26usEKp3OmJRDGWHPiF/FeHably7Pj2oShdGqDloN4uiUg6bbFgpQRe1N2OcfWshVbm2e70At4n7K3t+MZvJCarVf2vxL3JXyDgjJ8hs3wsxagzlowiWtsbKQaG7UWLhsfL+dDcY1jUpkgSJmppu3eGXuBX2WBKj7HvxHTHwCj9N1K+7Cl7V5lkNm0O615xYOvYfcvN33YrBANe2Zbfb9QEmApemVuzmjcJm/FTj7Ru8slfpI+AJ+EOwDajbgxau5rCh5trmcZXuZ48S8vkMIDk2JgB0nOhQM3YsQaGSOTggnVgwhRwC31TVX8EG+oLB0V3hbn2Nk8Pt9yj8QRkc/MTBvDI9uijAwZ3pTK8vhnAkMjSkHEADrHO0f+GSbeA0ThHgKC8haEyJHuQjljxAI0YsaitIc14V4/tQL3pKgaQ89Yrmlmqpox5TBjRMABfCOGI8ALIszOWY+sU5WClHAqISd8hkv2e5IR1FMLhRAXhR73MRqdqwCrqSJ+FvAKRuGVPx03GDM7is3SfaOH2MeMeYl/m480IB6k9Epc1xnW6dHgYq454XQhGASofKgSLtCOBI69e7qDKDNYCJ/oT+icrnVl3ABo3p9JdCojFycqFXjwdlNAFxXXhPRE8WFA8HtyyEAU1XES99TWyWejPYAMoTGLIYVG8RcMEX6qrSNfVEWWEaOMU1a0GTLJGjOsDqT9AN8zO4qxJGjEH5QSDJ1OgAGvapwwcOBd0tLGj+9KfQEnWc6EEzyhIH4x+lP+bS1ck6/B2b+JcHAIDaN/UdyePyOCTA+EV+9UwXJpnzEX/sVa7fukh7gYIrh+USxsblsLooRQW5LTfKtIV9DP5yYoQTeB53iz4XD7tOHYdAKzmfZPNA7D4FltsgZgj/Elk9QtBbThMC5fPlqNjo4SX/VghUoqPQM6T8N5IU5AAzg2GncEdC0OOeHUsX7nhSaNiIEEY2Zg8qy+nP9IgcbB2iXsko/nNkH6eMB4TgbiFqsJMII8LtLyA22TMHVi2ws6DjisR4vgKRipZLCDlxLI9ovbjzSZfUTeq80PGsQ45U/pNAaUVAiS1dABoWNjTVqN3bt8xvlVjmfom3hO/OoOnAUpmAO6gJlT2A1fx3Jk2G3Jxk2VKRXqF45FG5ZtS/ga8XPafAHoEdjf5fYcfA7yY6CPS4l1aW10spN+Ew4CDk1pTveK8bSWUtcTR7S/9tOd9OX0NyQvtLfuoAeMmfIDFE+S6ZJJXQbdXgWqKbPmT0h+sa6oSM1vS5IN1trDTgNXm9dvlC004Igr80VG4YuMjCa/BPDjWQQWibeh3+BXTE1XeFv4pP2EH4ZrzaqV1Sr7hyAEz+BZ+Dbwc4CvKftsamKympicNCTZXIavsdExOxnL/tlPzBdyXQZdY2Pj1A9hv3EPtJFsuGw7bQucW/s96Sb4gbjPgScvOm/HT3kqjsfQTbRbIdPyY0K+k9p22ZadcLjtPuAPOjHkAzYMd2CMWaNZkqvEDFnXyH5C5OHvSY44tP2bRh7AZST4a7AmkczOmK6fmjZ/Ez4ydT0CUlUlRgEj/HMaKwUFKYHkdpc2N6tVDxwUeCb9Qlsaflf2hfCGeeMql1fZjWSbRWH9H9Mb7yb+ML7ZPDFhvGVBLGQR4gu7LuyLB4QOp4eoh7VgDMg78Ta5cf3cb87/kpgOTGoMB2UTZRk4C2SA0fFqbsWaasWKFdWKleNmyMboSMDRBuNi4FDAs/bxrHnJQCiZzI0WkIkLygQO/rQ5+OObTGAmpqtpm3di0+ZqYuPmasp+pyDZmGMrV1CxjNq8o2tW0YCOwIga8CAVnSE30FgY5oBwLocXAyMKATMCY01jY/asjbMccFDAbL6piWrK/jdugjUC4XEBWGaMOWL3A1GkI4SUCtf+2TzT9uy6q67kv80bN1Xjo8uq1atXVXusWV2tMpgnp0dMyOTIJcXtQReEeNwIP2I4ZIoTOgE45loEawRny2yttoBqYvNEtWFqc7VxbqoC02AtoAEyHXQOoEiJZxEW6w9jO8+SJi5z7oCDwUhJFoA4Aw1sXuB7FHgDH4CdPIgKxio4NjiNXAf1OmkA0BDRsmTHQEogRrB5DVGjLrUpywUeQQAIJDoro2VFzo/h3wQWdIWixt9jwCfoBZ5MjoDP03RwXDDDM5iDsBiIhn0GggpqIVBSAvhfWi/QFEZ4oFZxdUi47SnnecmylEj2ZgsDFt+XYyav1u4rnqWSdQNPeXLnAL9DqdI4QNnb31MG+6w7ZzNzZoiMrpOTm80YTZjim0pKAhRaPjlLPI7b8YsrTObGIQ801B5AO28iNABPYxzIEHgF8gFOnJs1mk3bHMavk6ag5mZAr1HyK8aFfMKY5UAbIgBjurzaNG0yYLRbuRLGcZXR05IihV5xS2FyaPCAXkarKdMx4BPSyx3gMI6hfGeMJ0aX21hcB+isTCH4EMEYrmkkGuzfCvhnnv3FGpFBRCICmUoYY67LfkLnjds6yoQNnR44OuAP0keB2YjpheW2fgVqcrogo+EkhaOIv8cg7xQzd/ZAeugRxz2+o0wajy6H7jGdCUMAIwYyY3zIDJ088qDJoTkeGzebIwH+QBBiGdLx0N/Bb558Am1GjfbA/0rTlRyURl5yhvXI4ZipNpmR3jw5VU3Y/PiH76FHV5r+Aw0jGMX6YD+WeQKHuo20yk4M7mG2FnSMOSJpRgdyvsOmx/V5Smj4eugYU1/L8MEmYD7wDI28O4IlDOEAjtmQRi3ikmMXcIA4yDDDBkm2S10WyJz/cw60mDVj7Ym2uGN60oz4pBxyrd2DeU+aBS4YCDoOIohn4AdZpx9jNDe9nZIGZEUk/mbkeJqsrwZ/GL4mC5pBdqAnmGBjBlw0gS7E7+C1FZBb41/AMDUF/THJ30FH2lTjqSmbYxpybz/BuyHfcp7cWTN9MgK5LpzneVlT2otl1boN62yeCc67cuWqarU9Nw4/wGAhTWDTbb3wWUbMduBvwDYBp9n+YV2CQ/JCZ86eXbXX3jW+VELUcWVjQJawPlwrV60QXkxWYK9ht0dXwG6raiC7Cw6E5svBJ5MZpR5w64HPRyC3oAPsFBFt6wDswCmeYbLWggaj13Kzn2HKwoSBT+SwKqjgP9NJmy67jLOAN0YRLBiuocNBO/hs1L0GN2Rso+GVOgi+jQ0Mvlm3fn21bt36aoP5MrOmO7C+fQxXe+6xJ/EB+MAnkGnxwqzpw4lq4/pN1YZNG7iUcfML91izptrrGnsJd9BFqPIYTyCJwaDRPluzZk/yQClXgI28ZJ9PGX9u3LTJ6LjZ7pn2IMvsh3/PZLMhHvgELqinmaixe52HuS77G7AjAMO9oX+pjwxerAO8Rrl3PxV0juQMcD06Dh5QkALbuNL+HiPstv5N4hXYBzmJrgvcNkPnk3cQtJlOHLWfy22dU3bbepP58NdCjuiQF6qDDjx0xtQm8uUGoxHos3kzaGTyZ3QGbaGnSV8gGD489DH5CXJtut6+Az9A/2acy6Vgos/xR5mxf/K7jF5uP1avXi2ZBY1ge9zuSQYwjnQTdZTRY5XRHvjesGF9dcmll1TrDW7yB/ze8VHTEeBtg2vFyiR77jWRZwArbMg4Yg2DfdmGK6+Y+/KH3kldO2PCjmitzGhRYDjoaLVqxWoDEguGQ+hRDpzjURhe/c1x7D+oT8hogzFlJPBcXGF0IWRQMEAIHJ1ZgwEM7UlYIhZSzaFtvIge5ThFBlHZBRpYBClQJoYofCj4waxTCpbgeJrxQvYAWQA6uvY/EBvwIQDR5VUcKCQ4FFB4JBQUliHO2Hzzpo1knI1GDAo2o1sVSJaNQJkiUoRLp4tZCBDYKlKjRizgBAubszVLkec1ycHRPzihICyUMIRSGQsJtI79cwZxTQZGnzMgZtzgcDWACfODXl6ZUnZqGR1WzEHBN8RTsI0P8DsDPhhWF2auAYoQQZIbfowvpSwHI7KwywxnyVFBaZiZX6xVyk7PGc8lB0zONenmyjiyKXgoZVQQoLpDiM8xlvCaHWDAC5oz2MV8rrwZZHKKyP5DE5jjQRoDPiisnGvPTkzOQE7LPrl74jxFhyErGWYWbb3TxtfkWXdMKdhQkqEY3JkEbzLYB5zAq98PHEXljfcYT200JRWBLGBnYOtVDeakiFpyQbViMl6zJXmEYZ80PmKQZ7+Xsj5ncgzajthPBMBh3APvyek3vphAVgfKDE6OGRLMpXBZ8ot56CDBwTZ5g/KHkwEZCyMgJypXdDAKsp1QguAv8imD0uzMhjJbbcaCuoZBijueDA7knDITA1lGsLtxknohK1WlsXAfDA4uVASAE+g/6gDGztIdKVC2wSE/nJcVFWSNJEOUXY6k3BCccGU07XcoWg9WKeeeMQyDFGvC04BTWbpctWLQ4U4JeAABBubZZLqndMjCwQ2HFroBcgHdHThnkOjGHvSEswM+CD0IR24cQaIZENBAGXLoAuBMkGLtDIDoYCGxpYQTcAD60imCLqU+k14YWyHnNOkHZtQ99o4KFWkww4AnnmNwgjGKTAuTHAxyqEEIk/hdOkJ/Ac/xWdwxzwWIx9LzHNHWmWjCAElrIM/Yf8RbSlhBTqgbPatLu8+HS6oqgF5hDq6CXjnU0E10oKhvVBGmvgd+oTu9Ml/r4VZ+wnVNZHRjb4AFOuHNOh5AJ9AGc60A3FhfSgApMMJ6xuF8MSknGw69BfnFeJAbyCRpj889KUB7CztkeJD+0TPRliIdB70PPYEk4Ui1csyShOBLBir6pzmDnqLeJnO8IY+YG7aOPgdtXiQ6wXtKHsyCj4h34EEOU/CoKj/iH7DvOCrFnnxSYi8HhRgFDjX+0UENPLsdJqzhoHGPF5UI7Tn8gjIoj4AyTDDIQjIb+BwDDiPkD4kP80MYGDndg2aj8GnE1PJdQD0XGiaKaF+85Qr22mkfFapkF2GzWRFQ5tpWp0oacObJkAhukwyHY2trJP/YXMAPxmByGuMYnuAMI1ghrQwd8I0g//RNwGuuy2oymZIHSsaAVvQRaXuMl4yPMO606RWMIExneebkAy4knMDLcRRyBHvSbZHEsnFIRwQ9SrRHoI+JYm2ACfOnRiXDLR1+yDtsLgJaC6RAO+218uQWyWUwgMdgT2FHkdTwAEXybXTfMClbBb8YsJj8MVHuAZFa7Mx+Yo6N64zPoSssWIwAggGI7DSTJvYcYAU/4F48S6xRR0l+lMCFsCD5IF1MNyrxnRLktMkI+lz3uqJ1j0L+FvUs2V/JuNDlGEvFCNFww8b11HV4Zgw+L2wKBQF+isFDX6hMYIsGgJc+Lvzvjeuumvv6Zz4sQ+DOYaG5SYRN5hTNGcFGp8xp9cUCQbwAqDNXOBRoCzMK8Wvmob30CGTVSoAG68ZZI7LNy0wuDIA7JXKK3XmgUTRFZ3Awi50EVTBH5lIOlhEFkeuea4hUMiqcJa8QkeEhrIjwwVzWXgbxR+TGaJMeHgyTnHll/STcMCMw8KvM4I4ZA0IwJyY2VZs2bDQ8WXYac7gDCKeHDiDtoisZV450XsAknplkdtOVPaaPDCidHXtGyt6cQcs0j5pGVnZHwRNhdcPHkiydRHMsltn66AR4SRJq2nEXGQXhWgZJ33nWEHNB6GztK82xjCBF8yh4yQ6Z1peCIHfW4cwhIykDDoddWY3IlkZfIo02nD4aZBgqb4UDmyNSpSwIf3zGhUx49cvXKIdbwoML+IADD/5ExQkvaGJpFAEcnUxlaHG75TloxMqydHJVaNSNj7wEPWHVLKp4/V9K1OnMLI1XY+SAI5On4BmZuFDeke2m0qEBUJA9hiDbsxXhVIPfFeDad7YWVA9wKciVEUEQS4XpJfJQMOMWJSCwUaZU2Xv+c2OuvKXWsckyofKAsiJKARYMtTuWwNg0ShnM7EoysMFSeBBSGKyABrjX+JuVFAQpXulh5dbXznYlOKhwhtEry3EEmUrmImhs0sSzyw3+URpMKGpltCPAZPBE7WuGxe5ZNWoOdzKaSMZYcOaFrnAK5WSZMUZFBXgFz0LhM9hSCRsZqZXmvMO4TaJFwu5n5ZK4yXwXzmY45PId3GF3lhWu8IzWFuuFvCuA9hvtB+Ci80RHQIEAeGOjt2FEe4o40elrP2HAVphOQ0Zq5arViWfosJiswaGDTOIfM29or3GDhmeYCUXlwXQkaEO+gYPDNgdz4kArTzAAR8xWM4srY0uaeTC3zPSp6CkD5/ED5SO3HwLnlulHe4ALl1oGJYmBs2QgC1uRbE+pF/CkFJUHArBVskfR1hEyrsBHumazyTda2dg2wQHYMOjBqJx4BaWGByTVyPKuDAJayEB4qHY/5B42Blli4tyDePANKvtqzREvqV0jqumqRNAWgj+NFpRxrwAobtSiw4Esx6L5hz0wvAoeGAXBq9YMOTFwLFOGFHbA7mMAC93kAVM4FeGAq9of8Lm9Iz09UPAqDvQS5Ajh95gHI9AleDaSbQr0nfdtjMmpSGCIgEqUiAZBT7ZAAxfjChgjERTyi/XRaQOukSCz30dMhuTMav4ULMG22JpD1tjyxCDN5dD5Si3j9VY1VHxHLHlLeUcCjQgOuHO2mcHnmD2PpK7Bq2q0ghTASOkF7mCXjF42qrfduo/lwVIkw8K2I4E/ssKqG07XpOPd/4iqVmgU1M5YfXceQntmCgahM1BFN36YAX69UpHaRZ3PUkIVtpHJZejU4LGYSbyQ5NZpN236QzIkPyxayfB1ChI82GWh0PmJesflMfEEpAMyBN2TEkbuF9n90F8RNEcSXbyiCgOTm3CWCzLTNjnfkHfg8LPSgiSv6An+QBUbiW7YCcCAKgGDJCZq4eMhWHEZ8QoqHzfenr7S2vNIHyWz4MCjRY6BJBK3nlifntzErh1cfrvLgneV0PZILmaND2cZBGSNGfuE1BLmST+3m9Ir4lMG8q6r07YP94+YZHB/iUmIwjhFYjXkkve5TxB4ZzCGIDRw4XICv1fTKwmUaAucMLHretraNWxPyk9kfByQaFMAEjdbm8AmqxhsstaC6avWyyEICxOERcSIDB2NBiImy5qNriIyuQhmNu13lF0jCvNnN8Dhg9PhGWREqlQeNJDZUZg0B2pm03pXzlKC7odICIoMPqLXsT2s3cBdpZS5YtY3jtJTVsgmqUZMysfGV9KR0lnf3sPN/nxlzXDBmQduVqMUxWoKnFfLvlomASW4qc3WPmb/NsPob15vhFV2kYrN0jLR1wrG9CI4cYnWCETSyhRJeUVPYZlFhqFfsQwOgPAjh10GiJG2ZzwRBU/bxscpz1DCaWOQx4x7OJbU/FwXnSrkbJIiRiCkUuIqK/WR5nYvxtlopd0JWytKsZusNQ9tHzCybBPy9hwOAwfRG6VirxHbUqD47QplxAwXDOUqUxhuqMG8Uh5wzKXQw5ADfCjwcHbYJoKMGkucCKCQBQsDoSXieZQN0TYI3oBSJh7gHLuQ2rfERLZKbmcwPhQpKwfqC52YRRlajrUUp2cQmUlU1lLZd7UaMBNo9F2B4Nn+icd0j9rWNBYclsAjMu9S0IKKAQo2MqYqnHCEaxJBCkr+UJrGi2mvCOCy7yDwbDFkdcTW7/tOYpM0DautZ90VVyoApWxR0ylmgWwz0aCMPLPyI8iWSe4isKEzB3wbTHQYYPR5rwIvKmE6NXIalaFTJpn7G6ysPT2N1iV9R94sHFrcg2orcLbBWhOAizXWXrnH6j0sU4XAQtk9tAqg5I0MP/C53/7XI/yRhFHK7RyAAAAV8klEQVRFUjKm4AhGFiV7BHTSUxiMcoVsmn0PGq60/uzV1s6AKsMUDBmcN1e4ZTAFuEPWwcPTm1HRAz4xXxgQyZ3iFAU5oeilGiN8hN4x/uZ+PVS0AR8SB6MW/KniUxoNtoNQxi2riaq3Ze+RVFmxcnUK9KMCi4AQOEI2V8ZYVV/IFmXZ4GKgxr139i8ya+R3k2/TMUgaRTVODjcCcs9muiNM+bQ2BTBzBGNUETROnklz5wySGy23DA8iygheKKojcupVyYiqcwoM/FnaNPudSR77JRIGyrjmIEaqUM7nevDhjFfZmSgRbZRgyO0h4Bu0MlAfEW8gpoKwcMyciSnzwCkzz2iR9MTEKtP9K/APQQICOwq9eCXZYcgLnaacdY8gZ9RkQM6NgkO2ffhP9XW7UofjT9kmIsVidrEqzsq88ZTfrwrcuFq4mFhSwCQHPbc1ybZhzCKxIEQQsUzq0NlSUDZnPGQLCZRQL0VCRklP7ySg4wsdLV3PTDU0dTj+pK3gBw+N2JrRWsOxGPCpZVLOJtagSh8rQKZfWPFFQpPrVUZZCR90Vnt1gvda0gbyBR4if2pOBIYitdt2Zs3l2zTb16K6AnjhD8zCCXXniw465A+JPywWTjoa98kCyEivcDuX93lRvkAD+Fpcv4LTcfN3IjjRHjHWMBKexN1yBBmAexAAXqBMMDGGrL/paer7Ed4XfFraRYyVkwLBX0RUqj6n6pWiEek5wxd1MLrL+bfziTvB4kfRJADP7Y7e1uU+KtcDNFDevEMEz7kcJwYH3bzaqkREJItkE+VfSI+KuOI58gESQ9B9dMx1Ay0uaIlWsgm126nlfFm1ZrXaA+mLIkBBUi9V3JToxsOzSDRcaXoDetR1NdfNzhvJDbY+bDI9AXs3Cj86uhyKgkDdXhhsK9ewnZLdR+7MqT4Le+y+t/tV0otUBr5wD6xloGT/Aa3p+QnYy+iEcb4JdMluZb3ADiUPWMmX6GpC15UnlDAdEq2UU3YEiBciSKGMFwk6ksyM2tzk5quoPNhiwIBBk9JIGDEmLFCZQW+cSSeVCUdVlYMM6xmJcObnZrApRWW0ZDw4W2Kd9AtbThg4yJmMzEwo0twSYoqKfoicqDKyp7KEwvC9A/iNEW9IMZwumxGOupDia8AfVp1AoLLM2xP0jJQlxoMyCFiU8UYvIBzNoK3gAf7YroZAwe5btsyPcHQnjsaTBsMZw0tcUizGYF6hCrxD4BMP+WT0vSmQOaAIREZZO36G78jvYRio8bOiF+G0CDpsyG7IK9BXnhFdhh5gKALCac9bhWbO1jhl/Zg00FCmdm/qHzRYI5M260BERos90yGUNHriI9y2wk8HieyzskXCGe8j36E1jtoeUY4LI3jUcE9lrwAhaWZk98lXyNgZb6Htho69SwUDJs8lWHseWuTiCmeKfOMONQMs+33cxmUjn+ME8yl4ckUKPNEB1mjMVuKf7yMS3jVXtJYxkLRn0H4EXpSzAuL4KTvAA0vB4iHixoNnrgEBF1vHlDEk2e3zDSPmnCFOgBNja0QwKsMp5aX6pf1PAuI8LOWZWhaYeZEh074OBDWYnpbGlyJjIEkL1WijmyyNoOoib9zXDUUEflOmkmjCT9usi2ZR0JNtZOHUumOkSp4MIQJw7e0yRxx0dcLBSUc7G7KAzOwBdihu1w2AD3tSWO1y+shwmsza2COGx2hzKwMpOoGW7UKAAlxCO8RxD5x6gG4rVIR4EnxSOPXJmWUiJ/NEHi6NwPUAZnzCjFg5f1gM5yfKA/Q46EX9BfkVjEn3uU6Je8sWR97vATC5iI6BtyS56NAJHYE+UBsN+cnHJNSu6oIfRgCP0yh+SN24/gT7OSOUh4eUj0TCh8MTjszH2otX4pCWwlWa6AuYFdjkvRcNkPjnnNk69FZLqL3kBv0ThpYOK/QgHBUEt1Jiuc3GceFZV/EGHCGrTrC/X04pbBaqKyOWwFjGBJndyGAWciAdx2cdl4BpFsk6Vra8MmAyzRY+3ItsretFOWQlY4oBsJ9rPqtKNpNNI36Nx2kXoNNQlYM9p1eo9VK+JOu1k8Boi7PNpNMBfEGmzXbMplPDPAPu+iNC8kgaibZq66VmYeJEjC4+8LXZRwhT0wEcwRyJyZwLgmY6pSaTfQA+pi2YoO5xhk0b2V2hY68ntSbVnxxLdoOAr5INcTuKtEegDFrDulFYVUTSBFQmn+Eflqv9ruAzPk2bF6CKnvrTP3S+AA0YsnhiSXhyu8blBj9qLDmCrjQKejGIwOes5Km9ndUzfybGle3QmFov/tKc9CEZVMoGxPc+iPDqASl9K8KiqqXESLhRoJvJ5JDXP8ADgR+qJ7XNpwsoKWkdqKNIy54Sp7RFGR+oTAUe4BOUiY+AKRIsrmBEFUu4S+7sXzhgZJLQc04T4sb9KU+2qxovXgIu0MbLLQr2LJPn4HGvRLAYAIo7PwSaltn+T06W5M9x4fqZa3Z6ag+cJ+yDo4CGQB7l1v+AzU9Ilb9aXkkWqQuUuKcORxICLaRBgyANfjImd1zF5z5n+B1BLgtSzPRZ5ohM4uWdyALSoMEYIRuBqA9Biker5ImCsPEMmRP9O1x40QbhghqLC7hH3AcLgJpMBecYF/4LGoTSCqxJOYnpKCZYvP2Cfs6M1xDY7LQGL6eTiSLiFf40oRs9yZFlTe0hOWaKxhkoMdMGvEhQ45Qj4C0pBwyH9XNSCYTWoYmCAXVijE9e4Ja4QVbTYDAdx3HDIAceOZrzFVviILAeEEiNxKI0Fj9zhao+3pjXsYY5PGMTeNVRcn7qC0rBroyiOhb9zBoBWXT9JjR51sDXpXYv4QPrh6HR/+tKgXNTGTneqUSl/LRXw9WxtwzFpnethk8TBgbeXu7M2dlAmMWqqG4U+k041+Oysx4Y2+/jDM7JIKVK1HygK3+EixT4BrzCSxhJBWlOcVdWUvxCnAx8zoYl4+9BN5WRY1FmI8/tmK+mlmtjbNrLhfDKwY/EePD6nFX7hG8YDV+4IyLaMch79hVOwUqtm7YMTwNQdvLK0Z5oASwdDiE04QUkddgDHxyDmVk5gXGleZgJ1ujcvxKK3Z6JlrFMbzkHy9iwrsQLlXTwRWh4IlprZnuDOYjcv0JsSu7xGZ6Lqmoy0A23m6T0sRLwDidZi+yW8ZqMXwlL+WDgJ8EonuP/gSo63oFa8VXSQfiYjrMH+/lGp7E/WM5hv6NCglZXJaMwiDuHNDqhEoXFKZtP9t71vf8UHoQM524c7JSctcYSkx3x1enQk0EXP/bvXHSkU+XcOGrSk5zbRZwJGj4unVET3IRf6SnsJnTXzNehsdMETsdkO2pgZdjT6kEr6uxcJQ8nLlq8wu4FHy83hz4FRTY518fkhxz2sCHIvtYTOu78Oi/W0egfJqNR8AAcY5c7fIrOCOkJ3YPKKLnLZVhsLHkNvzwcN/GDcJYcFLsX1cdpbwvVM7pP7JJhwTiyKWLvVEURATVuMKM9NwKH2ukcGfxy3Wrts3HAr9QDzhexBoxKvauniGMu2tthqIexVMcFoch8x/0hTmOMkxxYDqHKWthXi+vTaZ4xl/S8wwA4fN1TpmjnoGwLOMt1xZiAZAzvqgmZK3ApjGX+le7S+nFFUKi/sj0TBnKwGQ/E0Ml0pbHgc2ARGNQH51qEpwhW+UcE9I6X2M9FCKjDCp6gUtA4KclRjsmlBPGJqFia5m7CwG/FW0HwtD+VH0nWuALacvxWr0gxcZoIod85lyc0yLMhYxnV/gS5mXQNuCUKWnfgSqc2ai3pkAWnY+CoFjzZfUiwSW9l+Qt6qdYb3+Gn7GuAmWbPYihYIH0IPH3UqOAlGXI8kffok8nGU1cFXmJdGI06Rr5xtNwmuYu5C/4lXAhSpqzvLeYK4MmwhdGRe4qIXUIu5VGuO5BgAMieFVkF3ByOsKPKb09IdaVFpESGBgRyOAALDoDK2IpxfCDnU/cQpThdqcmxEUHSJldxIRWgfmo1WpeTzIVIJ89YPy1a1szRVfbPAw37XAmmrFwEQ+RuBWeAnoTdZ8V36pX0dUSFxZki7UuA4MJhUjllXpASpEj6iPsighFdWMub/Pegodg6K7NMXMeJGzBksQFuGFcpYCkHwEa9wHGUCclckXHMNRcOnnAvSDIMAWD9OZFNvBkZtcSHHEZ/QUSg1DSyeC9l25KmdSTbrFG4Sihq/JL1Osat4zVwVRparoWGr66k6/dkVae1FzIV/OF8KuRIjWX3HTyYjVucXpUzXggmlPMXZl15ObqdbEIZyGX90lSu4O2SAYIuaRQLPqIc7HgiTL7hWBQTVVFF0RbKQSsMJOt7ykgYFi2XV83mEklQdIEv1W9ykKJggqe8YF7wpN0ceisMQeIzl2XAingGhyKo79iVHDWET5ZgkYawhpFYgODEiikKiSO16pRdnU9vPZf/KyZw5yhrIsKTzK/DvMzbbAKzbJOoT0E403OuY0v6ZtPosoKKKvRLOHOUHfxDS4PLqFsVhG4KEjJWMx4Kfe8VzeTY1LBW/OG6Y1kEtQvd55+7es93FfqGcDRwkbDs5Al0BJOF7Rn14K6mDgvdkib08WuOGCdxHUQBC77IuqAEK7s7+jTacVOBskHQUl+L7tLtNZjspug0qAmP6wLtZQSYocdyxj71kXNPqcbV8M6lvqbS+Qu+KBMQeq505ly+WVXNHBMjl9lTrQu2JLR3rK7k1vhMVW2RJ/Nq7YmogFFzR3JMdEo20pNe8RxzYRmrxERykhNmdEOSL2GLeI3PGESGHxXPOclclSWlX6BZ/sVyQOD+SV2l+LxaM7CCCnzc0lA/WfvW2CQHAmlPm30f7W+iQLByuUL5OVqn9AL8NdHLfZkCb81fBYIEtdRNSYNIZdu4qOYUupj31+3jgtMk++786xgI/SwyZWSEf4CPy1MHBSoSArnq7iQuns++SJzuFSLStFsxIy2K61Jh0rESD8bCAs8l59lndfpmxsCeLySDsv2RfqbeJb3Eq3zenHQMv3iQ4nKV/PFM+0QM8ECiKXSc5J6oAw8nYCW7bJGHz2zfs/pLINxTo++brwgk1e5lvW/K9EgMy9JqesSeRpNBEGmezJTIo1MQk8cI5LwGBOi2kjvE/jqDgd2nLKVLRcQpOXQcrNUnqb2geHBuklAZpznrmKk5YU6QzCioaiIbrLIuG1UCvnBwRF3Ch4IPWhaS4+TmWSwWohfBi5yiIvZ3B4wcKRT6QAkeV7AKQvI9ZakMWZjxHO0U5CwpqzlQzBpk66l4bAzO43MGPMoiOKJ83dQn/AxKGpudpWBi0304HmJIX439jtWP6dbEM/mXGFyfgOY64FBzp0oR58RHTTOQlVUhA05vtV6xpxd9oV7CzsmdrJxCPsir6GZUgnLg5b4zeWsm22/xBwwaDV6GM8ZGf/6gKxmAmA9rdRkqYcidE9nZpGT4nKQjRMezQ3GMZbT96Yw58WjwKasqwciFzU68OQDghBZXpJFVVLrVeYYyzD8EIGhr98cJKc3MT3OaaUMujksWfM53gVsfVpUcU8ZGL/EGF1i/VLZMveToC+bcRLrfyiKEOzVsbVMbAlqkwkGs0TOCTVYQsX8oDKiPh3Eza9X+0E6PhsxnFCUHi/cg7rFoKTJOlDtvOaCMIcsLPoPjP16bMPeJ0yBpoXFKDGKPGIefNxg9HLzoFy7dgfiuTGAR1lnD1zwlU5dtLdxxVAc306z8HmCX3mG6y7ObNTNW8zXmezCut0rm4LJD1eCL4J2gh809hYCdCYYMepzwheelC8CnkvfmsrKs5C+5yZtZtswHgZtIuASqQteIftItcViJnNJiDBeU7GxoeRyjsfA4Oj0Fzc4DEbQAjrD9M4jYfZ7s/EteiDZUMen8y1ENmc+8oslLNrPGDztMxRh8sEqsMcmcHajD9p1ARuiVZIBFSP7X9Hwq5xBndSUeySzy1XQR6Ehxa16My24KXQpSHAdYr9+iReV1yeEDPvxB6p0coNNxT0kKHcuPDoNgTS7H9VU5NvA4ZkEKfA4hsTAUkXp2ngUWZlj1GXA5r2qJeks8dEJUqrhHBftvsGAbI/aEAK78rrdyPdkpj72z7DKB70B+EAwCu9mi53ukvNXIEa9glv8c99iH5HYG+60G8V+sJ/2UUOTJB+HC4VKXQL4/HouxytB6mTkFYZfFFyUtwBiiZHAKpdNJVvJ+kkeXS1bCA0YnnI5Gl4wlnUDGywIT/lbiFbdh+Js8CN1VOkWOW+Am/BTluZW8zKo3e7GJkZwGOnJbNiX2SjfRG8lqo1ytepgOLcBemtRqJsmlrfMrbFut1cv9FFVS7IQqISUyLG68HVqSAZud/FQGLpjIcTZz54RIQOmV8u7RUQKjocqdM2BsI3saslpGvMK7P4u9Hhyv0MAuqKU2JBuNeeRoQBXinRwTMRKqIO6YkwF9PSjRunfodJIy5Mb7vPFPpz1A6WqtcSwpGFktI3EqmCMB/Ju4IosCn05tPaWqyTijUURmwYOLJpM0/2awVzABVXOZ0a1ptMLRzNzPPUcszTnKmWWAFKAtDcrN+7y58RcOHo2cHCPQw7ZzJvHNEhmaNXsijLtgaGpXwS+kYQgvdJF4r6SsDEEoKQwELeCfQbgKwQ8h1rqcDgiAazhxRdbQNOBXnD0UjkqSmSQrzqFU8urpJrt6+0J2SMAM2eiHMU6tVo7zOCChzDoxTwenJ+0T8I1pSeB9/TS02SAm/CTxEW3p8ILOk1Aw7gAlzS16EWeBR8hkaZUJKxyF8OpCKD0P6HxXKv9B/DvtAhin14RCTtkYh42tZkKraFbSiB4DcKt1sQo64haB9PVwzckrOER49IpH1YcrKDJI2QkS76GVss4vzhQaKRtM4teB9UU3gzXhNr70ccp1+brjPmWsbQrITOjRWAP52YMc6AD2e6sdRScVij9DdsqsF/WhPStjkoUhnA0ZqGxdR2bhdtarSUJ8g7qeEZ9H8+Cx0kvI5KjfTpvToHWqEsatzYmdFsVI87Rr6MRkR9BWjD9gAwruoKy6bwPce6k+DgKpL1oOV03WZXDmoSA7PaJLoo8biqB1PKjqRHboaD+dovgR++SSo5KmxGl4ehlzXOFwRIU5ObFkcPEw0VLoX32VE0lpX57DlJIB81Yq/yG1d/v4828L/tQJb1LhLk/EX8CfV829hMqKOsHmMaDGYZBSiCZugz2PYZNOc2qihaq4EuakXgrmyFDRR23Ic4mTSdMFqfuVS2NTfH0el322bKee3MQBRUQUy8VpnoUKcXkivFSHPr7DllWN49p1u5AknYnKtALRunwnkbWBybv8v/5Xor8MUAiG+5dylXI2UPqnEaR40gjPjRjPJlS7vUz22/lQwXWef5Cc1RAc7zNx/DTVT/3eepBCeSvkWD6rMCpd6IpkPgvyHsouns/F+WJ9Tk+wew0I/2MQoK6XcAdgE/8VvOI4SnYCtHUoKVbFPPN+j4F8jDZByowdOJIOiMIyFRH5yWLeRAvyA2ctghTA+P8BXbDjcJSHc/YAAAAASUVORK5CYII=;" vertex="1" parent="1">
          <mxGeometry x="-730" y="430" width="485.4" height="60" as="geometry" />
        </mxCell>
        <mxCell id="l_KMotrVdlq0wGStUdk4-13" value="" style="shape=image;verticalLabelPosition=bottom;labelBackgroundColor=default;verticalAlign=top;aspect=fixed;imageAspect=0;image=data:image/png,iVBORw0KGgoAAAANSUhEUgAAAsUAAAAsCAYAAACNH8V7AAAgAElEQVR4Xu1dB4A1VXW+r2z9f0ARbGCNsWuMhkSNsfcWe+w9ggIK0qSIgKgUGxaMGnuNhYjBFruxR6JiARQFlaJSBP6yu69tzvedc+7cmX1vd2YL7PLP/Cxvd+bOveee+p1z78xrnPXlz8z3et3Q6XTDYDAIzUYjNJrNgKPX74dGqx3GxjeH8YmJMD45EVrtVmg1WyHgP/lsyo+3H7QaYSD/+v1BmJd/zUYztFqtMNZuhyD9DuR8f9APvV4vNOa6Yb7bC4NOL3Q7ndCbkx/8LTRIp6E13g6tsbHQHJMx2mOhLeM2W032OT8/L2P0ta0cGKM91g7tlrSTe+SCXJd+u12OhetN9CW0zsv4ndm50Ol1QGmYmBiXe8Z5jQdolvFaMm+luS/0yJzbaNcKA+lz29arw5YtV4eZrVtDU3oZE1onx8c5z0GQn3m5b144IXTKf3J7Q/kgbdqYi9DaaEhfPeG3DIn5zMs44E1Tzjc5V1zvh7m5uTDbnQ1zch3jj8k82kIb+sOBe0FnsyEf7E1+SQ6RJk81hacNmVtTGkJeDbmnDx4InTg/L59dyEB0AbwjnTJGA+PoENQNylzkgH7lNOVMtkkfDRIBHYDs0UK4I7IYyLxIJ9lrdMs56IMQQZ5zALkP5yAz8EKExfmktKMvyJ7TlnmMC8+pJ8ITji9HX/jaH8yTE+m95Bd0BvxWonkdOtGHvOQeHOQR6Zce5BRa476BspL/w6fPGdxgQ/Yvc5D+B9IY9PAf+8JFOe99UTdAI64rb10ubk/s38eUdt0udFZ4a/YJ3VT+ih6Br8Z/jNPo670gazDf572dziw/YRfKW7lFZyLyFjsX/RqnHos9QAchF8hE5jQvffRlnK6M2e3OhZ7YbB/9CO9EvWlzg77YWwfXuqGL7ptjtAn4jjHYlPTpnDK1JW86EAlkKWNPSlvYH3lg8qQMlOHsBzpL+xZdjXplslSeK909IQK2ovMQvZA5qK00Q9v0sAfdFLobMq/IV+mfOgib5A/mhjHlfpEA7QA+BXZEO1A7Jz/RP/wUfJj4ywZ0kwYo94AOzMkb2z24H74LNEMPZYJUMPC7L3R05Qf9wm805Vpvy5YwOzNDnw0+uO5AR0kjbhca5oVpPbEFHC2RA2QM/wieU3fwA13BfIT38O/TU1NhXPyh8qun9kKegmy15a7woiN+G76pK/ImPyG7qQnxgzJn1xv4vvFJ+jL4jRb8BnRaWUU2QCbQX4yDeENfSBuSc7QRpR8M0ftgEGCcn7fL3sr0AHKm/dOGVEbs02w8fxdZb5YAFVG7V/+NcTCezBE2ITyErTWbGh+of5Sje8ICPfJnuyljg+cyNvwa5gv7GYjsoFe0f/eLpBl+1nwifIb1r7oFO1d9xlzmqZcSuy3m6gXEbsQ/0WHRnSnoI/y7xBPEWvoRoQGyQDyBbmC8eeErdA58orxkvriOcdBfR+5F3zxvMRLxArYSY7dPHzEacpVP6NzYxBTtQmOX0AP7oXNTB2feNmzdvp3jQFfpD0Qnx0Qf4eNxQGfhd2D7YAz1RuYFOjA/zJe4wPQa/WO8ialN9OvuC6hJdJCwM8EEYkucn/Q5LvEc9gsfCHrb4+q7wKfooyk0/C32ZD6cvpixRW3K9Zy8humjT4unfWAuibfwpfN94zvmgdhr8TOqu+kZ+oF9g9ecr9DbEQwC9aANAwfhx+x8HHwXHuI84sYseMa2ZnvS15z4kRnBQz34QPkHuU5v2hSmxG47wE/yAxmCdvgf6AL4NDM7G2ZEVrBf+PipqekwvXmaMgOPGadlPuAHDvB+HDoADMb4qHELsiHWEP5CX9Fvd26W8Ya2Cz8qbYg5LQZAttAtyh9yBn3AKmAyfDdiFDAldAE+CHOWPtTQEONElyy28n6LK4gdmF/j8x9+l+gVFAuBMjPojhjOrDCrJWNvak0qGKMBKXEMPVAUODwIGkaPH1x0oAZGQqlk0jAIdXjKjO0CyKIDB+GUbDa+hh9zSsIkjmdKTMWDwVlzKALoak+KY99pM8+qoXTEcXcicARjYQAABf2uMF36nJialCBggJn+TZQLTgLOD8IFWVSIiTCFpEAQQEeCwcy2rQKOt1CAPeEVghOcXBPBjU5LaCSfYAiaHEBZ1bjEISCrgFIgqYDA4ISFNhoYjEd+wCc4MChXQwI8lANKS8PCCJAbwSWUT5nRF8fWU58Z5UCDoXIZnwxAYh6QAdhKwCOOAQqFY0wMwBURcYEYRWgFMIdM3eSRBKnSW+ADr8TI6XygvNJfRwIngAUOB/MMrjLmXANyyMACnTIBliZW7NvAhAM4nKMqEGso0FcnqwFwFjIBzxCs5TwMFePiHuoO+1Z1kysKQhJQbNxT+uGIYOCgtam84bj4h3FNVn6P2hICUJeJlesm5w0QQKcmDtFAlxqkBgrYF3lrYBAgivPiT1N0TpyQ3E/nLPfBgaIvBAMHWnTIMp8p8e9tBHo6ZyRAGiAZxJCIOKYQ1veAaqEfriMO+DA33G/BC4nGnNgN+KH2B9nNg4MyggIV2ADsfE7674L3EtAmJsR/IMmVhA8gAzoGGpg8AwCBGKqA6ij138dFrxZcwcBNbQVd6IfJMa6ZblEuJg/6k+0iA4IYdSwD0UvqE5NUhB7VhTkJCLPiK5hwY1Z0qgCcMj/aHAK02L7YhAZfTbTBL5eV6qTrA67JmMZH91OeIEVHZzqMD9LDYCG8NWWCj+oKXQgWGGdcbB/3Xj2jwIFyED4gkbZ4oCCEYEb4Lv5qQgKR2p35HgRI4RlsH6CWwFr+BqidmJySn0nhmQiDeqyJBz2xBTLqH3hOvdPEQQH7WJiwwgDBIgGC2Jf4TU+kKRvz4dQWJBuULfwcAuKMgUxNLBlPLagy2XGgQd1QO4xJp8UO7T4LJB6UW9RhjA85qX92Y3ZwNNcQWzcgrIDcWkA3ES2sKAN9ajGJgeuw4ExSNUincQz2PDU9pTYPEAOeO3CDLmIu1FmxUUvCGMus4MRwSp9o4NunBn8l+ux2QN2jv9DCCPRIfZGALCSGsFTzcUiSIRPEo0mRd4wpFgdAKwsP8o/+CHGQyYsyRGOZJoVMmDGWAx1LHjHHjvhhAKtxuX8aoFb694IO/aLZuictEMmcJFueyCmftfAG/4iDPCI4FN2Tc8Acbt/sx2KOJ5Sch9DUFh8Jm1S71Tjov3u/oBU+siFzZXzzogRlockuC0sEVzIX8UUtJH1W/KAnM79qak4dAsAbSNxsIKbK+PSPAkaBr4CzHNwT9IrNjwtwoL4Ci1iCrQUtNQedI3RVbKetBTiqM/TPtZp6ZTohn8RmSHrADyvc0CQ4hiY/U4KFYP8ALrEgIPzA4fEdbAHegO0DRwGfQP6IUSyi2fhZKmvmIIPBtgzZCp2azGho0XvBJ09sGE+gU5yXJcjWt/sQJjwAuZas4Lz6FS28evHMi1xIaOHD4cuh+14EoU5Dl+VmFmx/c9b3xVYUuXswgoLPzcyGbZIJzF55VehedbVWKaiYmUNRUKxZJu4dm9gk7abJGFZKIhgE6FSnRqHJ/7YGyW7lk2DAJkbjhaLLeVRyYVjMbLdeRSdNhTAHrQUEZDAwClXwtlR9x3fepOMwM0Y1wyrQqPB46AYoQIFy0KQiIJvSQKvOWLxfBvZllK4QhDE2SxUFlWUICXTNzm5ntjQnQWpOHDqCzMzMVjFa6dzmy2oSDRvzV7CrwbMhIHtKxkbCgXlLsCJYUwV3xw3lB93SKvLTnQjAMuaIzDFWIASoiGmrUiNzhoKYg1TLyZILBTta7fIDyolgOjW9iZVDAirhParjs5yjJBoCcpnlCU9AO5MegHv4CgRCxgWtjCCogi9QNneolBy8B/RnWoNmdFIGbh0MauYrvJE+cYsrMu6HAaHiQoCAxCC6BK0SQycYqFGpREInvI+g27zXZEMyWxYWNMMnbapodDqoehJ8yjy29mcZHFiRsyoFM2L8TVlIVk091cqrAgUBJkjWWP2Es7FM1lYxoNSseEtbZLAKis37AWwgQArAQeBqC7DE3wB6OADcPGNH1QFORqth4mwkuLRlvLZUfdE3Ez3LvCFxAhX5G3pzldg49d6DOrQEDoeBS7N0AAJWRSQQEFhAn5NiLmXPv9UZ97ESguqz0J0lJdAJACCt9DDZEH5057ZJMFAZepIGZXKwwtUDXuuF7VduoRPcNC2ViU2ygoVKltAN5wxezFmgARi/yU330CTMAiV5xARSkggsUpjzhK9AXsCAJXPXRE7pYeVEAsX0ZqmeiP3DF3QQBBx8mz27/TgwBt96shqG1SAFePTuGhQM3EVApNEpw2lMqoUOACkGni7Hgw5jxavDAJNPBjTB0FAEfwY/NT29mXasyYYmHPCvOj+xS+GXz7Nv8gbfYCestvShU6gqKvjSVRqppCEZikkkKi2W9GNVz/0oqosARpLI0Z/hX6w4Kz8caEcwaX4otUXczIIIeGJBHKtCYwRrtopEn6EScCCrdogKpyYZ8CNIbhTYWIXX9BzygCy2dKX6LnrEe9IChflvdARZgn9bt2yNIFFxuAF1+dWDttIHfzpJvZzFKgorb+IjrbI+Af+PSiSDsiYIMdmCD0IVU/QWcmIsQzEJSYzYolbfFdBA5liRgb9zIOV+rAPwTM3TijkOL9LAPzG2M2HRVVJWTWUsjO1Frxi7cS8Mn5NW3mocsf7BH8gd8REJAFaTkHCSn9rWdZlFIgApAC3DIAgTqMv4Cg3pVZJNvpnuNKaxeosqo62CmE6w4AIasCqGFXCJj7I8nIFiA+RuE6AcvqVnSehA5q6YTJP2mBzRdHXFh76Pq1+IfRrjlUD9iPoILsF3oZgoTsaLXR3xDeARighattAoDB0YayImepVUk+9YfIw2BJjSDJM7T0fcEotJoDtjmboW+EhbZSXWQwywij/0j0k0VrKR+LMooPHak0oH0CgoZFkfDSIWOlmZZbFEZaaVXgXmONdBIdJwEG3TVoQ9ViPu6UqOFFqkHX7XgpSvJumsvE98QhaauGXxIvUrbA/iTTRYkZwQO4E/UDybHbpKLXp60Xlnif3bckNS+egjc5dMrw/BiVJzuVEYQpItY2TmzGCrjl7ctrBaAjaIZbBQQ1MbSpkpOirVGTCKkMyE7oCRgQmMAKhjNQRtVWE0uOjhjlaX6sF8USBxzH74spwue5osvaQCmcu0W6IQukwNR4nJwYOD4KyqwaV86Z/AyhipCohsRI0OyyF0eAPJnDQKKLBVBBH1yMWDoSDQFoKQZczqxNLgaTNhd7ZVxQKqkqpLgr4MyqCIpUVzMpIiK9DG/A3osUezWEwrczrqNulkYRxIFCw4I0CwsoeqlTiM7du20YmhooQg6ssRCqqQXKmsWamAgSEDJw91y41X+qAbTAjAa4IvSxqMZ9QH+8ESkyABRV4GdHwpzSsbOQM2gEanie0xWLq3ZEmIiexgZd+MJrEP/sqM04AaeCiuE1w3R6nOmSAbbQykqFNQ3dQla11q5LK1YV1CF4AzCwSQGwI2Kgm+CsDIgH5gY0gWGbSsWgYHC/pwv+gfHBicOmh0gDHT0Ooi5dkC0EGC4zptCRqjkThLsXFWe9ifV+g1cWPgAJhgMgznBnoM4Mjtao2WUIjusaJGLwzLVvn5dht1zpm+OggXLZHxsdKi/FYbtO0GYJU5c13mFLDP7UpS1ZCATicN1ZD5zwHQIDFAAJb5Tu+0swEUrab0MIb7EMiOARwRWEAGcjToCKoqBOFYFlZQgGCBihqcL2TH1SM1cP3NAFmmP3oOOsvld9gpgodxi94KsrQAkb8964/VN08UTJa0HcqBzIxDsn8DgKiGaCBVf6XjaYDCuL7SxkSSSYJqLH1etBPzHXQS6lO0KimfUlGVioIJ3+biQYlCznyTMFG3jyQHOcG4qX1oQqZ65EdW88r8vPNNz3hxQT81vmgP6tOU374aqUBR5avO2MfyO7HyApCCyiLmrFttWDTw+9Cn+f3ZWQVO6EpjmOqDxiQLtjhF3rc0ebcKLNpNITDLT9NX5OC7MSY6deBuMuYqD5bMTb9hB22x6bYs33OrDuzTVjcddKb8ZrguKKnHTm7TINBy2mU1FdvPDOBwVROx32thVoxSK8jKogoBgA9sq4qtAnCLCEGaxWC5i9tAjKda/FHJqV56pVtXkNKYn9mcsglJv2/fdACmklUf7fFfVyO8Kqna6KtfvvrAZIcVb2nHOGZ6Sbmorihl+g++ESvBgJe+LcjnoW015rueaxHPVpbgr4S/tFehkyvFdo0YgHjARop2ZXaGblx95VpbYrAnP8orZ6f60FTsnty63kKvNbn3Wbk3x9xMLoZHsrRK6dDqPH7MhsE7+hI9S32gTzG7pD3CnPR+/K5buMAYrCzbNlxzFehe4ZDGWZp09J/GBI6hcskdPqad1C7V7zGuOIjGaWcYaVIdbFx64XmiLxoIU8dJJA8jpuvSiiyMJ11WYuZj1SdSLfsYMQaVnkBT+Zb4bvW9IEYMD8qnXiVxanQsSqw7N+lWFT2ZA30Q9cy4qBrKpdx4+MAmKc7BGcZEwO43IbFHttV2bhjAmfRzpigeHBpyQadoS2jMwPSc0zUfBWTaakJ2JYt7YcAnzlv/pwqlM2FZn3zVAODns+aaLJAWtPN5m0JjIsTKdq+HAVQ7nc9+iwJU3Z8Kw2ACZE4Nc4MSE0RhivLDCqQFXpdR32RCJSPQ0gom2UJQrEoBOsYwHi6Y8eeyOjtPebBUrDIgKEMXBAJwnDAu9wbGFe47hAFIWwOVsQUdHS+Lykp1MPUc1F2VAxMOc66gd9xly5mo4/TPtNKqlS6rqDBBBL1wkmYQ1j/vtYoWZYtKJa/peQeHVD4iagssCFJ2qMw1ALihYXRs9RBcqgkHnB91m4ak1Hs8wx9xB0la1VR9iWAccxDiMJYHFCiV1op0vml9ot0X2SbWqMOSqfykarttSD/sAYDDHLuqqro7XZZUhwUO6HYk5YkvH/sqj3EYrajD5KvZEoIsx3F5s0+rBtnKB/eYg58AxtzXpjpLwGwydPtxGeQCUZSMzg9qqH4ssj6arwPj2A9/0d7N9G0bAmg2edDP5Ttze1JblXa0jyIU1fHdBrx/H5tL8Ribtqw816iUKQrZJqe6wlrsr1dqza/gkndu+o/ryFn8vvw81fdQvhYHijSlrHSZgTuch7KEusjEOWlMbaKf9b7dpasN5tomNLTkd64VmF/UCVIBYu+0V+ipJb/qu0xu0ddHA+dFbsNjcqP3ARiwSgrfYxVGPrsCXtOBZ/Jj17TvbIUKdkJAg+dPGNMUbNFfO++js8uUydU+KywpQFE/ZHYpQJsitzilgA99w+FqO97PYU03XPAWHx1omnAl5RVboj1HVmVERTotIkY/qbijuAc8VgRlzLYV53ScRP9MJqlbH9CHYg5ujzawxR3cwi0noMzdpPHBha/bxLRzyF23eGL7kmId9ph1SxxEHZR/2HnHXJKVVjkHewMgZncGeJnwYjubXGMSUpyUUuLj4F6UKziCDpQ/3Eap89GjaB9obgzSa2rrlD2N1kGxj6mdx35id4lX8RhMm8/Go3pAZSgC01Xql42nLFA9o33rXEg19SbvGcxrKGERwxSmrh3aSdUtBFdPXpUHmX7FnQyIb5dedL5cUwI5aQZR7QxxFmoiOU0MCNHolEMk2GXBgCmndfkoI8greNq/TlF3pWaTRR++zKh9KC04AAhT/XcG8qLpgldZRZ+UoVRIDbYYRx8wS4yCJmdGjbF5W0YTfndA1Ga1TPcCxYdAoNBCHvd9uhGppkXDUfJUIC5INxJc84fAMF/lUabY8WEr0iFA1AxIz+fVxNlNbqKyEyvjZmzKeL1LrZCsSw1YT1i1XP/g4dklHwLEfLmU6JV1NUa0icrLZcBU+pi/85m1yqR3cwp2xvyu0ZZfFWBL8NYcSOR5nIcrPqahzoQclf/FB5HceSs7OF/oljuZhDMZjYnx6w5znRuXeqhnBWdsfUdwb8Elv8KRsCD3qzon0p1WFs1mMm3NAki691anp3M36KC02v+pe+boY9yXBoNxSwzMXvLUKQMIkKXvtoMkHUk5YqDWa8w41Ravrg7bOJb0bT1Gp8V+EueXBe+EErLG9pgZl/iQlgENtPS9hwxSmKDYgQcsl0dWmVJegSfYh99FlRvVCuqZ2y2imNLgIIsPQeVT7whEsofCbNZeGCg49WEuHk3wgC79FXXW5646oTTg/wKICKB8DE188sjTwI5OJep6rLrgHMUSwyG3edBWWMHDWGp/XPmhL878MR7JoT3a/e6N3IdFXY/3Kf8WO6jH87mSxsjmtA/jDz8Sf8M/8wxW3sX/FVxgYp9jkK0BYHeT0aaMGrd5ZZ8O5HPzGOSV7yz2DJmXuWJstcKhq5kaU2iz0akPmUzkTBIHzA+p3yBRGf8gQ/Rt9HqBwldIMS4fXIL88YC5R7Dc0Gor9CbOe8dNliD4gK5b/jdN0b1QBCrmPxJ/gvbwMXq/zcM6KQIj0ooYTvnpfFkY8PbQJ8Yp9IWW+txTtG1ry6X4JOkBrsuilcki0pDFNT2V0mh7e80ws1U5nSdYlSVQvDXasHXFeaPHviQbcZtoJsX4m88XPBm3pMpYkGvt4ovyMgzgfkBlDp3TxC0+aJz0stBqvTCqsb8Ri12qDMO0lT7IJqnxW9XT7YP3+TkrRClakZOgzaJZ7NyMOUdbygAFI6ZxJiUjQlfa7MBY9oeuXiiVBMUeKFKlSrmbAzLFWdtkdM58zI5KWJBg0p05AVYf4YTVc7IiDePyh2HktO975P5f76EoaVcuGAdogU2D4f7DMbIggGt8M4EoHnjH6hG1DAKwqpJDCjkPV4UuvYKkLLZKrrFdz2glq0lQnM1fwXamLYlPMCNQWnO8py5YH3DUQu+YW2raWcoTGr9W65hlpgcVUMfhXlgLBGiS7WvE/e409GZ2yYor9v8wh7b9auq0vTqX+CKCXixFZ/IqmFUSsSBz2Xxig2kg91WZnAMpTMcTMe9ZZW1VaW5FyEC7K336cI35Sa2e6nNEix5kC5x0Fi8iP/VBk7wDh06DBh4WnPK05oezXC0XxxyIsAuTRVQB6bNnmQddhzT2Bwi90op93RqK1alEWUe9sk55wWSfuYuF/KBxgdHF6hCUdWFzbE3wynFWNRjO5h7e1kLZY3uHqiGOXEEUw8C+RF6R3HwxQ19KQFtSHffsX+VgYydVMH0YDIyybQPEltjLpvpE7sXAr8ABvOQDqH6Ygx42sxhcbULqGzNa1CZtHHQpmUEEopArK4Z2TubEN1NgIvqMl9InP7rfNkvoOV22x/azPB+K4NRBRVsmin12aceZn0hhAvCKcCGHPNVv5BTYiTO/NIw/uQiK+738XGhc8CA5ufCPYoMhY5LN7mpwT5yqOUe5hgeUUT1zYEp/arrgYBii9IQl6vUQG3ey9K0aJuPE+XtyH5M1m4TjM4ia0Mj2A7vc4kNGLnOzFXYtw6i/TvyvBcIUFEfdSeI0IxjinclAfWwWK+L4vsXNYp72lY8pPJPIBMlxGwmPBpS8dL2hncabYNBfLOC40fh9igiVW1gtQoXcevQ99en8eBvkjrfxuMJpwNVmEGaytxQ+JwIl42MkmXHGZkynDNvywbV4FaeTgCy0wOoKVrwNr0VfFZlhfYPPY4JNuNprc41tEkyAa1Rp29JqYsjx1umO8QH+yxJ1+D1sD9OkF1sXdasdCESiliW42mWqr9w6aj/6TBd8twqQZJs+xPsQg9hvRENZn4peKRm+nYXOVx/ITJPNXFHJ/WmcoMsgN/1M15xXHlDi/Vl7LdbqHBqXXXRBBMXuBD3EU4dZ9qe16aQZGxMj91jJCftTkwXi0j+tHzwJqUaCV8G4T1Vwif9YsyGz5H/YauF9+C8eXBLjo7lIwHCQ5Je0qfYbKz60J99Hop3rWw4UUKUBeZ5P6ytXjGStKtEi4EjgFHSJl5VU5ruZr9bXSdkEyHw9SJcpwQJEFJtLe2Etl4pSTzOCxbJqzVXylF3ZE/LK6EzBVAbRAVGZMVVdUqaoYNw6axqP73NU+uVf3DqBQKyZp76EymaZExwGzxAofhsYeFReqPHFg8rsSYiqIOUX3WCytyk6q2x53/XZgWMKXeMSn5SKLY7osNHrJQzGuFBDjToWNJXJ6gAy+6Nx45w9qMOlUNdlZajpYGZDCnzsCXMyVrdcONBxun050R2HP7hphCg15pRcvzJtMzlbY/ISwQe04wEIHc60UmlQx6t249X/rIIZFTTNOkkDDrq/YgBMWJr+CsxA27JlcBs601PSJjMRepqWIJPU1B7oLEy/pTfuYsRTn1ENVYiZdimv8D+c5cNDNntfSubNccIa+MEIvtkiPeI8IxONy3CeWUPqNhVdz2ll0a4nWSArMM5eBH1rp7ovhzxxnnVsOmlO3e0jBi657A8zpSxz3+rtM7CfTc6rxZ6w+zSbA3t7To4JyVz8vGcpRbnHYJYwh8QNURDaRuGiVT6z1kNvLFIX/+aoEdnauNIFtn3xKZdcTcf0xDiuvlT3n5oQUwEvsHXa0BC/nXoxJUd10yvHUdY+dRZ2NEnSU6rb7hti7B7iv/RNFhmvXZ66ymTxzrZx0Rp8DPe/SbwnDaaTCnKSOJ1wPPW12DrQ8i3FbqcLRO3zclCMrt2e6B3sDtUzmi7fmoPTdm0Bn5U2OiP4jaQLy3b0Vlt9NY8obsLLCTpkqqU5TUv8PmWRFEdooYn/6wiQ8mKVX8vKFaaDFCz8C7aWaixNlMvozM4wiVGXp3TaeKSXrPPCmvsa8xUWg9S/Zy4Jf2HlTV85mC/qpBiiiBNT9rvPcCoVTOtqulUbElpV15xN/pYh0IQHSf1wfc3hTpsv5x7lOswPpPzKGiuP8v4nuqXLL7wg64kOKDNXmin+BtjhHdxVyoATDdScFoAUoRDbFYSZG/1n8ykAACAASURBVFv/YLUHLcVxagBVIj1s+d5Y0MOnxZfwn36ZS38YoMCfmHXYBT4QZPxS3VPhZYHVNQuyxINA2qGRyT1dzlQH2vhMnU+8wednnxwX+sls1SwrFZAHSx+MHsArdJmQh/7mFpFczGK28TfyMm94zjLF6dl8nfm6gJ5VtV3hiUXsZr73GLwtyCua3iJ2nvdpBgbiPKCDdnP0AonfzDFDtzZEo3fnSr5qkHJQ7FWB3O1Dghiu6zO7WdBI78kckWa8+v7njHPU7SjPfKDFBQU+WcKQbp+JgY9TyoIs52D7SADCY+jAFpaiwci9GhfJmMgHOmFBpQuWa92MlZEW2CVZTJYaVb/R0ABlogjKclWCNEDyFuNhnFdWztcuOV6qwHqWdGcsijbuAEF7ztoOBL165Sx/LSdt9pklRi4L2KXOL/oJTga8K9wfdT0K3BpkDxdFstJbk34ou9xANgy6LIznvgeULfDXJmGAd9/O4ltsGPSMsQ6IMB+ucFGKmuQ7rVmlJj8PheypgSNhySaWyduXwgv8clkmfQzTkUhI8fbkoS1eKsrDVYCX3I8tcEgLemUpJhEh70zE7TrNCGmgeIGacmzzEfgsVMd8yunqmt3CIDi/YJnPuGDk0wrgA7hBNfO7mrwWuaj3thr+RhvlRwaKFRCzCGSg2JMFX6HA/Z4Q43cvJKkrVY+jRetEd3KcFSKTN6Mg3psHMDUzH4G5mG/KJCX80AknPVryAFosO40WStktlDPfs4znA9KrFh+UCBU6hqE3M1BcVK2imlEPGEsW7t9PWaAeFPEg60FdS9wYoDDAZGvfXjBEP7NCjF7MVqzTxuSA/C+uKkCGxl3nj+qL3kVZozd7pgOvzozf2xA79pjhJ4xn6Je8086GJYAOfPnslbPAZJUmDvHVciaDXHLGuJfR67YYHy5MfbAPEseyi7E6acwe4jgYmy6/8PxE1olCGZAgBE6EySdCc8LIKyEddWGwYYqKzFFf1GEP6ySVMSoM6IZjx/JTeyEoTh/qURetdCQrizmlSmliWymnYhnQ2Jz/zLiv2hUjcSLRaHw6emaLC2lN7TTSDWfJ9/QZGE+qEzqcOg/8h2ywDycYjyx5yE0SyiQ/+YcNratElzN6oOhpvzbdgmMBOwZ877c+uGY75rVHA5rqWKj2SMrzMbNIpHNb+h0bAUAXomp7UmFEX/nTlhkVxaXeSUi2OQu9eAAEtlLU0QU6jNes5d2qDumJDf9QHqjyFl1oKcKNp4u0XejzKQK+SQAP4Mj4fL0fafFApaAnC/ia6OKJbB5JgrcYlXDWeJdAdiy0fb+GB5ZiRbUgYw/EEbC4j/Kbc/aXjYb20C2XlwfRuE2DEtDQBy9kXFiS8ZqaZr6AVXujATzzrUwEFEMc6egBfG/34iRov+Cu0h6TBRsrg/rqa7Bb231erqIIUSbZqKl7HJwFBgNz2SqDjgb3gq1fflB14p+uy/qJr5DJe6O8uafjptqyGBc0Emj/lnpmtAy9seC3Cm2KPMw/yzCckpYs8ZMHw3ySJ9a8FXQqKM0dRZPHdfpHs7NcH0NoQDyK5cThhu4PJ/EhN3wpiO+NNXCbW2kzSm0DYOSvv2HGH9x2AKx6qEexn5Qaf5OKLzmrynGyQyaFmKD/cPhntv6otyhHNeZh174fbuNZxxb7hK9403hKl9NTJAJjyrs/aDmLwVeMhd6x0uk0pTOyElbsPtumpclF8XBbRr/YeQefWFy9jLrmoFLadfnFMKMtx20FngLv2V+Ar4bor658a/GDc2IybGUebInhebO/whZQbQ7as+0h9DO4B9sKOfWUU0N012Q17MoQpeGpYbhxgWxJFwIIcJTeMxp/qteMhYQRdt64/JLfryB6j5pOfb7mQM2BmgM1B2oO1ByoOVBzoObAxuFADYo3jqxqSmsO1ByoOVBzoOZAzYGaAzUH1ogDNSheI8bW3dYcqDlQc6DmQM2BmgM1B2oObBwOrBooxne6v/ff3hg277RLeObzX7JxOFBTWnOg5kDNgZoDNQdqDtQc2GAcqHHX6gts1UDxV75wejj9Ux8Oz9vnwHD3ve69+pTWPdYcqDlQc6DmQM2BmgM1B2oOkAM17lp9RVgVUDw3OxNeddi+4cY33TMccNhxq09l3WPNgZoDNQdqDtQcqDlQc6DmADlQ4661UYRVAcXbt20Nl1x8Ydj9hjcOO+9yvTWhFK8SuvKKK+Trltthl+tdf03GqDutOVBzoOZAzYGaAzUHag6sdw7UuGttJLRsUHzu2T/jdolRxxOf+tzwV399h1Wj+vvf/lr4yPveER77xGeEhzzycavWb91RzYGaAyvjwE/O/IEs430mXPrnP4ZupxNueKObhLv//b3DAx766DA2Nr6yzuu7NyQH3v+uU8Kf/3RxjvZHPvYp4c5/c49F5/P9b389fOvrX2SbJz71eRJDbr8h518TvXwOoAJ6ysnHLOhg7/1fscMXxGrctXy9KnvnskHxT370/fCed7xh5Dh7v/QVSzrAskT2e73w6iNfxuZHHv9mCbSjvqKjbI8bs92Vf7k8fPdbXw3bpDL/5Kc/f2NOoqb6OseBD7/37eEH3/nGgnnd9vZ3Dvse9MrsK0OvczOvJzSKAyccc0i46A8X5C4/8/n7hn/4x/uPZBr822uOOjDMCii6y93+Lrxo/8NqBu+AHJjZvi0cuv9zF8z82BNPDbvutvsOyJFsyjXuWnvxrxgU4xtSnvLMFy6g9I53+duw6w1WR4HP+vH/hv/8xAfDE57y7HCXv91r7bmyTkcAH979tpPCzW5563DoK09cp1TWZO1oHPj4h97FLzS65a3/OvR63fCj7/9P+M2vzyEbXvDig8Ld/u6eOxpLdvj5/vhH3wvbtm4hH077+AdCt9uRtxItDorf9dYTw89+8qMwvWlzOPLVb1qzrXg7vHDWOQPgQ7BigOMvV1we/vtzp/H3GhSH4KC4xl1rp8QrBsVN+YrAU979H5UpvOLyS8NOO+9Sanl1ZmZ7QPZYBmTjK/wuv+zPYeedrxfGJyYq04Ub8NWZoG98fGJRx4w9PZ3OXLje9W+wrHGWuglBBVWTG+x2QzYtC4qvuvIvoS17rzdt3mmpIerrNQdWzAF8xXRLvlraD6zsvPKQfcKWq68KD37EP4d/ftIzVzxG3cHG5cCh+z0nwIcvBooBot/7jjdyks/d+4Bwj7//x4074ZryVePAhbLacKKsOtSgWFnqoHij4i48G3bF5ZeFqanpdYtPrhFQfNCLn8kK0kteflT43W9/Hb71tS+Fq668gsuqt7jVbcJTnvWvYc+b3XKBIQEEfvbTHwl/uuQiXkMFActvj3nC0xaAaQDUT3/s/QIcf0gg2ZDvDt/z5rfkNoNb3eZ2pYz0skv/FD710feGX5/zC4JdHDe88U3DIUedECanpvg3QPd3vvHl8JUvnk7wjWPz5p3DXvf6p/Doxz8tB8T/67SP8pUpd7zr3cPeyVIgwO4RB2p1/VWve1tcEnrHm18bzvnFT8P9H/IozvmXP/txuOmetwgv2u/QcOzh+8XvTcd94N097/PA8LTn7M1+oGxf/vzp3I93tYBiHNe/wW7hkY99MtvVR82Ba4oDAMmvPBig+EqxiaeGhz36idfU0PU465ADS4Hi7VLwOP7IA6gvU9ObqDNYdbj5Lf9qHc6mJuma5EANivPcrgKK1xvu+sJ/fSp85fOfidgKL2V42aHHEmOtp2PFoBjg8+S3fyA3p0Zo5MDhgXs/naD4dne8azj3l2ctmD+qmvu87Ai5fpd47UtnnBbO+M+P8W9sF5ie2hQuOP/X8hqS2XDLv7ptOPAVr457FVGROum4Q8OVf7mCAHXPW9xK3lRxefjjJRcSHL9o/0OX3N/8m1+fHd7+xuP5oFDxOOGU98as5j2nviH85MzvD5UhhHvwka+lY8fx2U99JHxZHkC6k4DifV52eLwHoPgVL9M9wemS0Klvek04++c/kapbO/T7PV7fQ5KFvV96WHjd0QcJD3tchsScJicnw173vh9BP4D6qW86XgD1WUwWbnHr2wRU6y6QBATXHvxwqdY9ua7WrSfDu67R8vsLfsPl8i1brg4/lP3FeCAEKy2HHXMyH7yrjx2XA0uB4o/KA9Tfkwepiwfed4+tefWK146rOzUoHg6KNxru+uH3vhU+9O9v5WRQrGu3x8Jl8mD2oa86aWhB9NrU+BWD4mHE7yRbF177pnfHSw6KceLv73W/8OBH/jO3N5wjAPnTH3sfl1l3k9e5HXHcG/kQ3cUX/i6ceNxhoSngb58DDg+3u4OCZbR76+uPDZdc9Ifw5Ge8INz3gQ/n+ff925vC//3vd8NdZb/xs//1pWFiYpLnv/W1L4ZPfuQ93N7wyteewiA97EBV+HWvOphCwlYFOOLb3PaOYasE+B+f+b1w7/s+mOV+fwMG+njQwx8b7vegR4YJAacAyahSd+ZmpZL9gPiNfssFxVD4F8u8b3O7OxLo41V36XyKe4q//fX/Dv/x4XeTh/sffHTcZvK7888LbznpGAHSXVG+E9ed8l2bil+Pvboc8ITOex0bHw8vPeQYVvzqY8fmwGKg+Pzzzg1vfN1RZBD2Sd7oxnvwQWJUjXHg2ZQXH3DEjs3AHXj2NSjOC3+xB+3WM+76yPtO5T7xW8uq/YGHH89JYTUcCe/mnXZeVxp+jYLiO9z5buElBx6ZY8B55/4ynHLSq3huPwF0AMCn/ccHwtf/+4xw3wc9YsFbFs78wbcDXveDqvN+8mQ79qrB6cKhvkaA+E7yNdPpgbdW/PmPF1MQEMiw4+c/PTO88y0nhKbsi3yFVLZuctObDW138qtfEVARu+d9HhCe8bz8V1l/91tfCR/7wDtJx+vf/iFWypcLin1uRSIc5BdB8YnHHhou/P354QUvOTjc7R7/kLvt4x98V/jON7/MrR0Pe/QT1pXy1cRcdziAB0DP+eXPuCI0kO0TOO593wcxeUVVoD52XA4sBorhd+F/sTVuv4OODjeTVT6sbn3xjE+Hz39Gn1XBWyjwNor62PE4UIPilYPi9YC78LDkf532Mdr5CwWn/PXt77RulXnFoBhVzSNfrQ9I+IH9rrsnS6ZeKX72C/eXvbf3XcCMow7am3uMn/DU54QHPOTRrAb/6uyf82GxpmwlSI95eQgOWwh2ud6u4fg3vFOecj87vPmEo9lk3CrEaXtsh5ifH3DvLSq+w44vyl6Xz4kDXuytDtgnefBLnsWgD+edbvVAnw7O8bsD8OWC4oc+6gncN108hoFipQt7tnsB1TnIIz2wjQJbMf7unv8UniNV9PqoObCWHMDe9vPOPZuva8Q+/wc+9DHh8f/y7LUcsu57nXNgMVB8yL7P5jMgj32SvH/+Efn3zx9/1AGsJtUPa65zAa8heTUozjM3e/vExsJd2Fr3Fnn39MUX/p4Tusc/3Cc86WnPW3dVYtC2YlBc5inIyqD4ZAHF5/ycWxmw/2TYseuuu4dnvXC/cN6vzg6nnHg0K7T8spDGcAt9xGOeHG57hzuvGSienZkJh+ynwf/lUpXGw30OiotLgNiWcfgBL2DbYXuK8WASHjapCor3vPmt4gOBxXvvcre9BKA8eg3dV911zYGMA58//RPhC5/9JO33uJPeUbNmB+bAKFCM4sbL93kGOfP8fV4e/nave+W4hAeP8bAxAuhzX6Tvqa+PHYsDNSjOy7vKg3brDXfhgdozpFr8bXlRAQqViA14iQHeQraejmsUFBcfOAMj0kqvV2BP+/j7w9e//Dk+HIcvAVnsSF/0fejRJ8ry260r8zfdPnH4Ma8PN77pnkP78O0T9/qnB4WnP3efXJvv/c/Xwkff/w6C85Pf/kHua3ZgcKOb7BGOki8d8QMPwL3hNbpPbqWgGH2ceOwhsn3igvB4eY/zAx/2mMrzr2+oObASDmC5G3qfHniLyze/+gU++Pq6U96zku7rezc4BxarFB93+P78JkRstXnaczKfCr9+rFxDhekxT3x6eOgjH7/BuVCTvxwO1KB45aB4veEuPOuEZ1Cwkvi4pzwrPOhhj12OaqzZPSsGxViuf/kRunE6PfAmhml7C0P6oB22MGBvK7KDc2UP4sc++E6+Qmy33W8UjpBtGHh7Avbtvv74I5hNPEJeKfbQRz2e+xKxNPuH353PYIutGH5gPyNe34YxUXHY42a34CUwHU89bpJ9LMO2bfj9nTk8aHdQwCvZ8LDav8gr4lB1ntm+NZz5w+/wlWZ40M6BL+57iDjp+z/4EfLw3mT46f/9gK9ywzIgXhmH93Hi8P3P+B1fT30/ab/16qtlT/Sbw/m/+RXbrAYo/oYkEJ+WRALbJ7BF4m/urvuKUYk5++c/JT+HVZ7XTKvqjncoDrz7bSeHO9z5b/h6xYnJqfCLs84Mn/nkh7m3uExiu0MxaweYLLaS+Ws0Md23vv44PoT8cFkBu5N9zfNN9rgZCwe+moZ22Da2l2zz2rZti5z/aPjteefwOY/Djj5JXk158x2Ac/UUwQF8YQe2U+LA80Afes/b+PsL9z2EX/OMBBy+Zkc80u0TGwl34TW3KA7iNWw4vJD3j/d/SHjqs160rkS5YlA8ajbp1zw7KMZ7g1HRLB5wfPu89HAGVj8+958f58MWOAD2rid7iP9yxWXcO4u9w2849UOxLb6s4oRjDubbInDgbRMDAdT+vt4y2civz/1FOPWNr+Ge4eKRvpLNAfiweQPYHyLVak8GALaxLw50pwc2mwOw41gNUIwvG3mrbDk571e/ZJ/oHyAeX0CCKt6wTHFdaWFNzIbmwEmvPiz84YLfLpgD3vZyyCtPGLnysqEnXRM/kgModrztDcctyiHoBd5DjMT9JHnT0B8vvnBo+0c97l/Cwx/zpJrbOxAHzpDY/yWL/cOmXYz/OxBr4pd3jJrzesVdSH6/+qXPhpvscXN+ERuwCY5hLwe4tuV5jYLifeXLO/AA3XfkTQ0OCgGUn/bsfcLNb7XwRe0//t/vhdM/9eH4JRlgFvah3Of+D12wnLZly1Xh0x99HyvGcLQ4ALbvJK/0QZUUX4Kx1IHqxic+8u/hN786J74nGJVjVCrSL+/4xlc+xy/luPoqfW3QpFTH8CDb4+RdwKiUpQdeL/eBd78lbjC/kVSznyrLhNgHjWM1QDH6wQN1X5InPFFFd97iPAIP9ijjdXX1UXNgLTiAVZLvfPMruYTytre/c3i8PDg77Et51oKGus/1w4EqoBhU43kM+Pkffveb8cX+8PP4JsT6m+3Wj1yvKUpqUDya04u9kg13DQPF6wF3IT5gW6x/KRoKJlgZWo9vxFoSFKPSWOUo7i3EvV4p9j3D6BPLIjvLUggqmksd2FeG5ZTr77pb/GKMUfdgi8Wlf/pjaMv7jq+/6w3kCz6yr59dahy/DoD55z9dwuW9XXfbfeRtV1/1F36ZCICzz3sUv66S9w0PZN6gKT2G8assncPaYXxUpkHXDXa/4ZJfo11m/Ko6ALrK9LuSeV5X7q3K2zJ8rdpnWXkN69fpwQoL3qmNZfLddr8xV3eKRxnarw25VuXXtTmPUbQOpama6x75kPI1JROseOFd8fjyo/X28E3Kg42kL9VkB4UZVLilXGxdzG8UByvL27RdqvvD7ABtvX2ZthUYsK7j3CjctZNsYSjirpQv0ABoguKuywu4K//sCP7C+64Ww13Oe3xfwpWCTYCD8BIFfCdFmaOoE8v2vyX9YeOyi39XsmkZ8oeDoaJw0FNZ5fdRl82IcmQv2qoqrVWGXO15VaW1zPhV+ywLsqrw6bratipvr015rTS4laH92pBzVRlUoXG151wFFFesZ0iALzezqvxabR6Uo3LtWm2k+VejFVAAD80uzTvVrfzrP5e+a3SLpYpKo8BzUbc2OiiuJi/lSpF3ngS8/MV4VWs37HvgUQteIZvyE/f7D84rKDZYOMqJ+PkCenRa1q/NL63cNSguYcnLUdQS3eYUumz7pdpVpbWM8lbtswbFS0kpu16Vt+tZXquW0Zdn36q0rCqDKoOWkVeV/pZqu3AuSwcB77MMGELbqvy6pnmwFI9Wen0jzb8arYpwyuiBYqLyurUYz0HjcnWkzH1V/FI1fq3+imjV8VcCiotV8wiuE1A8kp7rMii+/JLfr1qleBQDh1WKM0c82rDS/soo/0qd3aj7qyrqtUnrWvGgbL/rgVdVaSg7t7VqV1Zfqs6rbL9l57XU+OvFXtP5XNM8KMvLtWpXlBHeI7/ax1J6sNzxVltWy6VjR73v2lpZKPqNMnqwHB0s028V2Velocz4VfscllBgHJwfhbtGVdOHzt3gmVeO5wcGF+18Q1YLFkuNqq4AVOF/GQy5rP6uCVCM/cMQEvYE4+uPywat9RJkqypqGeVfjrA2wj3rgVdVabi2+VpWX6rOq2y/Zee/1Phl7XVYP6tN61o5zKV4UJaXa9WuBsVrxdnrfr8bDRRXqQBDeqvtY6r6gjLjV+1zmM91UDwKdy0NipN95YVlg4GBYj8NULzYsSFB8aUXXbBkpbhstaGKQPFQxVKK6v1h/DIKdd13W+t/hlV0YCn5L3e2VWlY7jirdV9Z3a46r7L9lp0Hxq8aiIb1vZFBcVleoV1VeZXpe1SfowJdFR2o0nYltI66d7XHL0Pjdb3NMJtdfM66v3TpYyFsWAwAFftczDbKjJ/e778vdd9S15eec75FVftei/EXw1GLjZdecx3J5qN7y7E9Bu1SdfDEKTuH683o64r6lo6jfS2tW0vFmKp8ryrXRhlQXGYiVYMAJlamX7QrC8qrgKyqjC1Da1UeVBXWRmi/VnytMveqNFTpey3arpVule23ypxGOawqQa843lrKay14ULZPD1hV+LvctsMCjvJ1yZpHMuTSAcsbl+FBVUBWps8q41/X/XEZflWVQfkYqqApPRYDxUW9HkV7VV+AfsreMypxXK7NlR23qs6WlcFSsh0lj6KvKPaDL03Tx+3yD+At4BP8C4FuKweK03Ypj8oWN1N6Rvu1rOhQxg6UpnK+sNQr2aoKv4yS+WS972HBtorCV1W8KnMqC+CX44TLC7QMV6tXp8qMX4VX5ajMWpUZv2qfa0lvVVo2SvuycihWGEbNL5XBsL7Tc2sJHsvMq6q+lOlzOb6grK6kgWJx2su9SUBpZSguRUJZf7hWfC0LGtZKBms5r1ICWEajMjqrYKgccFAZ6CvZFuMHxh1m3yk9K/EFZeaVYoMirVVluQzWx1vK0Or0lGm7GC2pjRZBr4PTkXOPoFhlS1qswuuYjPcSFLdYKU6PYoxYKhYU5zEKFOfGTvSufNG03OsG1w0oTg3Hnf56AsUrMYbF7l2p8g9TqCq0lhl/LR1HmfGrzGcpJ121rx2lfVk5jHJ4iwUbvyf9XEkgrCKTMvNaS/2uQmvZtsNA8aiqUatVFuhWA8Vlaa3SroysUoBTpu+1kG3VPqvMq8ycltOmDA0AxfOhV7L7Zmg22myL2D2qqIVx+/J176OAUbF6WDVBLvqjUf5/GBAc5bPK8Kokk0aCxVH3V9GtUW2L/tZl5GMWeeE8zwC5vGyvockR3imMo2nA2JOcQX+gyQ5BcVZRLspzlF9ajH/FeTnoTUFx2mbVQfGf/vDbRVPDqgpStr1Pypk2jBGjguhiDK06fhnlrmqoZfpkCCq5x6Zsf+4QyhpW2fGXo9hl5VC2XVUeVGl/bbYtK6sqYGA5fVaVQ2q3qX6kD+sUt4+lzs31f615X2Zey9HvsnSXGb9sX0UdSOkuAhNb2ZStZ+V6R7Wn7BcdVfWHZXlQtl0V3alqC2W4VVVfygftMqNrm7LzqkYrQE6/JBGiWPNaKVbdy9PUbGZAqUhDCqKKcbAavXlSU0xRnERLvt3W9SvlXVk+jmLKautslfmD7135ojHcE0GrrPakvB+WNPhcfCw8PDeQhGggyQuOsbFWGGvLlgjpvw/gK7Jln3QmqPz3Q0/a9uXLOIIkRjiPn5Z8URp8fgqM0zix0u0TDopTnFNZfgb2F1Pyxh/O+YkkiMIUKDan7JVyqzC0ZMKtMTIFk9Y9JPKj2px/pyFvRnaRDan9+Xs9ZBwYtDRoWqaBjKPf7wmDkU1qxkkGixLja5r5IwKi02a2gg705dJZZpPRxDbSB2jQ14eg/A+hgQ4YMuY6H/rzMp5Q08Q10ufvGIHw8ZdGE7SJS4voui+5dL/Lr1Xui3LghSQt4RHobQndg3nZ42TTp0JEnqpSkT7hJffrcEuO7omCAvpBJUM7Oee0iurznNOrNCrN/DTeoM8MmBTzncIeMOszMxKZq/CGMoBsYQjyL+V1XplMHgUN45wjT0fRoIQql1O6IDsK2Pf6awtTTKVP5U/qTK554y8QtOBPp0nmxqHzD5C5bi/YM7dYt5HpUeJLEWH6ZXNNWysByZmsTW6eNASdC3U7M7NMB3V21C84PnzqMml20NVJxk8bp63owxPR1lhBMp7JB/Se1R/0pYZGnYGzhGPVJ5Shq9qPO1ToLmmV/v1a6i8AyjR4mcAjC/wXkxccOOdkczD1LzIcGkJHbBeS5tk56pn4AUeRJhVMl/EAY+HH5yrXox9yMQ1RcegmfBdQqbsttdOMShVdIj/XCPgFl5uSZ3yT7tC8JzwW/8VqjfyoqaifiuCYqgHavX9LwhN+qN6o72w226HdbpNfeXBMJxXJhpx7CJbkCWSAQKq+rQW5Jg9Fc2ifv+lCUUbkQKQxU2DqrF5ceEvCxuHexeNS5tPRj/rjIf2ZGMhbU70omcQPabFMHiqiTyx7wMeBh/nsBDqFIOXTiyYfSdY4lqgIlYK6lxsfMvB+0k+dLxMYOky1VfcB7mN9Tjobadvsm74q0HF/4/epvuK8gmKMAV+AcdCnz6OJCqI0EW0K4lToX9gXY1gWWxQaZPLqCRaAH0H8bcp9wBzUR2cfp+Lz0rkR1EX/pjxwOnRIItrb5wAACg9JREFUAXkT43EuRVAMutmngULFG2objLcGCJ3WTPJDHE8UWKqkZoMWr5zVtFnBE65i6pvx18Jlfo3BOnfiJPkEr2a3btdYKMSRV4JF2sAirXbEJaAf9wLIJlCMPqTX7QV801xHPoHDcGyampRvvJsk6MU9uBfYBjgH9HXlXHeuE+Y6HWGSjCX8GmuPybeYyo98Yjy36xTkj42N0z94/EYbeGeN4UIjcBlii/zg9+ibgAGpI9ovddF02z8VqRhscN/EuOU2rTjG7dvb8hTsin5R+2/86uunz5MpMkEotzpFBXkcsD0e5ic2yVceT4SJyXFxnGO8BmAHRkEIbvADOT0QVAbmclLmJNsiIE6GghRGC6AcnxEBzfVCT8adm5kNc9tnQ1d+p+Ckz7HJCSpyW8Ztb5qiw27BaQsHMVUGXwsIEBbGgDI0gXLgtCFQCR6Y09iY3Cv9NEEHBSrjdedCV/6NiyBbEJYxvCHBoSXtYYhUVigFDVx+ZJye3Lvl6qv4M7t9Joy3G2F6eips3jQdpoTmTq8lQlXgEB2F8RNKMy5fbdgSHrKEAx0EjzkXpdWTgYbMVSYgX9c8F7Z1Z8P2+S6/uhpzgQyQyakz0cwQ9II3mL879wWe28GGWzUCGpG5ehzyDDKQccHvNvgGPSBysbeF+L2xryTwoJlc7wgBdHz0ZFkgUqVzVCDjCqPaPVQn1ChoSNARJBxgomksloA12Ar/5Rt6IFc4BvyNr4qkvKCTMfDYOMWASoESLehYMFAhUbivSZJlc9Bp2kH6DkawyZ2+8yD3aeZHumV803kdSK6RfdFEc+BoQeCPKEoDo99Lo7aAQnuyYITf4QTpjOBc5O+u0D5APwha8+L4RK6dzqw4vzlJ6LruCyihZmdAPo7LVzNPiM2Nwx4YGCxhM90EFIVOox/YEHQF9gFNnB+IzHoyhuhrZ25OzkNebeor+oV9wnlmiR1MAM67GWZ6YgMiu8lJOOMpkack4YlfsQgldij0QF4iq674GOgJDgfY7owdTPRFJ9pN6YvzgJy1EgI9BPjH0UNiKz8TwANW3cIcUSFB4otKDJw/5yWf8HnjMo+0QMBAZqBLk0lNBFriF5oyf00MNMjDRj0oOzDB32Owd5qZgQuIDn7EeI9rtEkUFOB7xGfOCp/7YgsQM/qHzRBUUAfFDiXQbZ+VwAX9AOiVCtC4+2/XXSt2QDZtkT34P4nXZlJ36GmNftMF4f2MBPLZTjfMyfj4wfzgRyfF/0GGnvxgfogfDSsY0LcRHGdBE21YjYIcGbwNoBhAIHgsHHq7no8JtLUhEKO/1jCJmIDxoDPgjwOPlAYHHGPSpUiLvGTfXiyiv2iwgoYYpLad+rIFJMYT85DFQCpqVtjxC73OnNiPAkCduyWPVqRxXjDxMB540shEA7ZOkCQyF78dk1SqIgpNfQU6YuvT0A/hVyeRGWwHs2JBhxU+lQl8IX6Hrk3AbkV/QUO3C//R4e+QI2Oq6FRXxujB7uUTuuv2DfulBOCSxJ+0YNcJWCtWz7XQ1ghbtm2RceY47uTkVJiW+8aBA+xr4weI6TJfYJaWxA78DdrmANLkB/NSOtReMA7unZKvNk71UgtwxivpA7aE+eGYnJpQvoitIF4jbrcnELe1KuogfkDPlyU7TJ5TP2CxDudbsFvIAXGKjJZ5gHbwFPewOCggVeTVlPjpocxDGPSE7eGTbP5d8UkzV1zBUaAbbYBT4TV8OGQHzEbfK3TDxrYLX+mDgG2kY+jNlq1bw5YtW8M2wTID8R2Y367Cq50270R+gD7oCXinujAQfzgXtm+dCdtmtnEq44ILN2/aFHbZeRflHXwRqtiiE0iamaTIuU2bdqIOpHYF2qhLcr4r+rl9ZkbkOCttegbqJX7YdRY3RbDgJ3hBP83CgLQ1Hea85G/QDsCPtu5/6Y+EXswjFvsMp0LOXgxonPGeN8/3Rbm6CJQmAToRCEiYhgrC1MS0OO1xAyAKvqj8bTh6/RuSQX6H+qsGCTBCnVL6Hdfu5CFYKDSUAYF1IDSAgVZkoiOFFrFr6Y+AzzJXVkAIiDV7okMHKIbyilAIBEg/mNNVcA6gI84S2RGyHAIr+QfFAX0AvHpYlRoGgAAGA4Mx00DEwQtbZ2e2y/eCbw3bt21VRZJ+qPBwAK1x9gH2uztnloVAKhX39riCd0xsXuasjgPBQOekAVV/AHo6NABJWIRezchUgfQ1KFatcbnJyPNCRN/TQSqzKmQL8rLKu2bfDQIkjEFFE8ZTkUQP8DsTDDhyzk4cIfqA4QGUJ0tR6gQ0oHmVqSE8iw4ISy2sbGGualw48DcyTsjJQQ/lZsbv2aIDZne2GgShXNqX8jUDXKAXMmdylTgLJjXEiF7dhG+TQEcZgz4E46yWmAXNrMLSU39o4dB0igEqq0ayciLz7YksqbMGhOhMYZRmyA5eoJtMLsFb8NXag0e+ssA2olPbZ2di4gTamUhZ1ZY5N1mLWYted/y16mqPCCQd0SMmFfJ7auvzYseQbUs+kXB5MPFMPYJM0Ys5uZ+rJAiq4rgwlqZnar8YhwEZgE7sDc4GQQ025k5Hg3ZWsUYvqObAqUO/qKdm65iRr7jg9+lxADbEFARjAzoyPwJDVC1g57BlJFfbO/QLGshU9qo3YkcWnFDxBE/g/+gDmKup74iJmXQO++G4rBhLkCONZrvaO7kA0KcVG/ldAlLDkiPauVVEFH5kKRJ+B52wM/drOEeQa0EQOgBAi7tmxPekAMABlQMo+AbYBXy385xJiQUXyBPBFXrgfhDAYRxJycQkZaAVQPgC8EyTOcydgJsBHYUULXBATyBfBmH4Uk+m5LaxCQVD0T+wYmi5nlfgKYM+AbZWltQ/qN55IqnJDG5OQbHqO07bJ/ns55TPXgHKuG5GbFdNHCzoxNFgq0YLdUb+p7qlBRLYCX2jVa08385LVRO2CQFUmmQpgINvYsCmv9EVL/p78Be+01YeHTjGeGq+3H2yrxQQWDt6Mj7gGmSDsSZAt4zEohQLDgrEMZ9xsSeAEo4l/cNv8TpsCoCSxRfVRdg874OdIg4JH9T/6D2+SqE+Dn4ffgJFqVaYHJOiFPSSwFh/dEyXp0pqRoAe7BFjI9ax6MGY54U16J4mqwPNCyx2avLgOqqVbdUfqO84VsKs2KGFpCwJQS8AcPgBL6XOpT7d4jBptUQY/tmcCOM5cEERbKs+mrZBl4nERBcYq4BBZDwk2oJDCMRN7i6zNjCNdULsAumZ0bAwwfhiWxgQr032XoGPcRExW/jG6qz0J7PTKit4Zsm3J1PRhsUPAFhDx6g/Mhb444VSkAXdRaEA4JiykrkCG8H+iU2ga+bL3P60YOPJqib/kBUxImOP6JLoEfrtiV9BD8rpzJ7dToufKHBAl/3VcJ5cqG/zoon0QzkCZGth1xNLDMRCL/RcaPp/3dzfKSGNYR8AAAAASUVORK5CYII=;" vertex="1" parent="1">
          <mxGeometry x="-728.01" y="490" width="483.41" height="30" as="geometry" />
        </mxCell>
      </root>
    </mxGraphModel>
  </diagram>
</mxfile>
